<mxfile host="app.diagrams.net" modified="2023-05-03T08:05:42.487Z" agent="Mozilla/5.0 (Macintosh; Intel Mac OS X 10_15_7) AppleWebKit/605.1.15 (KHTML, like Gecko) Version/16.1 Safari/605.1.15" etag="ceAvwu70iuAPxl2MrZLH" version="21.2.2" type="github" pages="7">
  <diagram name="Страница 1" id="bAwH5c5jpfH1aqgjNv_G">
    <mxGraphModel dx="1194" dy="647" grid="1" gridSize="10" guides="1" tooltips="1" connect="1" arrows="1" fold="1" page="1" pageScale="1" pageWidth="1654" pageHeight="2336" math="0" shadow="0">
      <root>
        <mxCell id="0" />
        <mxCell id="1" parent="0" />
        <mxCell id="oe3DWGOV16O7k_9hDiHt-38" value="сборка заказных компьютеров" style="rounded=1;whiteSpace=wrap;html=1;" parent="1" vertex="1">
          <mxGeometry x="597" y="240" width="174" height="90" as="geometry" />
        </mxCell>
        <mxCell id="oe3DWGOV16O7k_9hDiHt-39" value="" style="endArrow=classic;html=1;rounded=0;jumpStyle=gap;entryX=0;entryY=0;entryDx=0;entryDy=0;" parent="1" edge="1">
          <mxGeometry width="50" height="50" relative="1" as="geometry">
            <mxPoint x="477" y="256" as="sourcePoint" />
            <mxPoint x="597" y="256" as="targetPoint" />
            <Array as="points">
              <mxPoint x="547" y="256" />
            </Array>
          </mxGeometry>
        </mxCell>
        <mxCell id="oe3DWGOV16O7k_9hDiHt-40" value="Комплектующие&amp;nbsp;" style="text;html=1;align=center;verticalAlign=middle;resizable=0;points=[];autosize=1;strokeColor=none;fillColor=none;" parent="1" vertex="1">
          <mxGeometry x="477" y="230" width="120" height="30" as="geometry" />
        </mxCell>
        <mxCell id="oe3DWGOV16O7k_9hDiHt-41" value="" style="endArrow=classic;html=1;rounded=0;jumpStyle=gap;entryX=0;entryY=0;entryDx=0;entryDy=0;" parent="1" edge="1">
          <mxGeometry width="50" height="50" relative="1" as="geometry">
            <mxPoint x="477" y="280" as="sourcePoint" />
            <mxPoint x="597" y="280" as="targetPoint" />
            <Array as="points">
              <mxPoint x="547" y="280" />
            </Array>
          </mxGeometry>
        </mxCell>
        <mxCell id="oe3DWGOV16O7k_9hDiHt-42" value="Инструменты для сборки" style="text;html=1;align=center;verticalAlign=middle;resizable=0;points=[];autosize=1;strokeColor=none;fillColor=none;" parent="1" vertex="1">
          <mxGeometry x="427" y="250" width="170" height="30" as="geometry" />
        </mxCell>
        <mxCell id="oe3DWGOV16O7k_9hDiHt-43" value="" style="endArrow=classic;html=1;rounded=0;jumpStyle=gap;entryX=0;entryY=0;entryDx=0;entryDy=0;" parent="1" edge="1">
          <mxGeometry width="50" height="50" relative="1" as="geometry">
            <mxPoint x="477" y="309.05" as="sourcePoint" />
            <mxPoint x="597" y="309.05" as="targetPoint" />
            <Array as="points">
              <mxPoint x="547" y="309.05" />
            </Array>
          </mxGeometry>
        </mxCell>
        <mxCell id="oe3DWGOV16O7k_9hDiHt-44" value="Провода&amp;nbsp;" style="text;html=1;align=center;verticalAlign=middle;resizable=0;points=[];autosize=1;strokeColor=none;fillColor=none;" parent="1" vertex="1">
          <mxGeometry x="497" y="280" width="80" height="30" as="geometry" />
        </mxCell>
        <mxCell id="oe3DWGOV16O7k_9hDiHt-46" value="" style="endArrow=classic;html=1;rounded=0;jumpStyle=gap;entryX=0.118;entryY=-0.03;entryDx=0;entryDy=0;entryPerimeter=0;" parent="1" target="oe3DWGOV16O7k_9hDiHt-38" edge="1">
          <mxGeometry width="50" height="50" relative="1" as="geometry">
            <mxPoint x="617" y="160" as="sourcePoint" />
            <mxPoint x="677" y="180" as="targetPoint" />
          </mxGeometry>
        </mxCell>
        <mxCell id="oe3DWGOV16O7k_9hDiHt-47" value="ТБ" style="text;html=1;align=center;verticalAlign=middle;resizable=0;points=[];autosize=1;strokeColor=none;fillColor=none;" parent="1" vertex="1">
          <mxGeometry x="592" y="130" width="40" height="30" as="geometry" />
        </mxCell>
        <mxCell id="oe3DWGOV16O7k_9hDiHt-48" value="" style="endArrow=classic;html=1;rounded=0;jumpStyle=gap;exitX=0.513;exitY=0.969;exitDx=0;exitDy=0;exitPerimeter=0;" parent="1" source="oe3DWGOV16O7k_9hDiHt-49" edge="1">
          <mxGeometry width="50" height="50" relative="1" as="geometry">
            <mxPoint x="671.5" y="160" as="sourcePoint" />
            <mxPoint x="677" y="240" as="targetPoint" />
            <Array as="points">
              <mxPoint x="677" y="160" />
            </Array>
          </mxGeometry>
        </mxCell>
        <mxCell id="oe3DWGOV16O7k_9hDiHt-49" value="Инструкция&amp;nbsp;" style="text;html=1;align=center;verticalAlign=middle;resizable=0;points=[];autosize=1;strokeColor=none;fillColor=none;" parent="1" vertex="1">
          <mxGeometry x="627" y="130" width="90" height="30" as="geometry" />
        </mxCell>
        <mxCell id="oe3DWGOV16O7k_9hDiHt-50" value="" style="endArrow=classic;html=1;rounded=0;jumpStyle=gap;entryX=0.118;entryY=-0.03;entryDx=0;entryDy=0;entryPerimeter=0;" parent="1" edge="1">
          <mxGeometry width="50" height="50" relative="1" as="geometry">
            <mxPoint x="737" y="163" as="sourcePoint" />
            <mxPoint x="738" y="240" as="targetPoint" />
          </mxGeometry>
        </mxCell>
        <mxCell id="oe3DWGOV16O7k_9hDiHt-51" value="Прямые руки&amp;nbsp;&lt;br&gt;" style="text;html=1;align=center;verticalAlign=middle;resizable=0;points=[];autosize=1;strokeColor=none;fillColor=none;" parent="1" vertex="1">
          <mxGeometry x="697" y="135" width="100" height="30" as="geometry" />
        </mxCell>
        <mxCell id="oe3DWGOV16O7k_9hDiHt-52" value="" style="endArrow=classic;html=1;rounded=0;jumpStyle=gap;" parent="1" edge="1">
          <mxGeometry width="50" height="50" relative="1" as="geometry">
            <mxPoint x="637" y="390" as="sourcePoint" />
            <mxPoint x="637" y="330" as="targetPoint" />
          </mxGeometry>
        </mxCell>
        <mxCell id="oe3DWGOV16O7k_9hDiHt-53" value="Сборщик&amp;nbsp;" style="text;html=1;align=center;verticalAlign=middle;resizable=0;points=[];autosize=1;strokeColor=none;fillColor=none;" parent="1" vertex="1">
          <mxGeometry x="587" y="395" width="80" height="30" as="geometry" />
        </mxCell>
        <mxCell id="oe3DWGOV16O7k_9hDiHt-54" value="" style="endArrow=classic;html=1;rounded=0;jumpStyle=gap;" parent="1" edge="1">
          <mxGeometry width="50" height="50" relative="1" as="geometry">
            <mxPoint x="683.6700000000001" y="390" as="sourcePoint" />
            <mxPoint x="683.6700000000001" y="330" as="targetPoint" />
          </mxGeometry>
        </mxCell>
        <mxCell id="oe3DWGOV16O7k_9hDiHt-55" value="место для сборки" style="text;html=1;align=center;verticalAlign=middle;resizable=0;points=[];autosize=1;strokeColor=none;fillColor=none;" parent="1" vertex="1">
          <mxGeometry x="667" y="390" width="120" height="30" as="geometry" />
        </mxCell>
        <mxCell id="oe3DWGOV16O7k_9hDiHt-56" value="" style="endArrow=classic;html=1;rounded=0;jumpStyle=gap;exitX=1.008;exitY=0.115;exitDx=0;exitDy=0;exitPerimeter=0;" parent="1" source="oe3DWGOV16O7k_9hDiHt-38" edge="1">
          <mxGeometry width="50" height="50" relative="1" as="geometry">
            <mxPoint x="797" y="300" as="sourcePoint" />
            <mxPoint x="847" y="250" as="targetPoint" />
          </mxGeometry>
        </mxCell>
        <mxCell id="oe3DWGOV16O7k_9hDiHt-57" value="готовый компьютер" style="text;html=1;align=center;verticalAlign=middle;resizable=0;points=[];autosize=1;strokeColor=none;fillColor=none;" parent="1" vertex="1">
          <mxGeometry x="771" y="224" width="140" height="30" as="geometry" />
        </mxCell>
        <mxCell id="oe3DWGOV16O7k_9hDiHt-58" value="" style="endArrow=classic;html=1;rounded=0;jumpStyle=gap;" parent="1" edge="1">
          <mxGeometry width="50" height="50" relative="1" as="geometry">
            <mxPoint x="771" y="310" as="sourcePoint" />
            <mxPoint x="847" y="310" as="targetPoint" />
          </mxGeometry>
        </mxCell>
        <mxCell id="oe3DWGOV16O7k_9hDiHt-59" value="неудачная сборка" style="text;html=1;align=center;verticalAlign=middle;resizable=0;points=[];autosize=1;strokeColor=none;fillColor=none;" parent="1" vertex="1">
          <mxGeometry x="767" y="280" width="130" height="30" as="geometry" />
        </mxCell>
        <mxCell id="oe3DWGOV16O7k_9hDiHt-61" value="начать сборку компьютера" style="rounded=1;whiteSpace=wrap;html=1;" parent="1" vertex="1">
          <mxGeometry x="230" y="610" width="174" height="90" as="geometry" />
        </mxCell>
        <mxCell id="oe3DWGOV16O7k_9hDiHt-62" value="" style="endArrow=classic;html=1;rounded=0;jumpStyle=gap;entryX=0;entryY=0;entryDx=0;entryDy=0;" parent="1" edge="1">
          <mxGeometry width="50" height="50" relative="1" as="geometry">
            <mxPoint x="110" y="626" as="sourcePoint" />
            <mxPoint x="230" y="626" as="targetPoint" />
            <Array as="points">
              <mxPoint x="180" y="626" />
            </Array>
          </mxGeometry>
        </mxCell>
        <mxCell id="oe3DWGOV16O7k_9hDiHt-63" value="заказ комплектующих" style="text;html=1;align=center;verticalAlign=middle;resizable=0;points=[];autosize=1;strokeColor=none;fillColor=none;" parent="1" vertex="1">
          <mxGeometry x="95" y="600" width="150" height="30" as="geometry" />
        </mxCell>
        <mxCell id="oe3DWGOV16O7k_9hDiHt-64" value="" style="endArrow=classic;html=1;rounded=0;jumpStyle=gap;entryX=0;entryY=0;entryDx=0;entryDy=0;" parent="1" edge="1">
          <mxGeometry width="50" height="50" relative="1" as="geometry">
            <mxPoint x="110" y="650" as="sourcePoint" />
            <mxPoint x="230" y="650" as="targetPoint" />
            <Array as="points">
              <mxPoint x="180" y="650" />
            </Array>
          </mxGeometry>
        </mxCell>
        <mxCell id="oe3DWGOV16O7k_9hDiHt-65" value="" style="endArrow=classic;html=1;rounded=0;jumpStyle=gap;entryX=0;entryY=0;entryDx=0;entryDy=0;" parent="1" edge="1">
          <mxGeometry width="50" height="50" relative="1" as="geometry">
            <mxPoint x="110" y="679.05" as="sourcePoint" />
            <mxPoint x="230" y="679.05" as="targetPoint" />
            <Array as="points">
              <mxPoint x="180" y="679.05" />
            </Array>
          </mxGeometry>
        </mxCell>
        <mxCell id="oe3DWGOV16O7k_9hDiHt-66" value="Провода&amp;nbsp;" style="text;html=1;align=center;verticalAlign=middle;resizable=0;points=[];autosize=1;strokeColor=none;fillColor=none;" parent="1" vertex="1">
          <mxGeometry x="130" y="650" width="80" height="30" as="geometry" />
        </mxCell>
        <mxCell id="oe3DWGOV16O7k_9hDiHt-68" value="ТБ" style="text;html=1;align=center;verticalAlign=middle;resizable=0;points=[];autosize=1;strokeColor=none;fillColor=none;" parent="1" vertex="1">
          <mxGeometry x="387" y="490" width="40" height="30" as="geometry" />
        </mxCell>
        <mxCell id="oe3DWGOV16O7k_9hDiHt-70" value="Инструкция&amp;nbsp;" style="text;html=1;align=center;verticalAlign=middle;resizable=0;points=[];autosize=1;strokeColor=none;fillColor=none;" parent="1" vertex="1">
          <mxGeometry x="487.5" y="490" width="90" height="30" as="geometry" />
        </mxCell>
        <mxCell id="oe3DWGOV16O7k_9hDiHt-72" value="Прямые руки&amp;nbsp;&lt;br&gt;" style="text;html=1;align=center;verticalAlign=middle;resizable=0;points=[];autosize=1;strokeColor=none;fillColor=none;" parent="1" vertex="1">
          <mxGeometry x="620" y="490" width="100" height="30" as="geometry" />
        </mxCell>
        <mxCell id="oe3DWGOV16O7k_9hDiHt-73" value="" style="endArrow=classic;html=1;rounded=0;jumpStyle=gap;exitX=0.503;exitY=0;exitDx=0;exitDy=0;exitPerimeter=0;" parent="1" source="oe3DWGOV16O7k_9hDiHt-74" edge="1">
          <mxGeometry width="50" height="50" relative="1" as="geometry">
            <mxPoint x="270" y="765" as="sourcePoint" />
            <mxPoint x="270" y="705" as="targetPoint" />
          </mxGeometry>
        </mxCell>
        <mxCell id="oe3DWGOV16O7k_9hDiHt-74" value="Сборщик&amp;nbsp;" style="text;html=1;align=center;verticalAlign=middle;resizable=0;points=[];autosize=1;strokeColor=none;fillColor=none;" parent="1" vertex="1">
          <mxGeometry x="400" y="890" width="80" height="30" as="geometry" />
        </mxCell>
        <mxCell id="oe3DWGOV16O7k_9hDiHt-75" value="" style="endArrow=classic;html=1;rounded=0;jumpStyle=gap;exitX=0.545;exitY=0.027;exitDx=0;exitDy=0;exitPerimeter=0;" parent="1" source="oe3DWGOV16O7k_9hDiHt-76" edge="1">
          <mxGeometry width="50" height="50" relative="1" as="geometry">
            <mxPoint x="350.00000000000006" y="760" as="sourcePoint" />
            <mxPoint x="350.00000000000006" y="700" as="targetPoint" />
          </mxGeometry>
        </mxCell>
        <mxCell id="oe3DWGOV16O7k_9hDiHt-76" value="место для сборки" style="text;html=1;align=center;verticalAlign=middle;resizable=0;points=[];autosize=1;strokeColor=none;fillColor=none;" parent="1" vertex="1">
          <mxGeometry x="514" y="890" width="120" height="30" as="geometry" />
        </mxCell>
        <mxCell id="oe3DWGOV16O7k_9hDiHt-81" value="принести инструменты для сборки" style="text;html=1;align=center;verticalAlign=middle;resizable=0;points=[];autosize=1;strokeColor=none;fillColor=none;" parent="1" vertex="1">
          <mxGeometry x="10" y="624" width="220" height="30" as="geometry" />
        </mxCell>
        <mxCell id="oe3DWGOV16O7k_9hDiHt-82" value="сборка компьютера" style="rounded=1;whiteSpace=wrap;html=1;" parent="1" vertex="1">
          <mxGeometry x="583" y="650" width="174" height="90" as="geometry" />
        </mxCell>
        <mxCell id="oe3DWGOV16O7k_9hDiHt-83" value="заказчик" style="text;html=1;align=center;verticalAlign=middle;resizable=0;points=[];autosize=1;strokeColor=none;fillColor=none;" parent="1" vertex="1">
          <mxGeometry x="801" y="390" width="80" height="30" as="geometry" />
        </mxCell>
        <mxCell id="oe3DWGOV16O7k_9hDiHt-84" value="" style="endArrow=classic;html=1;rounded=0;jumpStyle=gap;entryX=0.808;entryY=1.018;entryDx=0;entryDy=0;entryPerimeter=0;" parent="1" source="oe3DWGOV16O7k_9hDiHt-83" target="oe3DWGOV16O7k_9hDiHt-38" edge="1">
          <mxGeometry width="50" height="50" relative="1" as="geometry">
            <mxPoint x="717" y="390" as="sourcePoint" />
            <mxPoint x="767" y="340" as="targetPoint" />
          </mxGeometry>
        </mxCell>
        <mxCell id="oe3DWGOV16O7k_9hDiHt-86" value="" style="endArrow=classic;html=1;rounded=0;jumpStyle=gap;exitX=1;exitY=0.5;exitDx=0;exitDy=0;entryX=0;entryY=0.25;entryDx=0;entryDy=0;" parent="1" source="oe3DWGOV16O7k_9hDiHt-61" target="oe3DWGOV16O7k_9hDiHt-82" edge="1">
          <mxGeometry width="50" height="50" relative="1" as="geometry">
            <mxPoint x="420" y="650" as="sourcePoint" />
            <mxPoint x="470" y="600" as="targetPoint" />
          </mxGeometry>
        </mxCell>
        <mxCell id="oe3DWGOV16O7k_9hDiHt-87" value="" style="endArrow=classic;html=1;rounded=0;jumpStyle=gap;exitX=0.529;exitY=1.102;exitDx=0;exitDy=0;exitPerimeter=0;entryX=0.25;entryY=0;entryDx=0;entryDy=0;" parent="1" source="oe3DWGOV16O7k_9hDiHt-68" target="oe3DWGOV16O7k_9hDiHt-61" edge="1">
          <mxGeometry width="50" height="50" relative="1" as="geometry">
            <mxPoint x="440" y="570" as="sourcePoint" />
            <mxPoint x="490" y="520" as="targetPoint" />
          </mxGeometry>
        </mxCell>
        <mxCell id="oe3DWGOV16O7k_9hDiHt-90" value="" style="endArrow=classic;html=1;rounded=0;jumpStyle=gap;exitX=0.529;exitY=1.102;exitDx=0;exitDy=0;exitPerimeter=0;entryX=0.5;entryY=0;entryDx=0;entryDy=0;" parent="1" target="oe3DWGOV16O7k_9hDiHt-61" edge="1">
          <mxGeometry width="50" height="50" relative="1" as="geometry">
            <mxPoint x="531" y="520" as="sourcePoint" />
            <mxPoint x="440" y="607" as="targetPoint" />
          </mxGeometry>
        </mxCell>
        <mxCell id="oe3DWGOV16O7k_9hDiHt-91" value="" style="endArrow=classic;html=1;rounded=0;jumpStyle=gap;exitX=0.539;exitY=1.038;exitDx=0;exitDy=0;exitPerimeter=0;entryX=0.75;entryY=0;entryDx=0;entryDy=0;" parent="1" source="oe3DWGOV16O7k_9hDiHt-72" target="oe3DWGOV16O7k_9hDiHt-61" edge="1">
          <mxGeometry width="50" height="50" relative="1" as="geometry">
            <mxPoint x="640" y="590" as="sourcePoint" />
            <mxPoint x="690" y="540" as="targetPoint" />
          </mxGeometry>
        </mxCell>
        <mxCell id="oe3DWGOV16O7k_9hDiHt-92" value="" style="endArrow=classic;html=1;rounded=0;jumpStyle=gap;exitX=0.529;exitY=1.133;exitDx=0;exitDy=0;exitPerimeter=0;entryX=0.25;entryY=0;entryDx=0;entryDy=0;" parent="1" source="oe3DWGOV16O7k_9hDiHt-68" target="oe3DWGOV16O7k_9hDiHt-82" edge="1">
          <mxGeometry width="50" height="50" relative="1" as="geometry">
            <mxPoint x="550" y="610" as="sourcePoint" />
            <mxPoint x="600" y="560" as="targetPoint" />
          </mxGeometry>
        </mxCell>
        <mxCell id="oe3DWGOV16O7k_9hDiHt-93" value="" style="endArrow=classic;html=1;rounded=0;jumpStyle=gap;exitX=0.494;exitY=1.038;exitDx=0;exitDy=0;exitPerimeter=0;entryX=0.5;entryY=0;entryDx=0;entryDy=0;" parent="1" source="oe3DWGOV16O7k_9hDiHt-70" target="oe3DWGOV16O7k_9hDiHt-82" edge="1">
          <mxGeometry width="50" height="50" relative="1" as="geometry">
            <mxPoint x="530" y="630" as="sourcePoint" />
            <mxPoint x="580" y="580" as="targetPoint" />
          </mxGeometry>
        </mxCell>
        <mxCell id="oe3DWGOV16O7k_9hDiHt-94" value="" style="endArrow=classic;html=1;rounded=0;jumpStyle=gap;exitX=0.494;exitY=1.038;exitDx=0;exitDy=0;exitPerimeter=0;entryX=0.75;entryY=0;entryDx=0;entryDy=0;" parent="1" target="oe3DWGOV16O7k_9hDiHt-82" edge="1">
          <mxGeometry width="50" height="50" relative="1" as="geometry">
            <mxPoint x="670" y="521" as="sourcePoint" />
            <mxPoint x="685" y="654" as="targetPoint" />
          </mxGeometry>
        </mxCell>
        <mxCell id="oe3DWGOV16O7k_9hDiHt-95" value="" style="endArrow=classic;html=1;rounded=0;jumpStyle=gap;entryX=0.75;entryY=1;entryDx=0;entryDy=0;" parent="1" target="oe3DWGOV16O7k_9hDiHt-82" edge="1">
          <mxGeometry width="50" height="50" relative="1" as="geometry">
            <mxPoint x="580" y="890" as="sourcePoint" />
            <mxPoint x="630" y="840" as="targetPoint" />
          </mxGeometry>
        </mxCell>
        <mxCell id="oe3DWGOV16O7k_9hDiHt-96" value="" style="endArrow=classic;html=1;rounded=0;jumpStyle=gap;entryX=0.351;entryY=1.04;entryDx=0;entryDy=0;entryPerimeter=0;" parent="1" target="oe3DWGOV16O7k_9hDiHt-82" edge="1">
          <mxGeometry width="50" height="50" relative="1" as="geometry">
            <mxPoint x="440" y="890" as="sourcePoint" />
            <mxPoint x="490" y="840" as="targetPoint" />
          </mxGeometry>
        </mxCell>
        <mxCell id="oe3DWGOV16O7k_9hDiHt-97" value="" style="endArrow=classic;html=1;rounded=0;jumpStyle=gap;entryX=-0.007;entryY=0.684;entryDx=0;entryDy=0;entryPerimeter=0;" parent="1" target="oe3DWGOV16O7k_9hDiHt-82" edge="1">
          <mxGeometry width="50" height="50" relative="1" as="geometry">
            <mxPoint x="480" y="710" as="sourcePoint" />
            <mxPoint x="540" y="710" as="targetPoint" />
          </mxGeometry>
        </mxCell>
        <mxCell id="oe3DWGOV16O7k_9hDiHt-98" value="дополнительные&amp;nbsp;&lt;br&gt;материалы&lt;br&gt;" style="text;html=1;align=center;verticalAlign=middle;resizable=0;points=[];autosize=1;strokeColor=none;fillColor=none;" parent="1" vertex="1">
          <mxGeometry x="463" y="675" width="120" height="40" as="geometry" />
        </mxCell>
        <mxCell id="oe3DWGOV16O7k_9hDiHt-101" value="Выдача компьютера заказчику" style="rounded=1;whiteSpace=wrap;html=1;" parent="1" vertex="1">
          <mxGeometry x="840" y="700" width="170" height="90" as="geometry" />
        </mxCell>
        <mxCell id="oe3DWGOV16O7k_9hDiHt-102" value="" style="endArrow=classic;html=1;rounded=0;jumpStyle=gap;exitX=1.006;exitY=0.356;exitDx=0;exitDy=0;exitPerimeter=0;entryX=-0.006;entryY=0.189;entryDx=0;entryDy=0;entryPerimeter=0;" parent="1" source="oe3DWGOV16O7k_9hDiHt-82" target="oe3DWGOV16O7k_9hDiHt-101" edge="1">
          <mxGeometry width="50" height="50" relative="1" as="geometry">
            <mxPoint x="770" y="740" as="sourcePoint" />
            <mxPoint x="820" y="690" as="targetPoint" />
          </mxGeometry>
        </mxCell>
        <mxCell id="oe3DWGOV16O7k_9hDiHt-103" value="Заказчик&lt;br&gt;" style="text;html=1;align=center;verticalAlign=middle;resizable=0;points=[];autosize=1;strokeColor=none;fillColor=none;" parent="1" vertex="1">
          <mxGeometry x="750" y="890" width="80" height="30" as="geometry" />
        </mxCell>
        <mxCell id="oe3DWGOV16O7k_9hDiHt-104" value="" style="endArrow=classic;html=1;rounded=0;jumpStyle=gap;entryX=0.25;entryY=1;entryDx=0;entryDy=0;" parent="1" source="oe3DWGOV16O7k_9hDiHt-103" target="oe3DWGOV16O7k_9hDiHt-101" edge="1">
          <mxGeometry width="50" height="50" relative="1" as="geometry">
            <mxPoint x="740" y="870" as="sourcePoint" />
            <mxPoint x="790" y="820" as="targetPoint" />
          </mxGeometry>
        </mxCell>
        <mxCell id="oe3DWGOV16O7k_9hDiHt-105" value="" style="endArrow=classic;html=1;rounded=0;jumpStyle=gap;entryX=0.75;entryY=1;entryDx=0;entryDy=0;exitX=0.525;exitY=-0.033;exitDx=0;exitDy=0;exitPerimeter=0;" parent="1" source="oe3DWGOV16O7k_9hDiHt-74" target="oe3DWGOV16O7k_9hDiHt-101" edge="1">
          <mxGeometry width="50" height="50" relative="1" as="geometry">
            <mxPoint x="710" y="880" as="sourcePoint" />
            <mxPoint x="760" y="830" as="targetPoint" />
          </mxGeometry>
        </mxCell>
        <mxCell id="oe3DWGOV16O7k_9hDiHt-106" value="" style="endArrow=classic;html=1;rounded=0;jumpStyle=gap;exitX=1;exitY=0.25;exitDx=0;exitDy=0;" parent="1" source="oe3DWGOV16O7k_9hDiHt-101" edge="1">
          <mxGeometry width="50" height="50" relative="1" as="geometry">
            <mxPoint x="1040" y="760" as="sourcePoint" />
            <mxPoint x="1090" y="723" as="targetPoint" />
          </mxGeometry>
        </mxCell>
        <mxCell id="oe3DWGOV16O7k_9hDiHt-107" value="довольный заказчик&lt;br&gt;" style="text;html=1;align=center;verticalAlign=middle;resizable=0;points=[];autosize=1;strokeColor=none;fillColor=none;" parent="1" vertex="1">
          <mxGeometry x="1000" y="700" width="140" height="30" as="geometry" />
        </mxCell>
        <mxCell id="oe3DWGOV16O7k_9hDiHt-108" value="" style="endArrow=classic;html=1;rounded=0;jumpStyle=gap;exitX=1;exitY=0.75;exitDx=0;exitDy=0;" parent="1" source="oe3DWGOV16O7k_9hDiHt-101" edge="1">
          <mxGeometry width="50" height="50" relative="1" as="geometry">
            <mxPoint x="1030" y="740" as="sourcePoint" />
            <mxPoint x="1090" y="770" as="targetPoint" />
          </mxGeometry>
        </mxCell>
        <mxCell id="oe3DWGOV16O7k_9hDiHt-109" value="хороший отзыв" style="text;html=1;align=center;verticalAlign=middle;resizable=0;points=[];autosize=1;strokeColor=none;fillColor=none;" parent="1" vertex="1">
          <mxGeometry x="1000" y="740" width="110" height="30" as="geometry" />
        </mxCell>
        <mxCell id="oe3DWGOV16O7k_9hDiHt-110" value="&lt;font style=&quot;font-size: 24px;&quot;&gt;НУЛЕВОЙ УРОВЕНЬ&lt;/font&gt;" style="text;html=1;align=center;verticalAlign=middle;resizable=0;points=[];autosize=1;strokeColor=none;fillColor=none;" parent="1" vertex="1">
          <mxGeometry x="541" y="70" width="260" height="40" as="geometry" />
        </mxCell>
        <mxCell id="oe3DWGOV16O7k_9hDiHt-111" value="&lt;font style=&quot;font-size: 24px;&quot;&gt;ПЕРВЫЙ УРОВЕНЬ&lt;/font&gt;" style="text;html=1;align=center;verticalAlign=middle;resizable=0;points=[];autosize=1;strokeColor=none;fillColor=none;" parent="1" vertex="1">
          <mxGeometry x="556" y="440" width="250" height="40" as="geometry" />
        </mxCell>
        <mxCell id="oe3DWGOV16O7k_9hDiHt-112" value="&lt;font style=&quot;font-size: 24px;&quot;&gt;ВТОРОЙ УРОВЕНЬ&lt;/font&gt;" style="text;html=1;align=center;verticalAlign=middle;resizable=0;points=[];autosize=1;strokeColor=none;fillColor=none;" parent="1" vertex="1">
          <mxGeometry x="551" y="950" width="250" height="40" as="geometry" />
        </mxCell>
        <mxCell id="oe3DWGOV16O7k_9hDiHt-113" value="&lt;span style=&quot;font-size: 12px;&quot;&gt;подготовка места для сборки&amp;nbsp;&lt;/span&gt;" style="rounded=1;whiteSpace=wrap;html=1;fontSize=24;" parent="1" vertex="1">
          <mxGeometry x="285" y="1080" width="153" height="90" as="geometry" />
        </mxCell>
        <mxCell id="oe3DWGOV16O7k_9hDiHt-114" value="&lt;span style=&quot;font-size: 12px;&quot;&gt;закупка необходимых деталей&amp;nbsp;&lt;/span&gt;" style="rounded=1;whiteSpace=wrap;html=1;fontSize=24;" parent="1" vertex="1">
          <mxGeometry x="505.5" y="1130" width="153" height="90" as="geometry" />
        </mxCell>
        <mxCell id="oe3DWGOV16O7k_9hDiHt-115" value="&lt;span style=&quot;font-size: 12px;&quot;&gt;начало сборки&lt;/span&gt;" style="rounded=1;whiteSpace=wrap;html=1;fontSize=24;" parent="1" vertex="1">
          <mxGeometry x="738" y="1130" width="153" height="90" as="geometry" />
        </mxCell>
        <mxCell id="oe3DWGOV16O7k_9hDiHt-116" value="принести инструменты для сборки" style="text;html=1;align=center;verticalAlign=middle;resizable=0;points=[];autosize=1;strokeColor=none;fillColor=none;" parent="1" vertex="1">
          <mxGeometry x="60" y="1060" width="220" height="30" as="geometry" />
        </mxCell>
        <mxCell id="oe3DWGOV16O7k_9hDiHt-117" value="Сборщик&amp;nbsp;" style="text;html=1;align=center;verticalAlign=middle;resizable=0;points=[];autosize=1;strokeColor=none;fillColor=none;" parent="1" vertex="1">
          <mxGeometry x="405" y="1280" width="80" height="30" as="geometry" />
        </mxCell>
        <mxCell id="oe3DWGOV16O7k_9hDiHt-118" value="организовать место для сборки" style="text;html=1;align=center;verticalAlign=middle;resizable=0;points=[];autosize=1;strokeColor=none;fillColor=none;fontSize=12;" parent="1" vertex="1">
          <mxGeometry x="65" y="1120" width="200" height="30" as="geometry" />
        </mxCell>
        <mxCell id="oe3DWGOV16O7k_9hDiHt-119" value="" style="endArrow=classic;html=1;rounded=0;fontSize=12;jumpStyle=gap;" parent="1" edge="1">
          <mxGeometry width="50" height="50" relative="1" as="geometry">
            <mxPoint x="75" y="1100" as="sourcePoint" />
            <mxPoint x="285" y="1100" as="targetPoint" />
          </mxGeometry>
        </mxCell>
        <mxCell id="oe3DWGOV16O7k_9hDiHt-120" value="" style="endArrow=classic;html=1;rounded=0;fontSize=12;jumpStyle=gap;" parent="1" edge="1">
          <mxGeometry width="50" height="50" relative="1" as="geometry">
            <mxPoint x="70" y="1154.38" as="sourcePoint" />
            <mxPoint x="280" y="1154.38" as="targetPoint" />
          </mxGeometry>
        </mxCell>
        <mxCell id="oe3DWGOV16O7k_9hDiHt-121" value="" style="endArrow=classic;html=1;rounded=0;fontSize=12;jumpStyle=gap;exitX=0.469;exitY=-0.05;exitDx=0;exitDy=0;exitPerimeter=0;entryX=0.25;entryY=1;entryDx=0;entryDy=0;" parent="1" source="oe3DWGOV16O7k_9hDiHt-117" target="oe3DWGOV16O7k_9hDiHt-113" edge="1">
          <mxGeometry width="50" height="50" relative="1" as="geometry">
            <mxPoint x="438" y="1370" as="sourcePoint" />
            <mxPoint x="488" y="1320" as="targetPoint" />
          </mxGeometry>
        </mxCell>
        <mxCell id="oe3DWGOV16O7k_9hDiHt-122" value="" style="endArrow=classic;html=1;rounded=0;fontSize=12;jumpStyle=gap;entryX=0.25;entryY=1;entryDx=0;entryDy=0;" parent="1" target="oe3DWGOV16O7k_9hDiHt-114" edge="1">
          <mxGeometry width="50" height="50" relative="1" as="geometry">
            <mxPoint x="448" y="1280" as="sourcePoint" />
            <mxPoint x="498" y="1230" as="targetPoint" />
          </mxGeometry>
        </mxCell>
        <mxCell id="oe3DWGOV16O7k_9hDiHt-123" value="" style="endArrow=classic;html=1;rounded=0;fontSize=12;jumpStyle=gap;entryX=0.5;entryY=1;entryDx=0;entryDy=0;" parent="1" target="oe3DWGOV16O7k_9hDiHt-115" edge="1">
          <mxGeometry width="50" height="50" relative="1" as="geometry">
            <mxPoint x="445.5" y="1278.75" as="sourcePoint" />
            <mxPoint x="655.5" y="1278.75" as="targetPoint" />
          </mxGeometry>
        </mxCell>
        <mxCell id="oe3DWGOV16O7k_9hDiHt-126" value="" style="endArrow=classic;html=1;rounded=0;fontSize=12;jumpStyle=gap;" parent="1" edge="1">
          <mxGeometry width="50" height="50" relative="1" as="geometry">
            <mxPoint x="590" y="1300" as="sourcePoint" />
            <mxPoint x="592" y="1220" as="targetPoint" />
          </mxGeometry>
        </mxCell>
        <mxCell id="oe3DWGOV16O7k_9hDiHt-127" value="магазин &lt;br&gt;комплектуюших" style="text;html=1;align=center;verticalAlign=middle;resizable=0;points=[];autosize=1;strokeColor=none;fillColor=none;fontSize=12;" parent="1" vertex="1">
          <mxGeometry x="541" y="1300" width="120" height="40" as="geometry" />
        </mxCell>
        <mxCell id="oe3DWGOV16O7k_9hDiHt-128" value="" style="endArrow=classic;html=1;rounded=0;fontSize=12;jumpStyle=gap;exitX=1;exitY=0.25;exitDx=0;exitDy=0;entryX=0;entryY=0.25;entryDx=0;entryDy=0;" parent="1" source="oe3DWGOV16O7k_9hDiHt-113" target="oe3DWGOV16O7k_9hDiHt-114" edge="1">
          <mxGeometry width="50" height="50" relative="1" as="geometry">
            <mxPoint x="460" y="1130" as="sourcePoint" />
            <mxPoint x="510" y="1080" as="targetPoint" />
          </mxGeometry>
        </mxCell>
        <mxCell id="oe3DWGOV16O7k_9hDiHt-129" value="" style="endArrow=classic;html=1;rounded=0;fontSize=12;jumpStyle=gap;entryX=0;entryY=0.25;entryDx=0;entryDy=0;" parent="1" target="oe3DWGOV16O7k_9hDiHt-115" edge="1">
          <mxGeometry width="50" height="50" relative="1" as="geometry">
            <mxPoint x="660" y="1160" as="sourcePoint" />
            <mxPoint x="710" y="1110" as="targetPoint" />
          </mxGeometry>
        </mxCell>
        <mxCell id="oe3DWGOV16O7k_9hDiHt-130" value="правила подбора&lt;br&gt;&amp;nbsp;комплектующих&lt;br&gt;" style="text;html=1;align=center;verticalAlign=middle;resizable=0;points=[];autosize=1;strokeColor=none;fillColor=none;fontSize=12;" parent="1" vertex="1">
          <mxGeometry x="520" y="1020" width="120" height="40" as="geometry" />
        </mxCell>
        <mxCell id="oe3DWGOV16O7k_9hDiHt-131" value="" style="endArrow=classic;html=1;rounded=0;fontSize=12;jumpStyle=gap;exitX=0.34;exitY=1.056;exitDx=0;exitDy=0;exitPerimeter=0;" parent="1" source="oe3DWGOV16O7k_9hDiHt-130" edge="1">
          <mxGeometry width="50" height="50" relative="1" as="geometry">
            <mxPoint x="560" y="1070" as="sourcePoint" />
            <mxPoint x="560" y="1130" as="targetPoint" />
          </mxGeometry>
        </mxCell>
        <mxCell id="oe3DWGOV16O7k_9hDiHt-132" value="ТБ" style="text;html=1;align=center;verticalAlign=middle;resizable=0;points=[];autosize=1;strokeColor=none;fillColor=none;fontSize=12;" parent="1" vertex="1">
          <mxGeometry x="320" y="990" width="40" height="30" as="geometry" />
        </mxCell>
        <mxCell id="oe3DWGOV16O7k_9hDiHt-133" value="" style="endArrow=classic;html=1;rounded=0;fontSize=12;jumpStyle=gap;exitX=0.519;exitY=1.075;exitDx=0;exitDy=0;exitPerimeter=0;entryX=0.356;entryY=-0.003;entryDx=0;entryDy=0;entryPerimeter=0;" parent="1" source="oe3DWGOV16O7k_9hDiHt-132" target="oe3DWGOV16O7k_9hDiHt-113" edge="1">
          <mxGeometry width="50" height="50" relative="1" as="geometry">
            <mxPoint x="350" y="1060" as="sourcePoint" />
            <mxPoint x="400" y="1010" as="targetPoint" />
          </mxGeometry>
        </mxCell>
        <mxCell id="oe3DWGOV16O7k_9hDiHt-135" value="" style="endArrow=classic;html=1;rounded=0;fontSize=12;jumpStyle=gap;exitX=0.998;exitY=0.372;exitDx=0;exitDy=0;exitPerimeter=0;" parent="1" source="oe3DWGOV16O7k_9hDiHt-115" edge="1">
          <mxGeometry width="50" height="50" relative="1" as="geometry">
            <mxPoint x="920" y="1170" as="sourcePoint" />
            <mxPoint x="990" y="1160" as="targetPoint" />
          </mxGeometry>
        </mxCell>
        <mxCell id="oe3DWGOV16O7k_9hDiHt-136" value="сборка ПК" style="text;html=1;align=center;verticalAlign=middle;resizable=0;points=[];autosize=1;strokeColor=none;fillColor=none;fontSize=12;" parent="1" vertex="1">
          <mxGeometry x="891" y="1130" width="80" height="30" as="geometry" />
        </mxCell>
        <mxCell id="oe3DWGOV16O7k_9hDiHt-137" value="Вставить основные комплектующие в материнскую плату" style="rounded=1;whiteSpace=wrap;html=1;fontSize=12;" parent="1" vertex="1">
          <mxGeometry x="290" y="1430" width="148" height="90" as="geometry" />
        </mxCell>
        <mxCell id="oe3DWGOV16O7k_9hDiHt-138" value="Вставить дополнительные комплектующие в материнскую плату" style="rounded=1;whiteSpace=wrap;html=1;fontSize=12;" parent="1" vertex="1">
          <mxGeometry x="510.5" y="1450" width="148" height="90" as="geometry" />
        </mxCell>
        <mxCell id="oe3DWGOV16O7k_9hDiHt-139" value="Вставить материнскую плату в корпус" style="rounded=1;whiteSpace=wrap;html=1;fontSize=12;" parent="1" vertex="1">
          <mxGeometry x="749" y="1470" width="148" height="90" as="geometry" />
        </mxCell>
        <mxCell id="oe3DWGOV16O7k_9hDiHt-140" value="Сборщик&amp;nbsp;" style="text;html=1;align=center;verticalAlign=middle;resizable=0;points=[];autosize=1;strokeColor=none;fillColor=none;" parent="1" vertex="1">
          <mxGeometry x="540" y="1660" width="80" height="30" as="geometry" />
        </mxCell>
        <mxCell id="oe3DWGOV16O7k_9hDiHt-141" value="" style="endArrow=classic;html=1;rounded=0;fontSize=12;jumpStyle=gap;exitX=0.431;exitY=-0.008;exitDx=0;exitDy=0;exitPerimeter=0;entryX=0.5;entryY=1;entryDx=0;entryDy=0;" parent="1" source="oe3DWGOV16O7k_9hDiHt-140" target="oe3DWGOV16O7k_9hDiHt-137" edge="1">
          <mxGeometry width="50" height="50" relative="1" as="geometry">
            <mxPoint x="582" y="1660" as="sourcePoint" />
            <mxPoint x="632" y="1610" as="targetPoint" />
          </mxGeometry>
        </mxCell>
        <mxCell id="oe3DWGOV16O7k_9hDiHt-142" value="" style="endArrow=classic;html=1;rounded=0;fontSize=12;jumpStyle=gap;exitX=0.431;exitY=0.033;exitDx=0;exitDy=0;exitPerimeter=0;entryX=0.5;entryY=1;entryDx=0;entryDy=0;" parent="1" source="oe3DWGOV16O7k_9hDiHt-140" target="oe3DWGOV16O7k_9hDiHt-138" edge="1">
          <mxGeometry width="50" height="50" relative="1" as="geometry">
            <mxPoint x="637" y="1680" as="sourcePoint" />
            <mxPoint x="427" y="1540" as="targetPoint" />
          </mxGeometry>
        </mxCell>
        <mxCell id="oe3DWGOV16O7k_9hDiHt-143" value="" style="endArrow=classic;html=1;rounded=0;fontSize=12;jumpStyle=gap;exitX=0.556;exitY=-0.008;exitDx=0;exitDy=0;exitPerimeter=0;entryX=0.5;entryY=1;entryDx=0;entryDy=0;" parent="1" source="oe3DWGOV16O7k_9hDiHt-140" target="oe3DWGOV16O7k_9hDiHt-139" edge="1">
          <mxGeometry width="50" height="50" relative="1" as="geometry">
            <mxPoint x="606.5" y="1671" as="sourcePoint" />
            <mxPoint x="617.5" y="1550" as="targetPoint" />
          </mxGeometry>
        </mxCell>
        <mxCell id="oe3DWGOV16O7k_9hDiHt-144" value="" style="endArrow=classic;html=1;rounded=0;fontSize=12;jumpStyle=gap;entryX=0;entryY=0.25;entryDx=0;entryDy=0;" parent="1" target="oe3DWGOV16O7k_9hDiHt-137" edge="1">
          <mxGeometry width="50" height="50" relative="1" as="geometry">
            <mxPoint x="200" y="1453" as="sourcePoint" />
            <mxPoint x="250" y="1450" as="targetPoint" />
          </mxGeometry>
        </mxCell>
        <mxCell id="oe3DWGOV16O7k_9hDiHt-145" value="Процессор" style="text;html=1;align=center;verticalAlign=middle;resizable=0;points=[];autosize=1;strokeColor=none;fillColor=none;fontSize=12;" parent="1" vertex="1">
          <mxGeometry x="200" y="1420" width="80" height="30" as="geometry" />
        </mxCell>
        <mxCell id="oe3DWGOV16O7k_9hDiHt-146" value="" style="endArrow=classic;html=1;rounded=0;fontSize=12;jumpStyle=gap;entryX=0;entryY=0.75;entryDx=0;entryDy=0;" parent="1" target="oe3DWGOV16O7k_9hDiHt-137" edge="1">
          <mxGeometry width="50" height="50" relative="1" as="geometry">
            <mxPoint x="200" y="1500" as="sourcePoint" />
            <mxPoint x="256" y="1490" as="targetPoint" />
          </mxGeometry>
        </mxCell>
        <mxCell id="oe3DWGOV16O7k_9hDiHt-147" value="материнская плата" style="text;html=1;align=center;verticalAlign=middle;resizable=0;points=[];autosize=1;strokeColor=none;fillColor=none;fontSize=12;" parent="1" vertex="1">
          <mxGeometry x="160" y="1470" width="130" height="30" as="geometry" />
        </mxCell>
        <mxCell id="oe3DWGOV16O7k_9hDiHt-149" value="" style="endArrow=classic;html=1;rounded=0;fontSize=12;jumpStyle=gap;exitX=1;exitY=0.25;exitDx=0;exitDy=0;entryX=0;entryY=0.25;entryDx=0;entryDy=0;" parent="1" source="oe3DWGOV16O7k_9hDiHt-137" target="oe3DWGOV16O7k_9hDiHt-138" edge="1">
          <mxGeometry width="50" height="50" relative="1" as="geometry">
            <mxPoint x="470" y="1460" as="sourcePoint" />
            <mxPoint x="520" y="1410" as="targetPoint" />
          </mxGeometry>
        </mxCell>
        <mxCell id="oe3DWGOV16O7k_9hDiHt-150" value="" style="endArrow=classic;html=1;rounded=0;fontSize=12;jumpStyle=gap;exitX=1;exitY=0.25;exitDx=0;exitDy=0;entryX=0;entryY=0.25;entryDx=0;entryDy=0;" parent="1" target="oe3DWGOV16O7k_9hDiHt-139" edge="1">
          <mxGeometry width="50" height="50" relative="1" as="geometry">
            <mxPoint x="658.5" y="1470" as="sourcePoint" />
            <mxPoint x="732" y="1490" as="targetPoint" />
          </mxGeometry>
        </mxCell>
        <mxCell id="oe3DWGOV16O7k_9hDiHt-151" value="ТБ" style="text;html=1;align=center;verticalAlign=middle;resizable=0;points=[];autosize=1;strokeColor=none;fillColor=none;fontSize=12;" parent="1" vertex="1">
          <mxGeometry x="560" y="1365" width="40" height="30" as="geometry" />
        </mxCell>
        <mxCell id="oe3DWGOV16O7k_9hDiHt-152" value="Правила сборки" style="text;html=1;align=center;verticalAlign=middle;resizable=0;points=[];autosize=1;strokeColor=none;fillColor=none;fontSize=12;" parent="1" vertex="1">
          <mxGeometry x="612" y="1365" width="120" height="30" as="geometry" />
        </mxCell>
        <mxCell id="oe3DWGOV16O7k_9hDiHt-153" value="" style="endArrow=classic;html=1;rounded=0;fontSize=12;jumpStyle=gap;entryX=0.5;entryY=0;entryDx=0;entryDy=0;exitX=0.362;exitY=0.992;exitDx=0;exitDy=0;exitPerimeter=0;" parent="1" source="oe3DWGOV16O7k_9hDiHt-151" target="oe3DWGOV16O7k_9hDiHt-137" edge="1">
          <mxGeometry width="50" height="50" relative="1" as="geometry">
            <mxPoint x="480" y="1420" as="sourcePoint" />
            <mxPoint x="530" y="1370" as="targetPoint" />
          </mxGeometry>
        </mxCell>
        <mxCell id="oe3DWGOV16O7k_9hDiHt-154" value="" style="endArrow=classic;html=1;rounded=0;fontSize=12;jumpStyle=gap;exitX=0.55;exitY=1.075;exitDx=0;exitDy=0;exitPerimeter=0;entryX=0.5;entryY=0;entryDx=0;entryDy=0;" parent="1" source="oe3DWGOV16O7k_9hDiHt-151" target="oe3DWGOV16O7k_9hDiHt-138" edge="1">
          <mxGeometry width="50" height="50" relative="1" as="geometry">
            <mxPoint x="590" y="1450" as="sourcePoint" />
            <mxPoint x="640" y="1400" as="targetPoint" />
          </mxGeometry>
        </mxCell>
        <mxCell id="oe3DWGOV16O7k_9hDiHt-155" value="" style="endArrow=classic;html=1;rounded=0;fontSize=12;jumpStyle=gap;exitX=0.8;exitY=1.117;exitDx=0;exitDy=0;exitPerimeter=0;entryX=0.25;entryY=0;entryDx=0;entryDy=0;" parent="1" source="oe3DWGOV16O7k_9hDiHt-151" target="oe3DWGOV16O7k_9hDiHt-139" edge="1">
          <mxGeometry width="50" height="50" relative="1" as="geometry">
            <mxPoint x="710" y="1430" as="sourcePoint" />
            <mxPoint x="760" y="1380" as="targetPoint" />
          </mxGeometry>
        </mxCell>
        <mxCell id="oe3DWGOV16O7k_9hDiHt-156" value="" style="endArrow=classic;html=1;rounded=0;fontSize=12;jumpStyle=gap;exitX=0.552;exitY=1.033;exitDx=0;exitDy=0;exitPerimeter=0;entryX=0.5;entryY=0;entryDx=0;entryDy=0;" parent="1" source="oe3DWGOV16O7k_9hDiHt-152" target="oe3DWGOV16O7k_9hDiHt-139" edge="1">
          <mxGeometry width="50" height="50" relative="1" as="geometry">
            <mxPoint x="770" y="1400" as="sourcePoint" />
            <mxPoint x="820" y="1350" as="targetPoint" />
          </mxGeometry>
        </mxCell>
        <mxCell id="oe3DWGOV16O7k_9hDiHt-157" value="" style="endArrow=classic;html=1;rounded=0;fontSize=12;jumpStyle=gap;entryX=0.75;entryY=0;entryDx=0;entryDy=0;" parent="1" target="oe3DWGOV16O7k_9hDiHt-138" edge="1">
          <mxGeometry width="50" height="50" relative="1" as="geometry">
            <mxPoint x="680" y="1400" as="sourcePoint" />
            <mxPoint x="780" y="1370" as="targetPoint" />
          </mxGeometry>
        </mxCell>
        <mxCell id="oe3DWGOV16O7k_9hDiHt-158" value="" style="endArrow=classic;html=1;rounded=0;fontSize=12;jumpStyle=gap;entryX=1;entryY=0;entryDx=0;entryDy=0;exitX=0.438;exitY=1.117;exitDx=0;exitDy=0;exitPerimeter=0;" parent="1" source="oe3DWGOV16O7k_9hDiHt-152" target="oe3DWGOV16O7k_9hDiHt-137" edge="1">
          <mxGeometry width="50" height="50" relative="1" as="geometry">
            <mxPoint x="690" y="1410" as="sourcePoint" />
            <mxPoint x="632" y="1460" as="targetPoint" />
          </mxGeometry>
        </mxCell>
        <mxCell id="oe3DWGOV16O7k_9hDiHt-159" value="" style="endArrow=classic;html=1;rounded=0;fontSize=12;jumpStyle=gap;" parent="1" edge="1">
          <mxGeometry width="50" height="50" relative="1" as="geometry">
            <mxPoint x="450" y="1500" as="sourcePoint" />
            <mxPoint x="510" y="1500" as="targetPoint" />
          </mxGeometry>
        </mxCell>
        <mxCell id="oe3DWGOV16O7k_9hDiHt-160" value="Видеокарта" style="text;html=1;align=center;verticalAlign=middle;resizable=0;points=[];autosize=1;strokeColor=none;fillColor=none;fontSize=12;" parent="1" vertex="1">
          <mxGeometry x="430" y="1470" width="90" height="30" as="geometry" />
        </mxCell>
        <mxCell id="oe3DWGOV16O7k_9hDiHt-161" value="" style="endArrow=classic;html=1;rounded=0;fontSize=12;jumpStyle=gap;exitX=1;exitY=0.25;exitDx=0;exitDy=0;" parent="1" source="oe3DWGOV16O7k_9hDiHt-139" edge="1">
          <mxGeometry width="50" height="50" relative="1" as="geometry">
            <mxPoint x="940" y="1530" as="sourcePoint" />
            <mxPoint x="990" y="1490" as="targetPoint" />
          </mxGeometry>
        </mxCell>
        <mxCell id="oe3DWGOV16O7k_9hDiHt-162" value="готовый компьютер" style="text;html=1;align=center;verticalAlign=middle;resizable=0;points=[];autosize=1;strokeColor=none;fillColor=none;fontSize=12;" parent="1" vertex="1">
          <mxGeometry x="891" y="1460" width="140" height="30" as="geometry" />
        </mxCell>
        <mxCell id="oe3DWGOV16O7k_9hDiHt-163" value="" style="endArrow=classic;html=1;rounded=0;fontSize=12;jumpStyle=gap;exitX=1.02;exitY=0.667;exitDx=0;exitDy=0;exitPerimeter=0;" parent="1" source="oe3DWGOV16O7k_9hDiHt-139" edge="1">
          <mxGeometry width="50" height="50" relative="1" as="geometry">
            <mxPoint x="930" y="1560" as="sourcePoint" />
            <mxPoint x="990" y="1530" as="targetPoint" />
          </mxGeometry>
        </mxCell>
        <mxCell id="oe3DWGOV16O7k_9hDiHt-164" value="коробки от &lt;br&gt;комплектующих" style="text;html=1;align=center;verticalAlign=middle;resizable=0;points=[];autosize=1;strokeColor=none;fillColor=none;fontSize=12;" parent="1" vertex="1">
          <mxGeometry x="890" y="1530" width="120" height="40" as="geometry" />
        </mxCell>
        <mxCell id="oe3DWGOV16O7k_9hDiHt-165" value="Позвонить заказчику" style="rounded=1;whiteSpace=wrap;html=1;fontSize=12;" parent="1" vertex="1">
          <mxGeometry x="290" y="1800" width="120" height="60" as="geometry" />
        </mxCell>
        <mxCell id="oe3DWGOV16O7k_9hDiHt-166" value="Встреча с заказчиком" style="rounded=1;whiteSpace=wrap;html=1;fontSize=12;" parent="1" vertex="1">
          <mxGeometry x="507" y="1830" width="120" height="60" as="geometry" />
        </mxCell>
        <mxCell id="oe3DWGOV16O7k_9hDiHt-167" value="Передача ПК заказчику" style="rounded=1;whiteSpace=wrap;html=1;fontSize=12;" parent="1" vertex="1">
          <mxGeometry x="720" y="1870" width="120" height="60" as="geometry" />
        </mxCell>
        <mxCell id="oe3DWGOV16O7k_9hDiHt-168" value="" style="endArrow=classic;html=1;rounded=0;fontSize=12;jumpStyle=gap;exitX=1;exitY=0.25;exitDx=0;exitDy=0;entryX=0;entryY=0.25;entryDx=0;entryDy=0;" parent="1" source="oe3DWGOV16O7k_9hDiHt-165" target="oe3DWGOV16O7k_9hDiHt-166" edge="1">
          <mxGeometry width="50" height="50" relative="1" as="geometry">
            <mxPoint x="430" y="1850" as="sourcePoint" />
            <mxPoint x="480" y="1800" as="targetPoint" />
          </mxGeometry>
        </mxCell>
        <mxCell id="oe3DWGOV16O7k_9hDiHt-171" value="" style="endArrow=classic;html=1;rounded=0;fontSize=12;jumpStyle=gap;exitX=1;exitY=0.25;exitDx=0;exitDy=0;entryX=0;entryY=0.25;entryDx=0;entryDy=0;" parent="1" source="oe3DWGOV16O7k_9hDiHt-166" target="oe3DWGOV16O7k_9hDiHt-167" edge="1">
          <mxGeometry width="50" height="50" relative="1" as="geometry">
            <mxPoint x="670" y="1880" as="sourcePoint" />
            <mxPoint x="720" y="1830" as="targetPoint" />
          </mxGeometry>
        </mxCell>
        <mxCell id="oe3DWGOV16O7k_9hDiHt-172" value="" style="endArrow=classic;html=1;rounded=0;fontSize=12;jumpStyle=gap;" parent="1" edge="1">
          <mxGeometry width="50" height="50" relative="1" as="geometry">
            <mxPoint x="220" y="1810" as="sourcePoint" />
            <mxPoint x="290" y="1810" as="targetPoint" />
          </mxGeometry>
        </mxCell>
        <mxCell id="oe3DWGOV16O7k_9hDiHt-173" value="телефон &lt;br&gt;заказчика" style="text;html=1;align=center;verticalAlign=middle;resizable=0;points=[];autosize=1;strokeColor=none;fillColor=none;fontSize=12;" parent="1" vertex="1">
          <mxGeometry x="200" y="1770" width="80" height="40" as="geometry" />
        </mxCell>
        <mxCell id="oe3DWGOV16O7k_9hDiHt-174" value="Сборщик&amp;nbsp;" style="text;html=1;align=center;verticalAlign=middle;resizable=0;points=[];autosize=1;strokeColor=none;fillColor=none;" parent="1" vertex="1">
          <mxGeometry x="404" y="2000" width="80" height="30" as="geometry" />
        </mxCell>
        <mxCell id="oe3DWGOV16O7k_9hDiHt-175" value="Заказчик" style="text;html=1;align=center;verticalAlign=middle;resizable=0;points=[];autosize=1;strokeColor=none;fillColor=none;" parent="1" vertex="1">
          <mxGeometry x="577" y="2010" width="80" height="30" as="geometry" />
        </mxCell>
        <mxCell id="oe3DWGOV16O7k_9hDiHt-176" value="" style="endArrow=classic;html=1;rounded=0;fontSize=12;jumpStyle=gap;entryX=0.5;entryY=1;entryDx=0;entryDy=0;exitX=0.492;exitY=-0.068;exitDx=0;exitDy=0;exitPerimeter=0;" parent="1" source="oe3DWGOV16O7k_9hDiHt-174" target="oe3DWGOV16O7k_9hDiHt-165" edge="1">
          <mxGeometry width="50" height="50" relative="1" as="geometry">
            <mxPoint x="440" y="2010" as="sourcePoint" />
            <mxPoint x="490" y="1960" as="targetPoint" />
          </mxGeometry>
        </mxCell>
        <mxCell id="oe3DWGOV16O7k_9hDiHt-177" value="" style="endArrow=classic;html=1;rounded=0;fontSize=12;jumpStyle=gap;entryX=0.5;entryY=1;entryDx=0;entryDy=0;" parent="1" source="oe3DWGOV16O7k_9hDiHt-174" target="oe3DWGOV16O7k_9hDiHt-166" edge="1">
          <mxGeometry width="50" height="50" relative="1" as="geometry">
            <mxPoint x="450" y="2020" as="sourcePoint" />
            <mxPoint x="360" y="1870" as="targetPoint" />
          </mxGeometry>
        </mxCell>
        <mxCell id="oe3DWGOV16O7k_9hDiHt-178" value="" style="endArrow=classic;html=1;rounded=0;fontSize=12;jumpStyle=gap;entryX=0;entryY=1;entryDx=0;entryDy=0;" parent="1" target="oe3DWGOV16O7k_9hDiHt-167" edge="1">
          <mxGeometry width="50" height="50" relative="1" as="geometry">
            <mxPoint x="460" y="2000" as="sourcePoint" />
            <mxPoint x="370" y="1870" as="targetPoint" />
          </mxGeometry>
        </mxCell>
        <mxCell id="oe3DWGOV16O7k_9hDiHt-179" value="" style="endArrow=classic;html=1;rounded=0;fontSize=12;jumpStyle=gap;entryX=0.25;entryY=1;entryDx=0;entryDy=0;exitX=0.606;exitY=-0.051;exitDx=0;exitDy=0;exitPerimeter=0;" parent="1" source="oe3DWGOV16O7k_9hDiHt-175" target="oe3DWGOV16O7k_9hDiHt-167" edge="1">
          <mxGeometry width="50" height="50" relative="1" as="geometry">
            <mxPoint x="620" y="2020" as="sourcePoint" />
            <mxPoint x="670" y="1970" as="targetPoint" />
          </mxGeometry>
        </mxCell>
        <mxCell id="oe3DWGOV16O7k_9hDiHt-180" value="" style="endArrow=classic;html=1;rounded=0;fontSize=12;jumpStyle=gap;entryX=0.5;entryY=1;entryDx=0;entryDy=0;exitX=0.632;exitY=0.019;exitDx=0;exitDy=0;exitPerimeter=0;" parent="1" source="oe3DWGOV16O7k_9hDiHt-175" target="oe3DWGOV16O7k_9hDiHt-166" edge="1">
          <mxGeometry width="50" height="50" relative="1" as="geometry">
            <mxPoint x="635" y="2018" as="sourcePoint" />
            <mxPoint x="760" y="1940" as="targetPoint" />
          </mxGeometry>
        </mxCell>
        <mxCell id="oe3DWGOV16O7k_9hDiHt-181" value="" style="endArrow=classic;html=1;rounded=0;fontSize=12;jumpStyle=gap;entryX=0.75;entryY=1;entryDx=0;entryDy=0;" parent="1" target="oe3DWGOV16O7k_9hDiHt-165" edge="1">
          <mxGeometry width="50" height="50" relative="1" as="geometry">
            <mxPoint x="620" y="2010" as="sourcePoint" />
            <mxPoint x="577" y="1900" as="targetPoint" />
          </mxGeometry>
        </mxCell>
        <mxCell id="oe3DWGOV16O7k_9hDiHt-182" value="Этикет&lt;br&gt;" style="text;html=1;align=center;verticalAlign=middle;resizable=0;points=[];autosize=1;strokeColor=none;fillColor=none;fontSize=12;" parent="1" vertex="1">
          <mxGeometry x="505.5" y="1740" width="60" height="30" as="geometry" />
        </mxCell>
        <mxCell id="oe3DWGOV16O7k_9hDiHt-183" value="" style="endArrow=classic;html=1;rounded=0;fontSize=12;jumpStyle=gap;exitX=0.508;exitY=1.019;exitDx=0;exitDy=0;exitPerimeter=0;entryX=0.5;entryY=0;entryDx=0;entryDy=0;" parent="1" source="oe3DWGOV16O7k_9hDiHt-182" target="oe3DWGOV16O7k_9hDiHt-166" edge="1">
          <mxGeometry width="50" height="50" relative="1" as="geometry">
            <mxPoint x="560" y="1810" as="sourcePoint" />
            <mxPoint x="610" y="1760" as="targetPoint" />
          </mxGeometry>
        </mxCell>
        <mxCell id="oe3DWGOV16O7k_9hDiHt-184" value="" style="endArrow=classic;html=1;rounded=0;fontSize=12;jumpStyle=gap;entryX=0.414;entryY=-0.008;entryDx=0;entryDy=0;entryPerimeter=0;" parent="1" source="oe3DWGOV16O7k_9hDiHt-182" target="oe3DWGOV16O7k_9hDiHt-167" edge="1">
          <mxGeometry width="50" height="50" relative="1" as="geometry">
            <mxPoint x="648" y="2031" as="sourcePoint" />
            <mxPoint x="587" y="1910" as="targetPoint" />
          </mxGeometry>
        </mxCell>
        <mxCell id="oe3DWGOV16O7k_9hDiHt-185" value="" style="endArrow=classic;html=1;rounded=0;fontSize=12;jumpStyle=gap;entryX=0.629;entryY=-0.052;entryDx=0;entryDy=0;entryPerimeter=0;exitX=0.14;exitY=1.089;exitDx=0;exitDy=0;exitPerimeter=0;" parent="1" source="oe3DWGOV16O7k_9hDiHt-182" target="oe3DWGOV16O7k_9hDiHt-165" edge="1">
          <mxGeometry width="50" height="50" relative="1" as="geometry">
            <mxPoint x="576" y="1780" as="sourcePoint" />
            <mxPoint x="780" y="1880" as="targetPoint" />
          </mxGeometry>
        </mxCell>
      </root>
    </mxGraphModel>
  </diagram>
  <diagram id="tInAA_kpKcrhExBg5-Tp" name="Страница 2">
    <mxGraphModel dx="1285" dy="647" grid="1" gridSize="10" guides="1" tooltips="1" connect="1" arrows="1" fold="1" page="1" pageScale="1" pageWidth="1654" pageHeight="2336" math="0" shadow="0">
      <root>
        <mxCell id="0" />
        <mxCell id="1" parent="0" />
        <mxCell id="ZhQBjzfBdR_MVyv0Tk6g-1" value="БД" style="shape=process;whiteSpace=wrap;html=1;backgroundOutline=1;fontSize=12;" parent="1" vertex="1">
          <mxGeometry x="260" y="90" width="120" height="60" as="geometry" />
        </mxCell>
        <mxCell id="ZhQBjzfBdR_MVyv0Tk6g-2" value="Компания сборки" style="rounded=1;whiteSpace=wrap;html=1;fontSize=12;" parent="1" vertex="1">
          <mxGeometry x="240" y="220" width="120" height="60" as="geometry" />
        </mxCell>
        <mxCell id="ZhQBjzfBdR_MVyv0Tk6g-3" value="" style="endArrow=classic;startArrow=classic;html=1;rounded=0;fontSize=12;jumpStyle=gap;exitX=1;exitY=0;exitDx=0;exitDy=0;entryX=0.5;entryY=1;entryDx=0;entryDy=0;" parent="1" source="ZhQBjzfBdR_MVyv0Tk6g-2" target="ZhQBjzfBdR_MVyv0Tk6g-1" edge="1">
          <mxGeometry width="50" height="50" relative="1" as="geometry">
            <mxPoint x="410" y="230" as="sourcePoint" />
            <mxPoint x="460" y="180" as="targetPoint" />
          </mxGeometry>
        </mxCell>
        <mxCell id="ZhQBjzfBdR_MVyv0Tk6g-4" value="" style="endArrow=classic;html=1;rounded=0;fontSize=12;jumpStyle=gap;entryX=0;entryY=0.25;entryDx=0;entryDy=0;exitX=0.5;exitY=0;exitDx=0;exitDy=0;" parent="1" source="J7JrQJHXKx8JAFVxgXsw-1" target="ZhQBjzfBdR_MVyv0Tk6g-2" edge="1">
          <mxGeometry width="50" height="50" relative="1" as="geometry">
            <mxPoint x="110" y="235" as="sourcePoint" />
            <mxPoint x="160" y="240" as="targetPoint" />
          </mxGeometry>
        </mxCell>
        <mxCell id="ZhQBjzfBdR_MVyv0Tk6g-5" value="Запрос клиента" style="text;html=1;align=center;verticalAlign=middle;resizable=0;points=[];autosize=1;strokeColor=none;fillColor=none;fontSize=12;rotation=-30;" parent="1" vertex="1">
          <mxGeometry x="100" y="230" width="110" height="30" as="geometry" />
        </mxCell>
        <mxCell id="ZhQBjzfBdR_MVyv0Tk6g-6" value="" style="endArrow=classic;html=1;rounded=0;fontSize=12;jumpStyle=gap;exitX=1;exitY=0.25;exitDx=0;exitDy=0;" parent="1" source="ZhQBjzfBdR_MVyv0Tk6g-2" edge="1">
          <mxGeometry width="50" height="50" relative="1" as="geometry">
            <mxPoint x="410" y="290" as="sourcePoint" />
            <mxPoint x="460" y="240" as="targetPoint" />
          </mxGeometry>
        </mxCell>
        <mxCell id="ZhQBjzfBdR_MVyv0Tk6g-7" value="Закупка комплектующих" style="rounded=1;whiteSpace=wrap;html=1;fontSize=12;" parent="1" vertex="1">
          <mxGeometry x="460" y="230" width="120" height="60" as="geometry" />
        </mxCell>
        <mxCell id="ZhQBjzfBdR_MVyv0Tk6g-8" value="" style="endArrow=classic;html=1;rounded=0;fontSize=12;jumpStyle=gap;" parent="1" edge="1">
          <mxGeometry width="50" height="50" relative="1" as="geometry">
            <mxPoint x="450" y="340" as="sourcePoint" />
            <mxPoint x="500" y="290" as="targetPoint" />
          </mxGeometry>
        </mxCell>
        <mxCell id="ZhQBjzfBdR_MVyv0Tk6g-9" value="Интернет-заказы" style="rounded=1;whiteSpace=wrap;html=1;fontSize=12;" parent="1" vertex="1">
          <mxGeometry x="340" y="340" width="120" height="60" as="geometry" />
        </mxCell>
        <mxCell id="ZhQBjzfBdR_MVyv0Tk6g-10" value="Остатки в компании" style="rounded=1;whiteSpace=wrap;html=1;fontSize=12;" parent="1" vertex="1">
          <mxGeometry x="490" y="350" width="120" height="60" as="geometry" />
        </mxCell>
        <mxCell id="ZhQBjzfBdR_MVyv0Tk6g-11" value="" style="endArrow=classic;html=1;rounded=0;fontSize=12;jumpStyle=gap;exitX=0.5;exitY=0;exitDx=0;exitDy=0;" parent="1" source="ZhQBjzfBdR_MVyv0Tk6g-10" edge="1">
          <mxGeometry width="50" height="50" relative="1" as="geometry">
            <mxPoint x="500" y="340" as="sourcePoint" />
            <mxPoint x="550" y="290" as="targetPoint" />
          </mxGeometry>
        </mxCell>
        <mxCell id="ZhQBjzfBdR_MVyv0Tk6g-12" value="" style="endArrow=classic;html=1;rounded=0;fontSize=12;jumpStyle=gap;exitX=1;exitY=0.25;exitDx=0;exitDy=0;" parent="1" source="ZhQBjzfBdR_MVyv0Tk6g-7" target="ZhQBjzfBdR_MVyv0Tk6g-13" edge="1">
          <mxGeometry width="50" height="50" relative="1" as="geometry">
            <mxPoint x="620" y="280" as="sourcePoint" />
            <mxPoint x="670" y="250" as="targetPoint" />
          </mxGeometry>
        </mxCell>
        <mxCell id="ZhQBjzfBdR_MVyv0Tk6g-13" value="Сборка ПК" style="rounded=1;whiteSpace=wrap;html=1;fontSize=12;" parent="1" vertex="1">
          <mxGeometry x="700" y="240" width="120" height="60" as="geometry" />
        </mxCell>
        <mxCell id="ZhQBjzfBdR_MVyv0Tk6g-16" value="выдача заказчику" style="rounded=1;whiteSpace=wrap;html=1;fontSize=12;" parent="1" vertex="1">
          <mxGeometry x="871" y="250" width="120" height="60" as="geometry" />
        </mxCell>
        <mxCell id="ZhQBjzfBdR_MVyv0Tk6g-17" value="" style="endArrow=classic;html=1;rounded=0;fontSize=12;jumpStyle=gap;entryX=0;entryY=0.25;entryDx=0;entryDy=0;exitX=1;exitY=0.25;exitDx=0;exitDy=0;" parent="1" source="ZhQBjzfBdR_MVyv0Tk6g-13" target="ZhQBjzfBdR_MVyv0Tk6g-16" edge="1">
          <mxGeometry width="50" height="50" relative="1" as="geometry">
            <mxPoint x="740" y="350" as="sourcePoint" />
            <mxPoint x="790" y="310" as="targetPoint" />
          </mxGeometry>
        </mxCell>
        <mxCell id="J7JrQJHXKx8JAFVxgXsw-1" value="клиент" style="whiteSpace=wrap;html=1;aspect=fixed;" parent="1" vertex="1">
          <mxGeometry x="70" y="300" width="80" height="80" as="geometry" />
        </mxCell>
        <mxCell id="J7JrQJHXKx8JAFVxgXsw-2" value="запрос в базу клиентов" style="text;html=1;align=center;verticalAlign=middle;resizable=0;points=[];autosize=1;strokeColor=none;fillColor=none;" parent="1" vertex="1">
          <mxGeometry x="337" y="150" width="160" height="30" as="geometry" />
        </mxCell>
        <mxCell id="J7JrQJHXKx8JAFVxgXsw-3" value="заказ на комплект" style="text;html=1;align=center;verticalAlign=middle;resizable=0;points=[];autosize=1;strokeColor=none;fillColor=none;" parent="1" vertex="1">
          <mxGeometry x="355" y="210" width="130" height="30" as="geometry" />
        </mxCell>
        <mxCell id="J7JrQJHXKx8JAFVxgXsw-4" value="готовность к сборке" style="text;html=1;align=center;verticalAlign=middle;resizable=0;points=[];autosize=1;strokeColor=none;fillColor=none;" parent="1" vertex="1">
          <mxGeometry x="560" y="210" width="140" height="30" as="geometry" />
        </mxCell>
        <mxCell id="J7JrQJHXKx8JAFVxgXsw-5" value="данные о комплекте" style="text;html=1;align=center;verticalAlign=middle;resizable=0;points=[];autosize=1;strokeColor=none;fillColor=none;" parent="1" vertex="1">
          <mxGeometry x="430" y="310" width="140" height="30" as="geometry" />
        </mxCell>
        <mxCell id="EDegAKDVNWeIaCSqrsmT-38" value="&lt;span style=&quot;font-size: 12px;&quot;&gt;подготовка места для сборки&amp;nbsp;&lt;/span&gt;" style="rounded=1;whiteSpace=wrap;html=1;fontSize=24;" parent="1" vertex="1">
          <mxGeometry x="275" y="565" width="153" height="90" as="geometry" />
        </mxCell>
        <mxCell id="EDegAKDVNWeIaCSqrsmT-39" value="&lt;span style=&quot;font-size: 12px;&quot;&gt;закупка необходимых деталей&amp;nbsp;&lt;/span&gt;" style="rounded=1;whiteSpace=wrap;html=1;fontSize=24;" parent="1" vertex="1">
          <mxGeometry x="510" y="545" width="153" height="90" as="geometry" />
        </mxCell>
        <mxCell id="EDegAKDVNWeIaCSqrsmT-40" value="&lt;span style=&quot;font-size: 12px;&quot;&gt;начало сборки&lt;/span&gt;" style="rounded=1;whiteSpace=wrap;html=1;fontSize=24;" parent="1" vertex="1">
          <mxGeometry x="728" y="615" width="153" height="90" as="geometry" />
        </mxCell>
        <mxCell id="EDegAKDVNWeIaCSqrsmT-41" value="принести инструменты для сборки" style="text;html=1;align=center;verticalAlign=middle;resizable=0;points=[];autosize=1;strokeColor=none;fillColor=none;" parent="1" vertex="1">
          <mxGeometry x="50" y="545" width="220" height="30" as="geometry" />
        </mxCell>
        <mxCell id="EDegAKDVNWeIaCSqrsmT-43" value="организовать место для сборки" style="text;html=1;align=center;verticalAlign=middle;resizable=0;points=[];autosize=1;strokeColor=none;fillColor=none;fontSize=12;" parent="1" vertex="1">
          <mxGeometry x="55" y="605" width="200" height="30" as="geometry" />
        </mxCell>
        <mxCell id="EDegAKDVNWeIaCSqrsmT-44" value="" style="endArrow=classic;html=1;rounded=0;fontSize=12;jumpStyle=gap;" parent="1" edge="1">
          <mxGeometry width="50" height="50" relative="1" as="geometry">
            <mxPoint x="65" y="585" as="sourcePoint" />
            <mxPoint x="275" y="585" as="targetPoint" />
          </mxGeometry>
        </mxCell>
        <mxCell id="EDegAKDVNWeIaCSqrsmT-45" value="" style="endArrow=classic;html=1;rounded=0;fontSize=12;jumpStyle=gap;" parent="1" edge="1">
          <mxGeometry width="50" height="50" relative="1" as="geometry">
            <mxPoint x="60" y="639.3800000000001" as="sourcePoint" />
            <mxPoint x="270" y="639.3800000000001" as="targetPoint" />
          </mxGeometry>
        </mxCell>
        <mxCell id="EDegAKDVNWeIaCSqrsmT-51" value="" style="endArrow=classic;html=1;rounded=0;fontSize=12;jumpStyle=gap;exitX=1;exitY=0.25;exitDx=0;exitDy=0;entryX=0;entryY=0.25;entryDx=0;entryDy=0;" parent="1" source="EDegAKDVNWeIaCSqrsmT-38" target="EDegAKDVNWeIaCSqrsmT-39" edge="1">
          <mxGeometry width="50" height="50" relative="1" as="geometry">
            <mxPoint x="450" y="615" as="sourcePoint" />
            <mxPoint x="500" y="565" as="targetPoint" />
          </mxGeometry>
        </mxCell>
        <mxCell id="EDegAKDVNWeIaCSqrsmT-52" value="" style="endArrow=classic;html=1;rounded=0;fontSize=12;jumpStyle=gap;entryX=0;entryY=0.25;entryDx=0;entryDy=0;exitX=1;exitY=0.5;exitDx=0;exitDy=0;" parent="1" source="EDegAKDVNWeIaCSqrsmT-39" target="EDegAKDVNWeIaCSqrsmT-40" edge="1">
          <mxGeometry width="50" height="50" relative="1" as="geometry">
            <mxPoint x="650" y="645" as="sourcePoint" />
            <mxPoint x="700" y="595" as="targetPoint" />
          </mxGeometry>
        </mxCell>
        <mxCell id="EDegAKDVNWeIaCSqrsmT-59" value="Вставить основные комплектующие в материнскую плату" style="rounded=1;whiteSpace=wrap;html=1;fontSize=12;" parent="1" vertex="1">
          <mxGeometry x="280" y="915" width="148" height="90" as="geometry" />
        </mxCell>
        <mxCell id="EDegAKDVNWeIaCSqrsmT-60" value="Вставить дополнительные комплектующие в материнскую плату" style="rounded=1;whiteSpace=wrap;html=1;fontSize=12;" parent="1" vertex="1">
          <mxGeometry x="500.5" y="935" width="148" height="90" as="geometry" />
        </mxCell>
        <mxCell id="EDegAKDVNWeIaCSqrsmT-61" value="Вставить материнскую плату в корпус" style="rounded=1;whiteSpace=wrap;html=1;fontSize=12;" parent="1" vertex="1">
          <mxGeometry x="739" y="955" width="148" height="90" as="geometry" />
        </mxCell>
        <mxCell id="EDegAKDVNWeIaCSqrsmT-66" value="" style="endArrow=classic;html=1;rounded=0;fontSize=12;jumpStyle=gap;entryX=0;entryY=0.25;entryDx=0;entryDy=0;" parent="1" target="EDegAKDVNWeIaCSqrsmT-59" edge="1">
          <mxGeometry width="50" height="50" relative="1" as="geometry">
            <mxPoint x="190" y="938" as="sourcePoint" />
            <mxPoint x="240" y="935" as="targetPoint" />
          </mxGeometry>
        </mxCell>
        <mxCell id="EDegAKDVNWeIaCSqrsmT-67" value="Процессор" style="text;html=1;align=center;verticalAlign=middle;resizable=0;points=[];autosize=1;strokeColor=none;fillColor=none;fontSize=12;" parent="1" vertex="1">
          <mxGeometry x="190" y="905" width="80" height="30" as="geometry" />
        </mxCell>
        <mxCell id="EDegAKDVNWeIaCSqrsmT-68" value="" style="endArrow=classic;html=1;rounded=0;fontSize=12;jumpStyle=gap;entryX=0;entryY=0.75;entryDx=0;entryDy=0;" parent="1" target="EDegAKDVNWeIaCSqrsmT-59" edge="1">
          <mxGeometry width="50" height="50" relative="1" as="geometry">
            <mxPoint x="190" y="985" as="sourcePoint" />
            <mxPoint x="246" y="975" as="targetPoint" />
          </mxGeometry>
        </mxCell>
        <mxCell id="EDegAKDVNWeIaCSqrsmT-69" value="материнская плата" style="text;html=1;align=center;verticalAlign=middle;resizable=0;points=[];autosize=1;strokeColor=none;fillColor=none;fontSize=12;" parent="1" vertex="1">
          <mxGeometry x="150" y="955" width="130" height="30" as="geometry" />
        </mxCell>
        <mxCell id="EDegAKDVNWeIaCSqrsmT-70" value="" style="endArrow=classic;html=1;rounded=0;fontSize=12;jumpStyle=gap;exitX=1;exitY=0.25;exitDx=0;exitDy=0;entryX=0;entryY=0.25;entryDx=0;entryDy=0;" parent="1" source="EDegAKDVNWeIaCSqrsmT-59" target="EDegAKDVNWeIaCSqrsmT-60" edge="1">
          <mxGeometry width="50" height="50" relative="1" as="geometry">
            <mxPoint x="460" y="945" as="sourcePoint" />
            <mxPoint x="510" y="895" as="targetPoint" />
          </mxGeometry>
        </mxCell>
        <mxCell id="EDegAKDVNWeIaCSqrsmT-71" value="" style="endArrow=classic;html=1;rounded=0;fontSize=12;jumpStyle=gap;exitX=1;exitY=0.25;exitDx=0;exitDy=0;entryX=0;entryY=0.25;entryDx=0;entryDy=0;" parent="1" target="EDegAKDVNWeIaCSqrsmT-61" edge="1">
          <mxGeometry width="50" height="50" relative="1" as="geometry">
            <mxPoint x="648.5" y="955" as="sourcePoint" />
            <mxPoint x="722" y="975" as="targetPoint" />
          </mxGeometry>
        </mxCell>
        <mxCell id="EDegAKDVNWeIaCSqrsmT-80" value="" style="endArrow=classic;html=1;rounded=0;fontSize=12;jumpStyle=gap;" parent="1" edge="1">
          <mxGeometry width="50" height="50" relative="1" as="geometry">
            <mxPoint x="440" y="985" as="sourcePoint" />
            <mxPoint x="500" y="985" as="targetPoint" />
          </mxGeometry>
        </mxCell>
        <mxCell id="EDegAKDVNWeIaCSqrsmT-81" value="Видеокарта" style="text;html=1;align=center;verticalAlign=middle;resizable=0;points=[];autosize=1;strokeColor=none;fillColor=none;fontSize=12;" parent="1" vertex="1">
          <mxGeometry x="420" y="955" width="90" height="30" as="geometry" />
        </mxCell>
        <mxCell id="EDegAKDVNWeIaCSqrsmT-82" value="" style="endArrow=classic;html=1;rounded=0;fontSize=12;jumpStyle=gap;exitX=1;exitY=0.25;exitDx=0;exitDy=0;" parent="1" source="EDegAKDVNWeIaCSqrsmT-61" edge="1">
          <mxGeometry width="50" height="50" relative="1" as="geometry">
            <mxPoint x="930" y="1015" as="sourcePoint" />
            <mxPoint x="980" y="975" as="targetPoint" />
          </mxGeometry>
        </mxCell>
        <mxCell id="EDegAKDVNWeIaCSqrsmT-83" value="готовый компьютер" style="text;html=1;align=center;verticalAlign=middle;resizable=0;points=[];autosize=1;strokeColor=none;fillColor=none;fontSize=12;" parent="1" vertex="1">
          <mxGeometry x="881" y="945" width="140" height="30" as="geometry" />
        </mxCell>
        <mxCell id="EDegAKDVNWeIaCSqrsmT-84" value="" style="endArrow=classic;html=1;rounded=0;fontSize=12;jumpStyle=gap;exitX=1.02;exitY=0.667;exitDx=0;exitDy=0;exitPerimeter=0;" parent="1" source="EDegAKDVNWeIaCSqrsmT-61" edge="1">
          <mxGeometry width="50" height="50" relative="1" as="geometry">
            <mxPoint x="920" y="1045" as="sourcePoint" />
            <mxPoint x="980" y="1015" as="targetPoint" />
          </mxGeometry>
        </mxCell>
        <mxCell id="EDegAKDVNWeIaCSqrsmT-85" value="коробки от &lt;br&gt;комплектующих" style="text;html=1;align=center;verticalAlign=middle;resizable=0;points=[];autosize=1;strokeColor=none;fillColor=none;fontSize=12;" parent="1" vertex="1">
          <mxGeometry x="880" y="1015" width="120" height="40" as="geometry" />
        </mxCell>
        <mxCell id="EDegAKDVNWeIaCSqrsmT-86" value="Позвонить заказчику" style="rounded=1;whiteSpace=wrap;html=1;fontSize=12;" parent="1" vertex="1">
          <mxGeometry x="280" y="1285" width="120" height="60" as="geometry" />
        </mxCell>
        <mxCell id="EDegAKDVNWeIaCSqrsmT-87" value="Встреча с заказчиком" style="rounded=1;whiteSpace=wrap;html=1;fontSize=12;" parent="1" vertex="1">
          <mxGeometry x="497" y="1315" width="120" height="60" as="geometry" />
        </mxCell>
        <mxCell id="EDegAKDVNWeIaCSqrsmT-88" value="Передача ПК заказчику" style="rounded=1;whiteSpace=wrap;html=1;fontSize=12;" parent="1" vertex="1">
          <mxGeometry x="710" y="1355" width="120" height="60" as="geometry" />
        </mxCell>
        <mxCell id="EDegAKDVNWeIaCSqrsmT-89" value="" style="endArrow=classic;html=1;rounded=0;fontSize=12;jumpStyle=gap;exitX=1;exitY=0.25;exitDx=0;exitDy=0;entryX=0;entryY=0.25;entryDx=0;entryDy=0;" parent="1" source="EDegAKDVNWeIaCSqrsmT-86" target="EDegAKDVNWeIaCSqrsmT-87" edge="1">
          <mxGeometry width="50" height="50" relative="1" as="geometry">
            <mxPoint x="420" y="1335" as="sourcePoint" />
            <mxPoint x="470" y="1285" as="targetPoint" />
          </mxGeometry>
        </mxCell>
        <mxCell id="EDegAKDVNWeIaCSqrsmT-90" value="" style="endArrow=classic;html=1;rounded=0;fontSize=12;jumpStyle=gap;exitX=1;exitY=0.25;exitDx=0;exitDy=0;entryX=0;entryY=0.25;entryDx=0;entryDy=0;" parent="1" source="EDegAKDVNWeIaCSqrsmT-87" target="EDegAKDVNWeIaCSqrsmT-88" edge="1">
          <mxGeometry width="50" height="50" relative="1" as="geometry">
            <mxPoint x="660" y="1365" as="sourcePoint" />
            <mxPoint x="710" y="1315" as="targetPoint" />
          </mxGeometry>
        </mxCell>
        <mxCell id="EDegAKDVNWeIaCSqrsmT-91" value="" style="endArrow=classic;html=1;rounded=0;fontSize=12;jumpStyle=gap;" parent="1" edge="1">
          <mxGeometry width="50" height="50" relative="1" as="geometry">
            <mxPoint x="210" y="1295" as="sourcePoint" />
            <mxPoint x="280" y="1295" as="targetPoint" />
          </mxGeometry>
        </mxCell>
        <mxCell id="EDegAKDVNWeIaCSqrsmT-92" value="телефон &lt;br&gt;заказчика" style="text;html=1;align=center;verticalAlign=middle;resizable=0;points=[];autosize=1;strokeColor=none;fillColor=none;fontSize=12;" parent="1" vertex="1">
          <mxGeometry x="190" y="1255" width="80" height="40" as="geometry" />
        </mxCell>
        <mxCell id="EDegAKDVNWeIaCSqrsmT-105" value="готовое место" style="text;html=1;align=center;verticalAlign=middle;resizable=0;points=[];autosize=1;strokeColor=none;fillColor=none;" parent="1" vertex="1">
          <mxGeometry x="400" y="530" width="100" height="30" as="geometry" />
        </mxCell>
        <mxCell id="EDegAKDVNWeIaCSqrsmT-106" value="готовые детали" style="text;html=1;align=center;verticalAlign=middle;resizable=0;points=[];autosize=1;strokeColor=none;fillColor=none;" parent="1" vertex="1">
          <mxGeometry x="660" y="565" width="110" height="30" as="geometry" />
        </mxCell>
        <mxCell id="EDegAKDVNWeIaCSqrsmT-107" value="готовый компонент" style="text;html=1;align=center;verticalAlign=middle;resizable=0;points=[];autosize=1;strokeColor=none;fillColor=none;" parent="1" vertex="1">
          <mxGeometry x="420" y="905" width="130" height="30" as="geometry" />
        </mxCell>
        <mxCell id="EDegAKDVNWeIaCSqrsmT-108" value="готовая сборка" style="text;html=1;align=center;verticalAlign=middle;resizable=0;points=[];autosize=1;strokeColor=none;fillColor=none;" parent="1" vertex="1">
          <mxGeometry x="645" y="920" width="110" height="30" as="geometry" />
        </mxCell>
        <mxCell id="EDegAKDVNWeIaCSqrsmT-109" value="дата и время встречи" style="text;html=1;align=center;verticalAlign=middle;resizable=0;points=[];autosize=1;strokeColor=none;fillColor=none;" parent="1" vertex="1">
          <mxGeometry x="395" y="1265" width="150" height="30" as="geometry" />
        </mxCell>
        <mxCell id="EDegAKDVNWeIaCSqrsmT-110" value="готовый ПК" style="text;html=1;align=center;verticalAlign=middle;resizable=0;points=[];autosize=1;strokeColor=none;fillColor=none;" parent="1" vertex="1">
          <mxGeometry x="638" y="1315" width="90" height="30" as="geometry" />
        </mxCell>
        <mxCell id="EDegAKDVNWeIaCSqrsmT-111" value="БД" style="shape=process;whiteSpace=wrap;html=1;backgroundOutline=1;" parent="1" vertex="1">
          <mxGeometry x="475" y="705" width="120" height="60" as="geometry" />
        </mxCell>
        <mxCell id="EDegAKDVNWeIaCSqrsmT-112" value="" style="endArrow=classic;startArrow=classic;html=1;rounded=0;" parent="1" edge="1">
          <mxGeometry width="50" height="50" relative="1" as="geometry">
            <mxPoint x="530" y="695" as="sourcePoint" />
            <mxPoint x="580" y="645" as="targetPoint" />
          </mxGeometry>
        </mxCell>
        <mxCell id="EDegAKDVNWeIaCSqrsmT-113" value="проверка&amp;nbsp;&lt;br&gt;наличия" style="text;html=1;align=center;verticalAlign=middle;resizable=0;points=[];autosize=1;strokeColor=none;fillColor=none;" parent="1" vertex="1">
          <mxGeometry x="470" y="645" width="80" height="40" as="geometry" />
        </mxCell>
        <mxCell id="EDegAKDVNWeIaCSqrsmT-114" value="БД" style="shape=process;whiteSpace=wrap;html=1;backgroundOutline=1;" parent="1" vertex="1">
          <mxGeometry x="395" y="1445" width="120" height="60" as="geometry" />
        </mxCell>
        <mxCell id="EDegAKDVNWeIaCSqrsmT-115" value="" style="endArrow=classic;startArrow=classic;html=1;rounded=0;" parent="1" edge="1">
          <mxGeometry width="50" height="50" relative="1" as="geometry">
            <mxPoint x="440" y="1435" as="sourcePoint" />
            <mxPoint x="390" y="1365" as="targetPoint" />
          </mxGeometry>
        </mxCell>
        <mxCell id="EDegAKDVNWeIaCSqrsmT-116" value="назначение&amp;nbsp;&lt;br&gt;даты &amp;nbsp;и времени" style="text;html=1;align=center;verticalAlign=middle;resizable=0;points=[];autosize=1;strokeColor=none;fillColor=none;" parent="1" vertex="1">
          <mxGeometry x="290" y="1385" width="120" height="40" as="geometry" />
        </mxCell>
        <mxCell id="EDegAKDVNWeIaCSqrsmT-117" value="информация о готовности" style="text;html=1;align=center;verticalAlign=middle;resizable=0;points=[];autosize=1;strokeColor=none;fillColor=none;" parent="1" vertex="1">
          <mxGeometry x="800" y="200" width="170" height="30" as="geometry" />
        </mxCell>
      </root>
    </mxGraphModel>
  </diagram>
  <diagram id="0SUBj1ABAgYGvBQZ0G7s" name="Страница 3">
    <mxGraphModel dx="1285" dy="647" grid="1" gridSize="10" guides="1" tooltips="1" connect="1" arrows="1" fold="1" page="1" pageScale="1" pageWidth="3300" pageHeight="4681" math="0" shadow="0">
      <root>
        <mxCell id="0" />
        <mxCell id="1" parent="0" />
        <mxCell id="Q0gZRAbkVH38ggP_eDSN-1" value="Дерево&lt;br&gt;&amp;nbsp;узлов" style="shape=umlBoundary;whiteSpace=wrap;html=1;" parent="1" vertex="1">
          <mxGeometry x="120" y="90" width="100" height="80" as="geometry" />
        </mxCell>
        <mxCell id="Q0gZRAbkVH38ggP_eDSN-2" value="Набор&lt;br&gt;вкладок" style="shape=umlBoundary;whiteSpace=wrap;html=1;" parent="1" vertex="1">
          <mxGeometry x="290" y="90" width="100" height="80" as="geometry" />
        </mxCell>
        <mxCell id="Q0gZRAbkVH38ggP_eDSN-3" value="Система&lt;br&gt;принятия&lt;br&gt;заявок" style="shape=umlBoundary;whiteSpace=wrap;html=1;" parent="1" vertex="1">
          <mxGeometry x="200" y="200" width="100" height="80" as="geometry" />
        </mxCell>
        <mxCell id="Q0gZRAbkVH38ggP_eDSN-4" value="Панель&amp;nbsp;&lt;br&gt;инструментов" style="shape=umlBoundary;whiteSpace=wrap;html=1;" parent="1" vertex="1">
          <mxGeometry x="70" y="290" width="100" height="80" as="geometry" />
        </mxCell>
        <mxCell id="Q0gZRAbkVH38ggP_eDSN-5" value="Диалоговое окно работы с БД" style="shape=umlBoundary;whiteSpace=wrap;html=1;" parent="1" vertex="1">
          <mxGeometry x="210" y="360" width="100" height="80" as="geometry" />
        </mxCell>
        <mxCell id="Q0gZRAbkVH38ggP_eDSN-6" value="Строка состояния" style="shape=umlBoundary;whiteSpace=wrap;html=1;" parent="1" vertex="1">
          <mxGeometry x="370" y="260" width="100" height="80" as="geometry" />
        </mxCell>
        <mxCell id="Q0gZRAbkVH38ggP_eDSN-7" value="" style="endArrow=diamondThin;endFill=1;endSize=24;html=1;rounded=0;exitX=0.7;exitY=1.013;exitDx=0;exitDy=0;exitPerimeter=0;" parent="1" source="Q0gZRAbkVH38ggP_eDSN-1" target="Q0gZRAbkVH38ggP_eDSN-3" edge="1">
          <mxGeometry width="160" relative="1" as="geometry">
            <mxPoint x="40" y="220" as="sourcePoint" />
            <mxPoint x="200" y="220" as="targetPoint" />
          </mxGeometry>
        </mxCell>
        <mxCell id="Q0gZRAbkVH38ggP_eDSN-8" value="" style="endArrow=diamondThin;endFill=1;endSize=24;html=1;rounded=0;exitX=0.7;exitY=1.013;exitDx=0;exitDy=0;exitPerimeter=0;" parent="1" target="Q0gZRAbkVH38ggP_eDSN-3" edge="1">
          <mxGeometry width="160" relative="1" as="geometry">
            <mxPoint x="200" y="181" as="sourcePoint" />
            <mxPoint x="225" y="210" as="targetPoint" />
          </mxGeometry>
        </mxCell>
        <mxCell id="Q0gZRAbkVH38ggP_eDSN-9" value="" style="endArrow=diamondThin;endFill=1;endSize=24;html=1;rounded=0;exitX=0.47;exitY=1.013;exitDx=0;exitDy=0;exitPerimeter=0;entryX=0.86;entryY=0.088;entryDx=0;entryDy=0;entryPerimeter=0;" parent="1" source="Q0gZRAbkVH38ggP_eDSN-2" target="Q0gZRAbkVH38ggP_eDSN-3" edge="1">
          <mxGeometry width="160" relative="1" as="geometry">
            <mxPoint x="210" y="191" as="sourcePoint" />
            <mxPoint x="235" y="220" as="targetPoint" />
            <Array as="points" />
          </mxGeometry>
        </mxCell>
        <mxCell id="Q0gZRAbkVH38ggP_eDSN-10" value="" style="endArrow=diamondThin;endFill=1;endSize=24;html=1;rounded=0;exitX=1.04;exitY=0.425;exitDx=0;exitDy=0;exitPerimeter=0;entryX=0.36;entryY=0.013;entryDx=0;entryDy=0;entryPerimeter=0;" parent="1" source="Q0gZRAbkVH38ggP_eDSN-4" target="Q0gZRAbkVH38ggP_eDSN-5" edge="1">
          <mxGeometry width="160" relative="1" as="geometry">
            <mxPoint x="171" y="224" as="sourcePoint" />
            <mxPoint x="120" y="260" as="targetPoint" />
            <Array as="points" />
          </mxGeometry>
        </mxCell>
        <mxCell id="Q0gZRAbkVH38ggP_eDSN-11" value="" style="endArrow=diamondThin;endFill=1;endSize=24;html=1;rounded=0;exitX=0.59;exitY=1.038;exitDx=0;exitDy=0;exitPerimeter=0;entryX=0.86;entryY=0.088;entryDx=0;entryDy=0;entryPerimeter=0;" parent="1" source="Q0gZRAbkVH38ggP_eDSN-3" edge="1">
          <mxGeometry width="160" relative="1" as="geometry">
            <mxPoint x="310" y="324" as="sourcePoint" />
            <mxPoint x="259" y="360" as="targetPoint" />
            <Array as="points" />
          </mxGeometry>
        </mxCell>
        <mxCell id="Q0gZRAbkVH38ggP_eDSN-12" value="" style="endArrow=diamondThin;endFill=1;endSize=24;html=1;rounded=0;exitX=0.21;exitY=0.788;exitDx=0;exitDy=0;exitPerimeter=0;entryX=0.86;entryY=0.088;entryDx=0;entryDy=0;entryPerimeter=0;" parent="1" source="Q0gZRAbkVH38ggP_eDSN-6" edge="1">
          <mxGeometry width="160" relative="1" as="geometry">
            <mxPoint x="351" y="334" as="sourcePoint" />
            <mxPoint x="300" y="370" as="targetPoint" />
            <Array as="points" />
          </mxGeometry>
        </mxCell>
        <mxCell id="Q0gZRAbkVH38ggP_eDSN-13" value="диалоговое окно&lt;br&gt;&quot;Кредитная история&quot;" style="shape=umlBoundary;whiteSpace=wrap;html=1;" parent="1" vertex="1">
          <mxGeometry x="60" y="480" width="100" height="80" as="geometry" />
        </mxCell>
        <mxCell id="Q0gZRAbkVH38ggP_eDSN-14" value="диалоговое окно&lt;br&gt;&quot;Данные юр. лица&quot;" style="shape=umlBoundary;whiteSpace=wrap;html=1;" parent="1" vertex="1">
          <mxGeometry x="60" y="570" width="100" height="80" as="geometry" />
        </mxCell>
        <mxCell id="Q0gZRAbkVH38ggP_eDSN-15" value="" style="endArrow=block;dashed=1;endFill=0;endSize=12;html=1;rounded=0;exitX=1.01;exitY=0.513;exitDx=0;exitDy=0;exitPerimeter=0;entryX=0.3;entryY=0.875;entryDx=0;entryDy=0;entryPerimeter=0;" parent="1" source="Q0gZRAbkVH38ggP_eDSN-13" target="Q0gZRAbkVH38ggP_eDSN-5" edge="1">
          <mxGeometry width="160" relative="1" as="geometry">
            <mxPoint x="190" y="520" as="sourcePoint" />
            <mxPoint x="350" y="520" as="targetPoint" />
          </mxGeometry>
        </mxCell>
        <mxCell id="Q0gZRAbkVH38ggP_eDSN-16" value="" style="endArrow=block;dashed=1;endFill=0;endSize=12;html=1;rounded=0;entryX=0.55;entryY=1.063;entryDx=0;entryDy=0;entryPerimeter=0;" parent="1" target="Q0gZRAbkVH38ggP_eDSN-5" edge="1">
          <mxGeometry width="160" relative="1" as="geometry">
            <mxPoint x="160" y="610" as="sourcePoint" />
            <mxPoint x="320" y="610" as="targetPoint" />
          </mxGeometry>
        </mxCell>
        <mxCell id="Q0gZRAbkVH38ggP_eDSN-17" value="Электронная&amp;nbsp;&lt;br&gt;таблица" style="ellipse;shape=umlEntity;whiteSpace=wrap;html=1;" parent="1" vertex="1">
          <mxGeometry x="450" y="430" width="80" height="80" as="geometry" />
        </mxCell>
        <mxCell id="Q0gZRAbkVH38ggP_eDSN-18" value="" style="endArrow=classic;html=1;rounded=0;exitX=1.02;exitY=0.725;exitDx=0;exitDy=0;exitPerimeter=0;entryX=0;entryY=0.375;entryDx=0;entryDy=0;entryPerimeter=0;" parent="1" source="Q0gZRAbkVH38ggP_eDSN-5" target="Q0gZRAbkVH38ggP_eDSN-17" edge="1">
          <mxGeometry width="50" height="50" relative="1" as="geometry">
            <mxPoint x="350" y="480" as="sourcePoint" />
            <mxPoint x="400" y="430" as="targetPoint" />
          </mxGeometry>
        </mxCell>
        <mxCell id="Q0gZRAbkVH38ggP_eDSN-19" value="Соединение&lt;br&gt;с БД" style="ellipse;shape=umlControl;whiteSpace=wrap;html=1;" parent="1" vertex="1">
          <mxGeometry x="690" y="430" width="70" height="80" as="geometry" />
        </mxCell>
        <mxCell id="Q0gZRAbkVH38ggP_eDSN-21" value="" style="endArrow=block;dashed=1;endFill=0;endSize=12;html=1;rounded=0;" parent="1" edge="1">
          <mxGeometry width="160" relative="1" as="geometry">
            <mxPoint x="530" y="480" as="sourcePoint" />
            <mxPoint x="690" y="480" as="targetPoint" />
          </mxGeometry>
        </mxCell>
        <mxCell id="Q0gZRAbkVH38ggP_eDSN-22" value="" style="endArrow=block;dashed=1;endFill=0;endSize=12;html=1;rounded=0;" parent="1" edge="1">
          <mxGeometry width="160" relative="1" as="geometry">
            <mxPoint x="770" y="469.5" as="sourcePoint" />
            <mxPoint x="930" y="469.5" as="targetPoint" />
          </mxGeometry>
        </mxCell>
        <mxCell id="Q0gZRAbkVH38ggP_eDSN-23" value="Работник&amp;nbsp;&lt;br&gt;банка" style="shape=umlActor;verticalLabelPosition=bottom;verticalAlign=top;html=1;" parent="1" vertex="1">
          <mxGeometry x="70" y="740" width="30" height="60" as="geometry" />
        </mxCell>
        <mxCell id="Q0gZRAbkVH38ggP_eDSN-26" value="Клиент&lt;br&gt;банка" style="shape=umlActor;verticalLabelPosition=bottom;verticalAlign=top;html=1;" parent="1" vertex="1">
          <mxGeometry x="70" y="850" width="30" height="60" as="geometry" />
        </mxCell>
        <mxCell id="Q0gZRAbkVH38ggP_eDSN-27" value="Регистрация&amp;nbsp;&lt;br&gt;клиента" style="shape=umlBoundary;whiteSpace=wrap;html=1;strokeColor=default;fontFamily=Helvetica;fontSize=12;fontColor=default;fillColor=default;" parent="1" vertex="1">
          <mxGeometry x="280" y="800" width="100" height="80" as="geometry" />
        </mxCell>
        <mxCell id="Q0gZRAbkVH38ggP_eDSN-28" value="Электронная&lt;br&gt;система&lt;br&gt;записи" style="ellipse;shape=umlControl;whiteSpace=wrap;html=1;strokeColor=default;fontFamily=Helvetica;fontSize=12;fontColor=default;fillColor=default;" parent="1" vertex="1">
          <mxGeometry x="180" y="670" width="100" height="90" as="geometry" />
        </mxCell>
        <mxCell id="Q0gZRAbkVH38ggP_eDSN-29" value="Запись данных&amp;nbsp;&lt;br&gt;клиента" style="ellipse;shape=umlEntity;whiteSpace=wrap;html=1;strokeColor=default;fontFamily=Helvetica;fontSize=12;fontColor=default;fillColor=default;" parent="1" vertex="1">
          <mxGeometry x="230" y="1000" width="80" height="80" as="geometry" />
        </mxCell>
        <mxCell id="Q0gZRAbkVH38ggP_eDSN-31" value="Дата&amp;nbsp;&lt;br&gt;записи" style="ellipse;shape=umlEntity;whiteSpace=wrap;html=1;strokeColor=default;fontFamily=Helvetica;fontSize=12;fontColor=default;fillColor=default;" parent="1" vertex="1">
          <mxGeometry x="360" y="1000" width="80" height="80" as="geometry" />
        </mxCell>
        <mxCell id="Q0gZRAbkVH38ggP_eDSN-32" value="Обозначение&amp;nbsp;&lt;br&gt;цели&lt;br&gt;кредитования" style="ellipse;shape=umlEntity;whiteSpace=wrap;html=1;strokeColor=default;fontFamily=Helvetica;fontSize=12;fontColor=default;fillColor=default;" parent="1" vertex="1">
          <mxGeometry x="490" y="1000" width="90" height="90" as="geometry" />
        </mxCell>
        <mxCell id="Q0gZRAbkVH38ggP_eDSN-33" value="Запись к&lt;br&gt;оператору" style="ellipse;shape=umlControl;whiteSpace=wrap;html=1;strokeColor=default;fontFamily=Helvetica;fontSize=12;fontColor=default;fillColor=default;" parent="1" vertex="1">
          <mxGeometry x="550" y="800" width="70" height="80" as="geometry" />
        </mxCell>
        <mxCell id="Q0gZRAbkVH38ggP_eDSN-34" value="" style="endArrow=diamondThin;endFill=1;endSize=24;html=1;rounded=0;fontFamily=Helvetica;fontSize=12;fontColor=default;entryX=-0.013;entryY=0.313;entryDx=0;entryDy=0;entryPerimeter=0;" parent="1" target="Q0gZRAbkVH38ggP_eDSN-27" edge="1">
          <mxGeometry width="160" relative="1" as="geometry">
            <mxPoint x="110" y="780" as="sourcePoint" />
            <mxPoint x="270" y="780" as="targetPoint" />
          </mxGeometry>
        </mxCell>
        <mxCell id="Q0gZRAbkVH38ggP_eDSN-35" value="" style="endArrow=diamondThin;endFill=1;endSize=24;html=1;rounded=0;fontFamily=Helvetica;fontSize=12;fontColor=default;entryX=-0.047;entryY=0.75;entryDx=0;entryDy=0;entryPerimeter=0;" parent="1" target="Q0gZRAbkVH38ggP_eDSN-27" edge="1">
          <mxGeometry width="160" relative="1" as="geometry">
            <mxPoint x="120" y="890" as="sourcePoint" />
            <mxPoint x="280" y="890" as="targetPoint" />
          </mxGeometry>
        </mxCell>
        <mxCell id="Q0gZRAbkVH38ggP_eDSN-36" value="" style="endArrow=diamondThin;endFill=1;endSize=24;html=1;rounded=0;fontFamily=Helvetica;fontSize=12;fontColor=default;entryX=0.503;entryY=-0.021;entryDx=0;entryDy=0;entryPerimeter=0;" parent="1" target="Q0gZRAbkVH38ggP_eDSN-27" edge="1">
          <mxGeometry width="160" relative="1" as="geometry">
            <mxPoint x="270" y="740" as="sourcePoint" />
            <mxPoint x="430" y="740" as="targetPoint" />
          </mxGeometry>
        </mxCell>
        <mxCell id="Q0gZRAbkVH38ggP_eDSN-37" value="" style="endArrow=diamondThin;endFill=1;endSize=24;html=1;rounded=0;fontFamily=Helvetica;fontSize=12;fontColor=default;entryX=0.42;entryY=0.979;entryDx=0;entryDy=0;entryPerimeter=0;" parent="1" target="Q0gZRAbkVH38ggP_eDSN-27" edge="1">
          <mxGeometry width="160" relative="1" as="geometry">
            <mxPoint x="270" y="1000" as="sourcePoint" />
            <mxPoint x="430" y="1000" as="targetPoint" />
          </mxGeometry>
        </mxCell>
        <mxCell id="Q0gZRAbkVH38ggP_eDSN-38" value="" style="endArrow=diamondThin;endFill=1;endSize=24;html=1;rounded=0;fontFamily=Helvetica;fontSize=12;fontColor=default;entryX=0.737;entryY=1.042;entryDx=0;entryDy=0;entryPerimeter=0;" parent="1" target="Q0gZRAbkVH38ggP_eDSN-27" edge="1">
          <mxGeometry width="160" relative="1" as="geometry">
            <mxPoint x="400" y="990" as="sourcePoint" />
            <mxPoint x="560" y="990" as="targetPoint" />
          </mxGeometry>
        </mxCell>
        <mxCell id="Q0gZRAbkVH38ggP_eDSN-39" value="" style="endArrow=diamondThin;endFill=1;endSize=24;html=1;rounded=0;fontFamily=Helvetica;fontSize=12;fontColor=default;" parent="1" target="Q0gZRAbkVH38ggP_eDSN-27" edge="1">
          <mxGeometry width="160" relative="1" as="geometry">
            <mxPoint x="530" y="990" as="sourcePoint" />
            <mxPoint x="690" y="990" as="targetPoint" />
          </mxGeometry>
        </mxCell>
        <mxCell id="Q0gZRAbkVH38ggP_eDSN-40" value="" style="endArrow=diamondThin;endFill=0;endSize=24;html=1;rounded=0;fontFamily=Helvetica;fontSize=12;fontColor=default;" parent="1" edge="1">
          <mxGeometry width="160" relative="1" as="geometry">
            <mxPoint x="390" y="840" as="sourcePoint" />
            <mxPoint x="550" y="840" as="targetPoint" />
          </mxGeometry>
        </mxCell>
        <mxCell id="Q0gZRAbkVH38ggP_eDSN-42" value="" style="endArrow=block;dashed=1;endFill=0;endSize=12;html=1;rounded=0;fontFamily=Helvetica;fontSize=12;fontColor=default;exitX=0.386;exitY=0.083;exitDx=0;exitDy=0;exitPerimeter=0;entryX=0.5;entryY=1;entryDx=0;entryDy=0;" parent="1" source="Q0gZRAbkVH38ggP_eDSN-33" target="Q0gZRAbkVH38ggP_eDSN-17" edge="1">
          <mxGeometry width="160" relative="1" as="geometry">
            <mxPoint x="580" y="790" as="sourcePoint" />
            <mxPoint x="740" y="790" as="targetPoint" />
          </mxGeometry>
        </mxCell>
        <mxCell id="Q0gZRAbkVH38ggP_eDSN-43" value="Отчет по&lt;br&gt;приемам в&lt;br&gt;БД" style="ellipse;shape=umlEntity;whiteSpace=wrap;html=1;strokeColor=default;fontFamily=Helvetica;fontSize=12;fontColor=default;fillColor=default;" parent="1" vertex="1">
          <mxGeometry x="1090" y="760" width="80" height="80" as="geometry" />
        </mxCell>
        <mxCell id="Q0gZRAbkVH38ggP_eDSN-44" value="Прием" style="ellipse;shape=umlEntity;whiteSpace=wrap;html=1;strokeColor=default;fontFamily=Helvetica;fontSize=12;fontColor=default;fillColor=default;" parent="1" vertex="1">
          <mxGeometry x="1230" y="760" width="80" height="80" as="geometry" />
        </mxCell>
        <mxCell id="Q0gZRAbkVH38ggP_eDSN-45" value="Запись клиента по дате" style="ellipse;shape=umlEntity;whiteSpace=wrap;html=1;strokeColor=default;fontFamily=Helvetica;fontSize=12;fontColor=default;fillColor=default;" parent="1" vertex="1">
          <mxGeometry x="1400" y="760" width="80" height="80" as="geometry" />
        </mxCell>
        <mxCell id="Q0gZRAbkVH38ggP_eDSN-46" value="Кредитная история&lt;br&gt;" style="ellipse;shape=umlEntity;whiteSpace=wrap;html=1;strokeColor=default;fontFamily=Helvetica;fontSize=12;fontColor=default;fillColor=default;" parent="1" vertex="1">
          <mxGeometry x="1480" y="580" width="80" height="80" as="geometry" />
        </mxCell>
        <mxCell id="Q0gZRAbkVH38ggP_eDSN-47" value="Данные&amp;nbsp;&lt;br&gt;клиента" style="ellipse;shape=umlEntity;whiteSpace=wrap;html=1;strokeColor=default;fontFamily=Helvetica;fontSize=12;fontColor=default;fillColor=default;" parent="1" vertex="1">
          <mxGeometry x="1620" y="640" width="80" height="80" as="geometry" />
        </mxCell>
        <mxCell id="Q0gZRAbkVH38ggP_eDSN-48" value="Количество&lt;br&gt;записей" style="ellipse;shape=umlEntity;whiteSpace=wrap;html=1;strokeColor=default;fontFamily=Helvetica;fontSize=12;fontColor=default;fillColor=default;" parent="1" vertex="1">
          <mxGeometry x="1660" y="780" width="80" height="80" as="geometry" />
        </mxCell>
        <mxCell id="Q0gZRAbkVH38ggP_eDSN-49" value="Клиенты с&amp;nbsp;&lt;br&gt;одобрением кредита" style="ellipse;shape=umlEntity;whiteSpace=wrap;html=1;strokeColor=default;fontFamily=Helvetica;fontSize=12;fontColor=default;fillColor=default;" parent="1" vertex="1">
          <mxGeometry x="1350" y="910" width="80" height="80" as="geometry" />
        </mxCell>
        <mxCell id="Q0gZRAbkVH38ggP_eDSN-50" value="" style="endArrow=diamondThin;endFill=1;endSize=24;html=1;rounded=0;fontFamily=Helvetica;fontSize=12;fontColor=default;exitX=0;exitY=0.5;exitDx=0;exitDy=0;entryX=1;entryY=0.5;entryDx=0;entryDy=0;" parent="1" source="Q0gZRAbkVH38ggP_eDSN-44" target="Q0gZRAbkVH38ggP_eDSN-43" edge="1">
          <mxGeometry width="160" relative="1" as="geometry">
            <mxPoint x="1150" y="910" as="sourcePoint" />
            <mxPoint x="1310" y="910" as="targetPoint" />
          </mxGeometry>
        </mxCell>
        <mxCell id="Q0gZRAbkVH38ggP_eDSN-51" value="" style="endArrow=diamondThin;endFill=1;endSize=24;html=1;rounded=0;fontFamily=Helvetica;fontSize=12;fontColor=default;exitX=0;exitY=0.5;exitDx=0;exitDy=0;entryX=1;entryY=0.5;entryDx=0;entryDy=0;" parent="1" source="Q0gZRAbkVH38ggP_eDSN-45" target="Q0gZRAbkVH38ggP_eDSN-44" edge="1">
          <mxGeometry width="160" relative="1" as="geometry">
            <mxPoint x="1160" y="1050" as="sourcePoint" />
            <mxPoint x="1320" y="1050" as="targetPoint" />
          </mxGeometry>
        </mxCell>
        <mxCell id="Q0gZRAbkVH38ggP_eDSN-52" value="" style="endArrow=diamondThin;endFill=1;endSize=24;html=1;rounded=0;fontFamily=Helvetica;fontSize=12;fontColor=default;exitX=0.5;exitY=1;exitDx=0;exitDy=0;entryX=0.5;entryY=0;entryDx=0;entryDy=0;" parent="1" source="Q0gZRAbkVH38ggP_eDSN-46" target="Q0gZRAbkVH38ggP_eDSN-45" edge="1">
          <mxGeometry width="160" relative="1" as="geometry">
            <mxPoint x="1450" y="740" as="sourcePoint" />
            <mxPoint x="1610" y="740" as="targetPoint" />
          </mxGeometry>
        </mxCell>
        <mxCell id="Q0gZRAbkVH38ggP_eDSN-53" value="" style="endArrow=diamondThin;endFill=1;endSize=24;html=1;rounded=0;fontFamily=Helvetica;fontSize=12;fontColor=default;exitX=0.5;exitY=1;exitDx=0;exitDy=0;entryX=1;entryY=0.5;entryDx=0;entryDy=0;" parent="1" source="Q0gZRAbkVH38ggP_eDSN-47" target="Q0gZRAbkVH38ggP_eDSN-45" edge="1">
          <mxGeometry width="160" relative="1" as="geometry">
            <mxPoint x="1480" y="1090" as="sourcePoint" />
            <mxPoint x="1640" y="1090" as="targetPoint" />
          </mxGeometry>
        </mxCell>
        <mxCell id="Q0gZRAbkVH38ggP_eDSN-55" value="" style="endArrow=diamondThin;endFill=1;endSize=24;html=1;rounded=0;fontFamily=Helvetica;fontSize=12;fontColor=default;exitX=0.175;exitY=0;exitDx=0;exitDy=0;exitPerimeter=0;entryX=0.5;entryY=1;entryDx=0;entryDy=0;" parent="1" source="Q0gZRAbkVH38ggP_eDSN-49" target="Q0gZRAbkVH38ggP_eDSN-44" edge="1">
          <mxGeometry width="160" relative="1" as="geometry">
            <mxPoint x="1170" y="980" as="sourcePoint" />
            <mxPoint x="1330" y="980" as="targetPoint" />
          </mxGeometry>
        </mxCell>
        <mxCell id="Q0gZRAbkVH38ggP_eDSN-56" value="" style="endArrow=diamondThin;endFill=1;endSize=24;html=1;rounded=0;fontFamily=Helvetica;fontSize=12;fontColor=default;exitX=0.004;exitY=0.65;exitDx=0;exitDy=0;exitPerimeter=0;" parent="1" source="Q0gZRAbkVH38ggP_eDSN-48" edge="1">
          <mxGeometry width="160" relative="1" as="geometry">
            <mxPoint x="1520" y="920" as="sourcePoint" />
            <mxPoint x="1680" y="920" as="targetPoint" />
          </mxGeometry>
        </mxCell>
      </root>
    </mxGraphModel>
  </diagram>
  <diagram id="TxQ53DoT2UVZ8mOHT3Eg" name="Страница 4">
    <mxGraphModel dx="1285" dy="647" grid="1" gridSize="10" guides="1" tooltips="1" connect="1" arrows="1" fold="1" page="1" pageScale="1" pageWidth="3300" pageHeight="4681" math="0" shadow="0">
      <root>
        <mxCell id="0" />
        <mxCell id="1" parent="0" />
      </root>
    </mxGraphModel>
  </diagram>
  <diagram id="4Y48Lp45Er55SdRwyCZr" name="Страница 5">
    <mxGraphModel dx="559" dy="647" grid="1" gridSize="10" guides="1" tooltips="1" connect="1" arrows="1" fold="1" page="1" pageScale="1" pageWidth="3300" pageHeight="4681" math="0" shadow="0">
      <root>
        <mxCell id="0" />
        <mxCell id="1" parent="0" />
        <mxCell id="ZOYcT6X1F7_mmilRzGtS-4" style="edgeStyle=orthogonalEdgeStyle;rounded=0;orthogonalLoop=1;jettySize=auto;html=1;exitX=0.5;exitY=1;exitDx=0;exitDy=0;entryX=0.5;entryY=0;entryDx=0;entryDy=0;" edge="1" parent="1" source="ZOYcT6X1F7_mmilRzGtS-1" target="ZOYcT6X1F7_mmilRzGtS-3">
          <mxGeometry relative="1" as="geometry" />
        </mxCell>
        <mxCell id="ZOYcT6X1F7_mmilRzGtS-1" value="" style="ellipse;whiteSpace=wrap;html=1;aspect=fixed;" vertex="1" parent="1">
          <mxGeometry x="100" y="140" width="30" height="30" as="geometry" />
        </mxCell>
        <mxCell id="ZOYcT6X1F7_mmilRzGtS-7" style="edgeStyle=orthogonalEdgeStyle;rounded=0;orthogonalLoop=1;jettySize=auto;html=1;exitX=0.5;exitY=1;exitDx=0;exitDy=0;entryX=0.5;entryY=0;entryDx=0;entryDy=0;" edge="1" parent="1" source="ZOYcT6X1F7_mmilRzGtS-3" target="ZOYcT6X1F7_mmilRzGtS-6">
          <mxGeometry relative="1" as="geometry" />
        </mxCell>
        <mxCell id="ZOYcT6X1F7_mmilRzGtS-3" value="Кредитный план&lt;br&gt;" style="rounded=1;whiteSpace=wrap;html=1;" vertex="1" parent="1">
          <mxGeometry x="55" y="220" width="120" height="60" as="geometry" />
        </mxCell>
        <mxCell id="ZOYcT6X1F7_mmilRzGtS-5" value="Сформировать&amp;nbsp;&lt;br&gt;кредитный план&lt;br&gt;" style="text;html=1;align=center;verticalAlign=middle;resizable=0;points=[];autosize=1;strokeColor=none;fillColor=none;" vertex="1" parent="1">
          <mxGeometry x="120" y="170" width="120" height="40" as="geometry" />
        </mxCell>
        <mxCell id="ZOYcT6X1F7_mmilRzGtS-10" style="edgeStyle=orthogonalEdgeStyle;rounded=0;orthogonalLoop=1;jettySize=auto;html=1;exitX=1;exitY=0.5;exitDx=0;exitDy=0;entryX=0;entryY=0.5;entryDx=0;entryDy=0;" edge="1" parent="1" source="ZOYcT6X1F7_mmilRzGtS-6" target="ZOYcT6X1F7_mmilRzGtS-9">
          <mxGeometry relative="1" as="geometry" />
        </mxCell>
        <mxCell id="ZOYcT6X1F7_mmilRzGtS-6" value="Кредитный отдел&lt;br&gt;-------------------&lt;br&gt;утвердить план" style="rounded=1;whiteSpace=wrap;html=1;" vertex="1" parent="1">
          <mxGeometry x="60" y="350" width="120" height="60" as="geometry" />
        </mxCell>
        <mxCell id="ZOYcT6X1F7_mmilRzGtS-8" value="Выдано на согласование&lt;br&gt;в кредитный отдел&lt;br&gt;" style="text;html=1;align=center;verticalAlign=middle;resizable=0;points=[];autosize=1;strokeColor=none;fillColor=none;" vertex="1" parent="1">
          <mxGeometry x="110" y="293" width="160" height="40" as="geometry" />
        </mxCell>
        <mxCell id="ZOYcT6X1F7_mmilRzGtS-13" style="edgeStyle=orthogonalEdgeStyle;rounded=0;orthogonalLoop=1;jettySize=auto;html=1;exitX=0;exitY=1;exitDx=0;exitDy=0;entryX=1;entryY=0;entryDx=0;entryDy=0;" edge="1" parent="1" source="ZOYcT6X1F7_mmilRzGtS-9" target="ZOYcT6X1F7_mmilRzGtS-12">
          <mxGeometry relative="1" as="geometry" />
        </mxCell>
        <mxCell id="ZOYcT6X1F7_mmilRzGtS-9" value="оператор банка&lt;br&gt;--------------------&lt;br&gt;передача клиенту и подписание" style="rounded=1;whiteSpace=wrap;html=1;" vertex="1" parent="1">
          <mxGeometry x="320" y="350" width="120" height="60" as="geometry" />
        </mxCell>
        <mxCell id="ZOYcT6X1F7_mmilRzGtS-11" value="передать оператору&lt;br&gt;" style="text;html=1;align=center;verticalAlign=middle;resizable=0;points=[];autosize=1;strokeColor=none;fillColor=none;" vertex="1" parent="1">
          <mxGeometry x="175" y="350" width="140" height="30" as="geometry" />
        </mxCell>
        <mxCell id="ZOYcT6X1F7_mmilRzGtS-16" style="edgeStyle=orthogonalEdgeStyle;rounded=0;orthogonalLoop=1;jettySize=auto;html=1;exitX=0.5;exitY=1;exitDx=0;exitDy=0;entryX=0.5;entryY=0;entryDx=0;entryDy=0;" edge="1" parent="1" source="ZOYcT6X1F7_mmilRzGtS-12" target="ZOYcT6X1F7_mmilRzGtS-15">
          <mxGeometry relative="1" as="geometry" />
        </mxCell>
        <mxCell id="ZOYcT6X1F7_mmilRzGtS-12" value="Ознакомление и&amp;nbsp;&lt;br&gt;подписание" style="rounded=1;whiteSpace=wrap;html=1;" vertex="1" parent="1">
          <mxGeometry x="60" y="460" width="120" height="60" as="geometry" />
        </mxCell>
        <mxCell id="ZOYcT6X1F7_mmilRzGtS-14" value="выдано клиенту для&lt;br&gt;&amp;nbsp;подписания&amp;nbsp;" style="text;html=1;align=center;verticalAlign=middle;resizable=0;points=[];autosize=1;strokeColor=none;fillColor=none;" vertex="1" parent="1">
          <mxGeometry x="180" y="433" width="140" height="40" as="geometry" />
        </mxCell>
        <mxCell id="ZOYcT6X1F7_mmilRzGtS-20" style="edgeStyle=orthogonalEdgeStyle;rounded=0;orthogonalLoop=1;jettySize=auto;html=1;exitX=0.5;exitY=1;exitDx=0;exitDy=0;entryX=0.5;entryY=0;entryDx=0;entryDy=0;" edge="1" parent="1" source="ZOYcT6X1F7_mmilRzGtS-15" target="ZOYcT6X1F7_mmilRzGtS-19">
          <mxGeometry relative="1" as="geometry" />
        </mxCell>
        <mxCell id="ZOYcT6X1F7_mmilRzGtS-15" value="" style="rounded=1;whiteSpace=wrap;html=1;" vertex="1" parent="1">
          <mxGeometry x="60" y="580" width="120" height="60" as="geometry" />
        </mxCell>
        <mxCell id="ZOYcT6X1F7_mmilRzGtS-17" value="получение&amp;nbsp;&lt;br&gt;денежных средств" style="text;html=1;align=center;verticalAlign=middle;resizable=0;points=[];autosize=1;strokeColor=none;fillColor=none;" vertex="1" parent="1">
          <mxGeometry x="55" y="590" width="130" height="40" as="geometry" />
        </mxCell>
        <mxCell id="ZOYcT6X1F7_mmilRzGtS-18" value="перевести денежные&amp;nbsp;&lt;br&gt;средства&lt;br&gt;" style="text;html=1;align=center;verticalAlign=middle;resizable=0;points=[];autosize=1;strokeColor=none;fillColor=none;" vertex="1" parent="1">
          <mxGeometry x="115" y="530" width="150" height="40" as="geometry" />
        </mxCell>
        <mxCell id="ZOYcT6X1F7_mmilRzGtS-19" value="" style="ellipse;whiteSpace=wrap;html=1;aspect=fixed;" vertex="1" parent="1">
          <mxGeometry x="100" y="670" width="30" height="30" as="geometry" />
        </mxCell>
        <mxCell id="PZNb7Wx-mJ5qNkAdUZ4Y-1" value="клиент" style="text;html=1;align=center;verticalAlign=middle;resizable=0;points=[];autosize=1;strokeColor=none;fillColor=none;" vertex="1" parent="1">
          <mxGeometry x="40" y="810" width="60" height="30" as="geometry" />
        </mxCell>
        <mxCell id="PZNb7Wx-mJ5qNkAdUZ4Y-2" value="" style="endArrow=none;html=1;rounded=0;" edge="1" parent="1">
          <mxGeometry width="50" height="50" relative="1" as="geometry">
            <mxPoint x="40" y="840" as="sourcePoint" />
            <mxPoint x="600" y="840" as="targetPoint" />
          </mxGeometry>
        </mxCell>
        <mxCell id="PZNb7Wx-mJ5qNkAdUZ4Y-3" value="" style="ellipse;whiteSpace=wrap;html=1;aspect=fixed;" vertex="1" parent="1">
          <mxGeometry x="82.5" y="850" width="20" height="20" as="geometry" />
        </mxCell>
        <mxCell id="PZNb7Wx-mJ5qNkAdUZ4Y-4" value="Запросить&lt;br&gt;сумму кредита" style="rounded=1;whiteSpace=wrap;html=1;" vertex="1" parent="1">
          <mxGeometry x="40" y="900" width="105" height="40" as="geometry" />
        </mxCell>
        <mxCell id="PZNb7Wx-mJ5qNkAdUZ4Y-5" value="" style="endArrow=classic;html=1;rounded=0;exitX=0.5;exitY=1;exitDx=0;exitDy=0;entryX=0.5;entryY=0;entryDx=0;entryDy=0;" edge="1" parent="1" source="PZNb7Wx-mJ5qNkAdUZ4Y-3" target="PZNb7Wx-mJ5qNkAdUZ4Y-4">
          <mxGeometry width="50" height="50" relative="1" as="geometry">
            <mxPoint x="200" y="940" as="sourcePoint" />
            <mxPoint x="250" y="890" as="targetPoint" />
          </mxGeometry>
        </mxCell>
        <mxCell id="PZNb7Wx-mJ5qNkAdUZ4Y-6" value="Оператор&lt;br&gt;банка" style="text;html=1;align=center;verticalAlign=middle;resizable=0;points=[];autosize=1;strokeColor=none;fillColor=none;" vertex="1" parent="1">
          <mxGeometry x="185" y="800" width="80" height="40" as="geometry" />
        </mxCell>
        <mxCell id="PZNb7Wx-mJ5qNkAdUZ4Y-7" value="" style="endArrow=none;html=1;rounded=0;" edge="1" parent="1">
          <mxGeometry width="50" height="50" relative="1" as="geometry">
            <mxPoint x="150" y="1030" as="sourcePoint" />
            <mxPoint x="150" y="810" as="targetPoint" />
          </mxGeometry>
        </mxCell>
        <mxCell id="PZNb7Wx-mJ5qNkAdUZ4Y-8" value="передать документы&amp;nbsp;&lt;br&gt;руководству" style="rounded=1;whiteSpace=wrap;html=1;" vertex="1" parent="1">
          <mxGeometry x="185" y="900" width="95" height="40" as="geometry" />
        </mxCell>
        <mxCell id="PZNb7Wx-mJ5qNkAdUZ4Y-9" value="" style="endArrow=classic;html=1;rounded=0;exitX=1;exitY=0.5;exitDx=0;exitDy=0;entryX=0;entryY=0.5;entryDx=0;entryDy=0;" edge="1" parent="1" source="PZNb7Wx-mJ5qNkAdUZ4Y-4" target="PZNb7Wx-mJ5qNkAdUZ4Y-8">
          <mxGeometry width="50" height="50" relative="1" as="geometry">
            <mxPoint x="110" y="1140" as="sourcePoint" />
            <mxPoint x="160" y="1090" as="targetPoint" />
          </mxGeometry>
        </mxCell>
        <mxCell id="PZNb7Wx-mJ5qNkAdUZ4Y-10" value="" style="endArrow=none;html=1;rounded=0;" edge="1" parent="1">
          <mxGeometry width="50" height="50" relative="1" as="geometry">
            <mxPoint x="290" y="1030" as="sourcePoint" />
            <mxPoint x="290" y="810" as="targetPoint" />
          </mxGeometry>
        </mxCell>
        <mxCell id="PZNb7Wx-mJ5qNkAdUZ4Y-11" value="Кредитный&amp;nbsp;&lt;br&gt;отдел" style="text;html=1;align=center;verticalAlign=middle;resizable=0;points=[];autosize=1;strokeColor=none;fillColor=none;" vertex="1" parent="1">
          <mxGeometry x="300" y="800" width="90" height="40" as="geometry" />
        </mxCell>
        <mxCell id="PZNb7Wx-mJ5qNkAdUZ4Y-12" value="Одобрение&amp;nbsp;&lt;br&gt;кредита" style="rounded=1;whiteSpace=wrap;html=1;" vertex="1" parent="1">
          <mxGeometry x="310" y="900" width="105" height="40" as="geometry" />
        </mxCell>
        <mxCell id="PZNb7Wx-mJ5qNkAdUZ4Y-13" value="" style="endArrow=classic;html=1;rounded=0;exitX=1;exitY=0.5;exitDx=0;exitDy=0;entryX=0;entryY=0.5;entryDx=0;entryDy=0;" edge="1" parent="1" source="PZNb7Wx-mJ5qNkAdUZ4Y-8" target="PZNb7Wx-mJ5qNkAdUZ4Y-12">
          <mxGeometry width="50" height="50" relative="1" as="geometry">
            <mxPoint x="330" y="1060" as="sourcePoint" />
            <mxPoint x="380" y="1010" as="targetPoint" />
          </mxGeometry>
        </mxCell>
        <mxCell id="PZNb7Wx-mJ5qNkAdUZ4Y-22" style="edgeStyle=orthogonalEdgeStyle;rounded=0;orthogonalLoop=1;jettySize=auto;html=1;exitX=0;exitY=0.5;exitDx=0;exitDy=0;entryX=1;entryY=0.5;entryDx=0;entryDy=0;" edge="1" parent="1" source="PZNb7Wx-mJ5qNkAdUZ4Y-14" target="PZNb7Wx-mJ5qNkAdUZ4Y-21">
          <mxGeometry relative="1" as="geometry" />
        </mxCell>
        <mxCell id="PZNb7Wx-mJ5qNkAdUZ4Y-14" value="" style="rhombus;whiteSpace=wrap;html=1;" vertex="1" parent="1">
          <mxGeometry x="320" y="970" width="80" height="50" as="geometry" />
        </mxCell>
        <mxCell id="PZNb7Wx-mJ5qNkAdUZ4Y-15" value="" style="endArrow=classic;html=1;rounded=0;exitX=0.5;exitY=1;exitDx=0;exitDy=0;entryX=0.5;entryY=0;entryDx=0;entryDy=0;" edge="1" parent="1" source="PZNb7Wx-mJ5qNkAdUZ4Y-12" target="PZNb7Wx-mJ5qNkAdUZ4Y-14">
          <mxGeometry width="50" height="50" relative="1" as="geometry">
            <mxPoint x="450" y="1020" as="sourcePoint" />
            <mxPoint x="500" y="970" as="targetPoint" />
          </mxGeometry>
        </mxCell>
        <mxCell id="PZNb7Wx-mJ5qNkAdUZ4Y-16" value="" style="ellipse;whiteSpace=wrap;html=1;aspect=fixed;" vertex="1" parent="1">
          <mxGeometry x="343.5" y="1050" width="33" height="33" as="geometry" />
        </mxCell>
        <mxCell id="PZNb7Wx-mJ5qNkAdUZ4Y-17" value="" style="endArrow=classic;html=1;rounded=0;exitX=0.5;exitY=1;exitDx=0;exitDy=0;" edge="1" parent="1" source="PZNb7Wx-mJ5qNkAdUZ4Y-14" target="PZNb7Wx-mJ5qNkAdUZ4Y-16">
          <mxGeometry width="50" height="50" relative="1" as="geometry">
            <mxPoint x="410" y="1180" as="sourcePoint" />
            <mxPoint x="460" y="1130" as="targetPoint" />
          </mxGeometry>
        </mxCell>
        <mxCell id="PZNb7Wx-mJ5qNkAdUZ4Y-18" value="нет" style="text;html=1;align=center;verticalAlign=middle;resizable=0;points=[];autosize=1;strokeColor=none;fillColor=none;" vertex="1" parent="1">
          <mxGeometry x="360" y="1018" width="40" height="30" as="geometry" />
        </mxCell>
        <mxCell id="PZNb7Wx-mJ5qNkAdUZ4Y-20" value="" style="endArrow=none;html=1;rounded=0;" edge="1" parent="1">
          <mxGeometry width="50" height="50" relative="1" as="geometry">
            <mxPoint x="430" y="1030" as="sourcePoint" />
            <mxPoint x="430" y="810" as="targetPoint" />
          </mxGeometry>
        </mxCell>
        <mxCell id="PZNb7Wx-mJ5qNkAdUZ4Y-25" style="edgeStyle=orthogonalEdgeStyle;rounded=0;orthogonalLoop=1;jettySize=auto;html=1;exitX=0;exitY=0.5;exitDx=0;exitDy=0;entryX=1;entryY=0.25;entryDx=0;entryDy=0;" edge="1" parent="1" source="PZNb7Wx-mJ5qNkAdUZ4Y-21" target="PZNb7Wx-mJ5qNkAdUZ4Y-24">
          <mxGeometry relative="1" as="geometry" />
        </mxCell>
        <mxCell id="PZNb7Wx-mJ5qNkAdUZ4Y-21" value="передать документы&amp;nbsp;&lt;br&gt;клиенту" style="rounded=1;whiteSpace=wrap;html=1;" vertex="1" parent="1">
          <mxGeometry x="175" y="970" width="95" height="40" as="geometry" />
        </mxCell>
        <mxCell id="PZNb7Wx-mJ5qNkAdUZ4Y-23" value="да" style="text;html=1;align=center;verticalAlign=middle;resizable=0;points=[];autosize=1;strokeColor=none;fillColor=none;" vertex="1" parent="1">
          <mxGeometry x="290" y="990" width="40" height="30" as="geometry" />
        </mxCell>
        <mxCell id="PZNb7Wx-mJ5qNkAdUZ4Y-24" value="получить денежные средства" style="rounded=1;whiteSpace=wrap;html=1;" vertex="1" parent="1">
          <mxGeometry x="25" y="985" width="95" height="40" as="geometry" />
        </mxCell>
      </root>
    </mxGraphModel>
  </diagram>
  <diagram id="vBbikB-91vBBGJbdfWVr" name="Страница 6">
    <mxGraphModel dx="1285" dy="647" grid="1" gridSize="10" guides="1" tooltips="1" connect="1" arrows="1" fold="1" page="1" pageScale="1" pageWidth="3300" pageHeight="4681" math="0" shadow="0">
      <root>
        <mxCell id="0" />
        <mxCell id="1" parent="0" />
        <mxCell id="PMIGXvwbld6Hk3hM6ihV-24" style="edgeStyle=orthogonalEdgeStyle;rounded=0;orthogonalLoop=1;jettySize=auto;html=1;exitX=1;exitY=1;exitDx=0;exitDy=0;exitPerimeter=0;entryX=0;entryY=0.5;entryDx=0;entryDy=0;" edge="1" parent="1" source="QIEZjEhIlXwruPGVoErK-1" target="PMIGXvwbld6Hk3hM6ihV-22">
          <mxGeometry relative="1" as="geometry" />
        </mxCell>
        <mxCell id="QIEZjEhIlXwruPGVoErK-1" value="Заказчик" style="shape=umlActor;verticalLabelPosition=bottom;verticalAlign=top;html=1;outlineConnect=0;" vertex="1" parent="1">
          <mxGeometry x="90" y="100" width="30" height="60" as="geometry" />
        </mxCell>
        <mxCell id="PMIGXvwbld6Hk3hM6ihV-1" value="оформление&amp;nbsp;&lt;br&gt;заказа" style="ellipse;whiteSpace=wrap;html=1;" vertex="1" parent="1">
          <mxGeometry x="220" y="110" width="90" height="50" as="geometry" />
        </mxCell>
        <mxCell id="PMIGXvwbld6Hk3hM6ihV-2" value="" style="endArrow=classic;html=1;rounded=0;exitX=1;exitY=0.3333333333333333;exitDx=0;exitDy=0;exitPerimeter=0;entryX=0;entryY=0.5;entryDx=0;entryDy=0;" edge="1" parent="1" source="QIEZjEhIlXwruPGVoErK-1" target="PMIGXvwbld6Hk3hM6ihV-1">
          <mxGeometry width="50" height="50" relative="1" as="geometry">
            <mxPoint x="130" y="140" as="sourcePoint" />
            <mxPoint x="180" y="90" as="targetPoint" />
          </mxGeometry>
        </mxCell>
        <mxCell id="PMIGXvwbld6Hk3hM6ihV-13" style="edgeStyle=orthogonalEdgeStyle;rounded=0;orthogonalLoop=1;jettySize=auto;html=1;exitX=0;exitY=1;exitDx=0;exitDy=0;exitPerimeter=0;entryX=1;entryY=0.5;entryDx=0;entryDy=0;" edge="1" parent="1" source="PMIGXvwbld6Hk3hM6ihV-3" target="PMIGXvwbld6Hk3hM6ihV-7">
          <mxGeometry relative="1" as="geometry" />
        </mxCell>
        <mxCell id="PMIGXvwbld6Hk3hM6ihV-14" style="edgeStyle=orthogonalEdgeStyle;rounded=0;orthogonalLoop=1;jettySize=auto;html=1;exitX=1;exitY=1;exitDx=0;exitDy=0;exitPerimeter=0;entryX=1;entryY=0.5;entryDx=0;entryDy=0;" edge="1" parent="1" source="PMIGXvwbld6Hk3hM6ihV-3" target="PMIGXvwbld6Hk3hM6ihV-11">
          <mxGeometry relative="1" as="geometry" />
        </mxCell>
        <mxCell id="PMIGXvwbld6Hk3hM6ihV-3" value="Компания сборки" style="shape=umlActor;verticalLabelPosition=bottom;verticalAlign=top;html=1;outlineConnect=0;" vertex="1" parent="1">
          <mxGeometry x="440" y="120" width="30" height="60" as="geometry" />
        </mxCell>
        <mxCell id="PMIGXvwbld6Hk3hM6ihV-6" value="" style="endArrow=classic;html=1;rounded=0;exitX=0;exitY=0.3333333333333333;exitDx=0;exitDy=0;exitPerimeter=0;entryX=1;entryY=0.5;entryDx=0;entryDy=0;" edge="1" parent="1" source="PMIGXvwbld6Hk3hM6ihV-3" target="PMIGXvwbld6Hk3hM6ihV-1">
          <mxGeometry width="50" height="50" relative="1" as="geometry">
            <mxPoint x="400" y="150" as="sourcePoint" />
            <mxPoint x="450" y="100" as="targetPoint" />
          </mxGeometry>
        </mxCell>
        <mxCell id="PMIGXvwbld6Hk3hM6ihV-12" style="edgeStyle=orthogonalEdgeStyle;rounded=0;orthogonalLoop=1;jettySize=auto;html=1;exitX=0.5;exitY=1;exitDx=0;exitDy=0;entryX=0.5;entryY=0;entryDx=0;entryDy=0;" edge="1" parent="1" source="PMIGXvwbld6Hk3hM6ihV-7" target="PMIGXvwbld6Hk3hM6ihV-11">
          <mxGeometry relative="1" as="geometry" />
        </mxCell>
        <mxCell id="PMIGXvwbld6Hk3hM6ihV-7" value="начало сборки" style="ellipse;whiteSpace=wrap;html=1;" vertex="1" parent="1">
          <mxGeometry x="220" y="190" width="90" height="50" as="geometry" />
        </mxCell>
        <mxCell id="PMIGXvwbld6Hk3hM6ihV-8" value="" style="endArrow=classic;html=1;rounded=0;exitX=0.5;exitY=1;exitDx=0;exitDy=0;entryX=0.5;entryY=0;entryDx=0;entryDy=0;" edge="1" parent="1" source="PMIGXvwbld6Hk3hM6ihV-1" target="PMIGXvwbld6Hk3hM6ihV-7">
          <mxGeometry width="50" height="50" relative="1" as="geometry">
            <mxPoint x="340" y="370" as="sourcePoint" />
            <mxPoint x="390" y="320" as="targetPoint" />
          </mxGeometry>
        </mxCell>
        <mxCell id="PMIGXvwbld6Hk3hM6ihV-17" style="edgeStyle=orthogonalEdgeStyle;rounded=0;orthogonalLoop=1;jettySize=auto;html=1;exitX=0.5;exitY=1;exitDx=0;exitDy=0;" edge="1" parent="1" source="PMIGXvwbld6Hk3hM6ihV-11" target="PMIGXvwbld6Hk3hM6ihV-16">
          <mxGeometry relative="1" as="geometry" />
        </mxCell>
        <mxCell id="PMIGXvwbld6Hk3hM6ihV-11" value="закупка&lt;br&gt;недостающих&amp;nbsp;&lt;br&gt;комплектующих" style="ellipse;whiteSpace=wrap;html=1;" vertex="1" parent="1">
          <mxGeometry x="220" y="290" width="90" height="50" as="geometry" />
        </mxCell>
        <mxCell id="PMIGXvwbld6Hk3hM6ihV-23" style="edgeStyle=orthogonalEdgeStyle;rounded=0;orthogonalLoop=1;jettySize=auto;html=1;exitX=0.5;exitY=1;exitDx=0;exitDy=0;" edge="1" parent="1" source="PMIGXvwbld6Hk3hM6ihV-16" target="PMIGXvwbld6Hk3hM6ihV-22">
          <mxGeometry relative="1" as="geometry" />
        </mxCell>
        <mxCell id="PMIGXvwbld6Hk3hM6ihV-16" value="установка&amp;nbsp;&lt;br&gt;нужного ПО" style="ellipse;whiteSpace=wrap;html=1;" vertex="1" parent="1">
          <mxGeometry x="220" y="370" width="90" height="50" as="geometry" />
        </mxCell>
        <mxCell id="PMIGXvwbld6Hk3hM6ihV-21" style="edgeStyle=orthogonalEdgeStyle;rounded=0;orthogonalLoop=1;jettySize=auto;html=1;exitX=0;exitY=0.3333333333333333;exitDx=0;exitDy=0;exitPerimeter=0;entryX=1;entryY=0.5;entryDx=0;entryDy=0;" edge="1" parent="1" source="PMIGXvwbld6Hk3hM6ihV-18" target="PMIGXvwbld6Hk3hM6ihV-16">
          <mxGeometry relative="1" as="geometry" />
        </mxCell>
        <mxCell id="PMIGXvwbld6Hk3hM6ihV-25" style="edgeStyle=orthogonalEdgeStyle;rounded=0;orthogonalLoop=1;jettySize=auto;html=1;exitX=0;exitY=1;exitDx=0;exitDy=0;exitPerimeter=0;entryX=1;entryY=0.5;entryDx=0;entryDy=0;" edge="1" parent="1" source="PMIGXvwbld6Hk3hM6ihV-18" target="PMIGXvwbld6Hk3hM6ihV-22">
          <mxGeometry relative="1" as="geometry" />
        </mxCell>
        <mxCell id="PMIGXvwbld6Hk3hM6ihV-18" value="Программист" style="shape=umlActor;verticalLabelPosition=bottom;verticalAlign=top;html=1;outlineConnect=0;" vertex="1" parent="1">
          <mxGeometry x="450" y="370" width="30" height="60" as="geometry" />
        </mxCell>
        <mxCell id="PMIGXvwbld6Hk3hM6ihV-22" value="выдача готового ПК" style="ellipse;whiteSpace=wrap;html=1;" vertex="1" parent="1">
          <mxGeometry x="220" y="460" width="90" height="50" as="geometry" />
        </mxCell>
        <mxCell id="zJRZKk28Td4YViQOvxbd-1" value="заказчик&amp;nbsp;" style="shape=umlActor;verticalLabelPosition=bottom;verticalAlign=top;html=1;outlineConnect=0;" vertex="1" parent="1">
          <mxGeometry x="80" y="630" width="30" height="60" as="geometry" />
        </mxCell>
        <mxCell id="zJRZKk28Td4YViQOvxbd-2" value="" style="endArrow=none;html=1;rounded=0;entryX=0;entryY=1;entryDx=0;entryDy=0;entryPerimeter=0;" edge="1" parent="1" target="zJRZKk28Td4YViQOvxbd-1">
          <mxGeometry width="50" height="50" relative="1" as="geometry">
            <mxPoint x="80" y="980" as="sourcePoint" />
            <mxPoint x="110" y="750" as="targetPoint" />
          </mxGeometry>
        </mxCell>
        <mxCell id="zJRZKk28Td4YViQOvxbd-3" value="Компания сборки" style="rounded=0;whiteSpace=wrap;html=1;" vertex="1" parent="1">
          <mxGeometry x="200" y="630" width="120" height="50" as="geometry" />
        </mxCell>
        <mxCell id="zJRZKk28Td4YViQOvxbd-4" value="Команда сборки" style="rounded=0;whiteSpace=wrap;html=1;" vertex="1" parent="1">
          <mxGeometry x="390" y="625" width="120" height="55" as="geometry" />
        </mxCell>
        <mxCell id="zJRZKk28Td4YViQOvxbd-5" value="Склад с комплектующими" style="rounded=0;whiteSpace=wrap;html=1;" vertex="1" parent="1">
          <mxGeometry x="580" y="620" width="120" height="60" as="geometry" />
        </mxCell>
        <mxCell id="zJRZKk28Td4YViQOvxbd-6" value="" style="endArrow=none;html=1;rounded=0;entryX=0;entryY=1;entryDx=0;entryDy=0;entryPerimeter=0;" edge="1" parent="1">
          <mxGeometry width="50" height="50" relative="1" as="geometry">
            <mxPoint x="240" y="970" as="sourcePoint" />
            <mxPoint x="240" y="680" as="targetPoint" />
          </mxGeometry>
        </mxCell>
        <mxCell id="zJRZKk28Td4YViQOvxbd-7" value="" style="endArrow=none;html=1;rounded=0;entryX=0;entryY=1;entryDx=0;entryDy=0;entryPerimeter=0;" edge="1" parent="1">
          <mxGeometry width="50" height="50" relative="1" as="geometry">
            <mxPoint x="440" y="970" as="sourcePoint" />
            <mxPoint x="440" y="680" as="targetPoint" />
          </mxGeometry>
        </mxCell>
        <mxCell id="zJRZKk28Td4YViQOvxbd-8" value="" style="endArrow=none;html=1;rounded=0;entryX=0;entryY=1;entryDx=0;entryDy=0;entryPerimeter=0;" edge="1" parent="1">
          <mxGeometry width="50" height="50" relative="1" as="geometry">
            <mxPoint x="660" y="970" as="sourcePoint" />
            <mxPoint x="660" y="680" as="targetPoint" />
          </mxGeometry>
        </mxCell>
        <mxCell id="zJRZKk28Td4YViQOvxbd-9" value="" style="endArrow=classic;html=1;rounded=0;" edge="1" parent="1">
          <mxGeometry width="50" height="50" relative="1" as="geometry">
            <mxPoint x="80" y="720" as="sourcePoint" />
            <mxPoint x="240" y="720" as="targetPoint" />
          </mxGeometry>
        </mxCell>
        <mxCell id="zJRZKk28Td4YViQOvxbd-10" value="запросить сборку&lt;br&gt;" style="text;html=1;align=center;verticalAlign=middle;resizable=0;points=[];autosize=1;strokeColor=none;fillColor=none;" vertex="1" parent="1">
          <mxGeometry x="90" y="718" width="120" height="30" as="geometry" />
        </mxCell>
        <mxCell id="zJRZKk28Td4YViQOvxbd-11" value="" style="endArrow=classic;html=1;rounded=0;" edge="1" parent="1">
          <mxGeometry width="50" height="50" relative="1" as="geometry">
            <mxPoint x="240" y="737" as="sourcePoint" />
            <mxPoint x="440" y="737" as="targetPoint" />
          </mxGeometry>
        </mxCell>
        <mxCell id="zJRZKk28Td4YViQOvxbd-12" value="передача заказа" style="text;html=1;align=center;verticalAlign=middle;resizable=0;points=[];autosize=1;strokeColor=none;fillColor=none;" vertex="1" parent="1">
          <mxGeometry x="260" y="738" width="120" height="30" as="geometry" />
        </mxCell>
        <mxCell id="zJRZKk28Td4YViQOvxbd-13" value="" style="endArrow=classic;html=1;rounded=0;" edge="1" parent="1">
          <mxGeometry width="50" height="50" relative="1" as="geometry">
            <mxPoint x="440" y="760" as="sourcePoint" />
            <mxPoint x="660" y="760" as="targetPoint" />
          </mxGeometry>
        </mxCell>
        <mxCell id="zJRZKk28Td4YViQOvxbd-14" value="запрос необходимых деталей&amp;nbsp;" style="text;html=1;align=center;verticalAlign=middle;resizable=0;points=[];autosize=1;strokeColor=none;fillColor=none;" vertex="1" parent="1">
          <mxGeometry x="440" y="768" width="200" height="30" as="geometry" />
        </mxCell>
        <mxCell id="zJRZKk28Td4YViQOvxbd-15" value="" style="endArrow=classic;html=1;rounded=0;" edge="1" parent="1">
          <mxGeometry width="50" height="50" relative="1" as="geometry">
            <mxPoint x="660" y="810" as="sourcePoint" />
            <mxPoint x="440" y="810" as="targetPoint" />
          </mxGeometry>
        </mxCell>
        <mxCell id="zJRZKk28Td4YViQOvxbd-16" value="передача заказанных деталей&lt;br&gt;" style="text;html=1;align=center;verticalAlign=middle;resizable=0;points=[];autosize=1;strokeColor=none;fillColor=none;" vertex="1" parent="1">
          <mxGeometry x="470" y="810" width="200" height="30" as="geometry" />
        </mxCell>
        <mxCell id="zJRZKk28Td4YViQOvxbd-17" value="" style="endArrow=classic;html=1;rounded=0;" edge="1" parent="1">
          <mxGeometry width="50" height="50" relative="1" as="geometry">
            <mxPoint x="440" y="900" as="sourcePoint" />
            <mxPoint x="240" y="900" as="targetPoint" />
          </mxGeometry>
        </mxCell>
        <mxCell id="zJRZKk28Td4YViQOvxbd-18" value="передача собранного ПК" style="text;html=1;align=center;verticalAlign=middle;resizable=0;points=[];autosize=1;strokeColor=none;fillColor=none;" vertex="1" parent="1">
          <mxGeometry x="270" y="910" width="160" height="30" as="geometry" />
        </mxCell>
        <mxCell id="zJRZKk28Td4YViQOvxbd-19" value="" style="endArrow=classic;html=1;rounded=0;" edge="1" parent="1">
          <mxGeometry width="50" height="50" relative="1" as="geometry">
            <mxPoint x="440" y="840" as="sourcePoint" />
            <mxPoint x="440" y="880" as="targetPoint" />
            <Array as="points">
              <mxPoint x="470" y="820" />
            </Array>
          </mxGeometry>
        </mxCell>
        <mxCell id="zJRZKk28Td4YViQOvxbd-20" value="сборка пк" style="text;html=1;align=center;verticalAlign=middle;resizable=0;points=[];autosize=1;strokeColor=none;fillColor=none;" vertex="1" parent="1">
          <mxGeometry x="450" y="840" width="80" height="30" as="geometry" />
        </mxCell>
        <mxCell id="zJRZKk28Td4YViQOvxbd-21" value="" style="endArrow=none;dashed=1;html=1;rounded=0;exitX=1;exitY=0.2;exitDx=0;exitDy=0;exitPerimeter=0;" edge="1" parent="1" source="PMIGXvwbld6Hk3hM6ihV-11">
          <mxGeometry width="50" height="50" relative="1" as="geometry">
            <mxPoint x="400" y="270" as="sourcePoint" />
            <mxPoint x="440" y="210" as="targetPoint" />
          </mxGeometry>
        </mxCell>
        <mxCell id="zJRZKk28Td4YViQOvxbd-22" value="" style="endArrow=none;dashed=1;html=1;dashPattern=1 3;strokeWidth=2;rounded=0;exitX=1.011;exitY=0.32;exitDx=0;exitDy=0;exitPerimeter=0;" edge="1" parent="1" source="PMIGXvwbld6Hk3hM6ihV-16">
          <mxGeometry width="50" height="50" relative="1" as="geometry">
            <mxPoint x="410" y="440" as="sourcePoint" />
            <mxPoint x="460" y="390" as="targetPoint" />
          </mxGeometry>
        </mxCell>
        <mxCell id="zJRZKk28Td4YViQOvxbd-24" value="Компания сборки" style="rounded=0;whiteSpace=wrap;html=1;" vertex="1" parent="1">
          <mxGeometry x="1070" y="220" width="120" height="60" as="geometry" />
        </mxCell>
        <mxCell id="zJRZKk28Td4YViQOvxbd-25" value="Клиент" style="rounded=0;whiteSpace=wrap;html=1;" vertex="1" parent="1">
          <mxGeometry x="690" y="220" width="120" height="60" as="geometry" />
        </mxCell>
        <mxCell id="zJRZKk28Td4YViQOvxbd-26" value="Бюджет" style="ellipse;whiteSpace=wrap;html=1;" vertex="1" parent="1">
          <mxGeometry x="690" y="120" width="100" height="60" as="geometry" />
        </mxCell>
        <mxCell id="zJRZKk28Td4YViQOvxbd-27" value="потребность" style="ellipse;whiteSpace=wrap;html=1;" vertex="1" parent="1">
          <mxGeometry x="560" y="225" width="80" height="50" as="geometry" />
        </mxCell>
        <mxCell id="zJRZKk28Td4YViQOvxbd-28" value="Данные&amp;nbsp;" style="ellipse;whiteSpace=wrap;html=1;" vertex="1" parent="1">
          <mxGeometry x="660" y="350" width="90" height="60" as="geometry" />
        </mxCell>
        <mxCell id="zJRZKk28Td4YViQOvxbd-30" value="" style="endArrow=none;html=1;rounded=0;entryX=0.5;entryY=1;entryDx=0;entryDy=0;" edge="1" parent="1" target="zJRZKk28Td4YViQOvxbd-26">
          <mxGeometry width="50" height="50" relative="1" as="geometry">
            <mxPoint x="710" y="220" as="sourcePoint" />
            <mxPoint x="760" y="170" as="targetPoint" />
          </mxGeometry>
        </mxCell>
        <mxCell id="zJRZKk28Td4YViQOvxbd-31" value="" style="endArrow=none;html=1;rounded=0;entryX=0;entryY=0.5;entryDx=0;entryDy=0;exitX=1;exitY=0.5;exitDx=0;exitDy=0;" edge="1" parent="1" source="zJRZKk28Td4YViQOvxbd-27" target="zJRZKk28Td4YViQOvxbd-25">
          <mxGeometry width="50" height="50" relative="1" as="geometry">
            <mxPoint x="590" y="360" as="sourcePoint" />
            <mxPoint x="640" y="310" as="targetPoint" />
          </mxGeometry>
        </mxCell>
        <mxCell id="zJRZKk28Td4YViQOvxbd-32" value="" style="endArrow=none;html=1;rounded=0;entryX=0.5;entryY=1;entryDx=0;entryDy=0;exitX=0.5;exitY=0;exitDx=0;exitDy=0;" edge="1" parent="1" source="zJRZKk28Td4YViQOvxbd-28" target="zJRZKk28Td4YViQOvxbd-25">
          <mxGeometry width="50" height="50" relative="1" as="geometry">
            <mxPoint x="640" y="390" as="sourcePoint" />
            <mxPoint x="690" y="340" as="targetPoint" />
          </mxGeometry>
        </mxCell>
        <mxCell id="zJRZKk28Td4YViQOvxbd-35" value="Комплектующие" style="ellipse;whiteSpace=wrap;html=1;" vertex="1" parent="1">
          <mxGeometry x="1100" y="100" width="100" height="60" as="geometry" />
        </mxCell>
        <mxCell id="zJRZKk28Td4YViQOvxbd-36" value="" style="endArrow=none;html=1;rounded=0;entryX=0.5;entryY=1;entryDx=0;entryDy=0;exitX=0.392;exitY=-0.05;exitDx=0;exitDy=0;exitPerimeter=0;" edge="1" parent="1" source="zJRZKk28Td4YViQOvxbd-24" target="zJRZKk28Td4YViQOvxbd-35">
          <mxGeometry width="50" height="50" relative="1" as="geometry">
            <mxPoint x="1110" y="210" as="sourcePoint" />
            <mxPoint x="1150" y="170" as="targetPoint" />
          </mxGeometry>
        </mxCell>
        <mxCell id="zJRZKk28Td4YViQOvxbd-37" value="Программное&lt;br&gt;обеспечение" style="ellipse;whiteSpace=wrap;html=1;" vertex="1" parent="1">
          <mxGeometry x="1090" y="320" width="100" height="60" as="geometry" />
        </mxCell>
        <mxCell id="zJRZKk28Td4YViQOvxbd-38" value="" style="endArrow=none;html=1;rounded=0;entryX=0.567;entryY=1.067;entryDx=0;entryDy=0;entryPerimeter=0;exitX=0.58;exitY=0.05;exitDx=0;exitDy=0;exitPerimeter=0;" edge="1" parent="1" source="zJRZKk28Td4YViQOvxbd-37" target="zJRZKk28Td4YViQOvxbd-24">
          <mxGeometry width="50" height="50" relative="1" as="geometry">
            <mxPoint x="1110" y="360" as="sourcePoint" />
            <mxPoint x="1160" y="310" as="targetPoint" />
          </mxGeometry>
        </mxCell>
        <mxCell id="zJRZKk28Td4YViQOvxbd-39" value="Готовые&amp;nbsp;&lt;br&gt;модели" style="ellipse;whiteSpace=wrap;html=1;" vertex="1" parent="1">
          <mxGeometry x="1260" y="240" width="90" height="60" as="geometry" />
        </mxCell>
        <mxCell id="zJRZKk28Td4YViQOvxbd-40" value="" style="endArrow=none;html=1;rounded=0;entryX=-0.033;entryY=0.4;entryDx=0;entryDy=0;entryPerimeter=0;" edge="1" parent="1" target="zJRZKk28Td4YViQOvxbd-39">
          <mxGeometry width="50" height="50" relative="1" as="geometry">
            <mxPoint x="1200" y="250" as="sourcePoint" />
            <mxPoint x="1250" y="210" as="targetPoint" />
          </mxGeometry>
        </mxCell>
        <mxCell id="UIrcGJfIoAwwAVPRjf31-1" value="" style="edgeStyle=entityRelationEdgeStyle;fontSize=12;html=1;endArrow=ERoneToMany;startArrow=ERoneToMany;rounded=0;exitX=1;exitY=0.5;exitDx=0;exitDy=0;entryX=0;entryY=0.5;entryDx=0;entryDy=0;" edge="1" parent="1" source="zJRZKk28Td4YViQOvxbd-23" target="zJRZKk28Td4YViQOvxbd-24">
          <mxGeometry width="100" height="100" relative="1" as="geometry">
            <mxPoint x="800" y="380" as="sourcePoint" />
            <mxPoint x="900" y="280" as="targetPoint" />
          </mxGeometry>
        </mxCell>
        <mxCell id="UIrcGJfIoAwwAVPRjf31-3" value="" style="edgeStyle=entityRelationEdgeStyle;fontSize=12;html=1;endArrow=ERoneToMany;startArrow=ERoneToMany;rounded=0;exitX=1;exitY=0.5;exitDx=0;exitDy=0;entryX=0;entryY=0.5;entryDx=0;entryDy=0;" edge="1" parent="1" source="zJRZKk28Td4YViQOvxbd-25" target="zJRZKk28Td4YViQOvxbd-23">
          <mxGeometry width="100" height="100" relative="1" as="geometry">
            <mxPoint x="810" y="250" as="sourcePoint" />
            <mxPoint x="1070" y="250" as="targetPoint" />
          </mxGeometry>
        </mxCell>
        <mxCell id="zJRZKk28Td4YViQOvxbd-23" value="Изучает&amp;nbsp;" style="rhombus;whiteSpace=wrap;html=1;" vertex="1" parent="1">
          <mxGeometry x="870" y="210" width="130" height="80" as="geometry" />
        </mxCell>
        <mxCell id="UIrcGJfIoAwwAVPRjf31-8" value="заказчик : entity" style="swimlane;fontStyle=1;align=center;verticalAlign=top;childLayout=stackLayout;horizontal=1;startSize=26;horizontalStack=0;resizeParent=1;resizeParentMax=0;resizeLast=0;collapsible=1;marginBottom=0;whiteSpace=wrap;html=1;" vertex="1" parent="1">
          <mxGeometry x="811" y="460" width="180" height="150" as="geometry" />
        </mxCell>
        <mxCell id="UIrcGJfIoAwwAVPRjf31-9" value="- ФИО String&lt;br&gt;-Бюджет: int&amp;nbsp;" style="text;strokeColor=none;fillColor=none;align=left;verticalAlign=top;spacingLeft=4;spacingRight=4;overflow=hidden;rotatable=0;points=[[0,0.5],[1,0.5]];portConstraint=eastwest;whiteSpace=wrap;html=1;" vertex="1" parent="UIrcGJfIoAwwAVPRjf31-8">
          <mxGeometry y="26" width="180" height="44" as="geometry" />
        </mxCell>
        <mxCell id="UIrcGJfIoAwwAVPRjf31-16" value="" style="endArrow=diamondThin;endFill=1;endSize=24;html=1;rounded=0;exitX=1;exitY=0.5;exitDx=0;exitDy=0;" edge="1" parent="UIrcGJfIoAwwAVPRjf31-8" source="UIrcGJfIoAwwAVPRjf31-9">
          <mxGeometry width="160" relative="1" as="geometry">
            <mxPoint x="160" y="60" as="sourcePoint" />
            <mxPoint x="320" y="60" as="targetPoint" />
          </mxGeometry>
        </mxCell>
        <mxCell id="UIrcGJfIoAwwAVPRjf31-10" value="" style="line;strokeWidth=1;fillColor=none;align=left;verticalAlign=middle;spacingTop=-1;spacingLeft=3;spacingRight=3;rotatable=0;labelPosition=right;points=[];portConstraint=eastwest;strokeColor=inherit;" vertex="1" parent="UIrcGJfIoAwwAVPRjf31-8">
          <mxGeometry y="70" width="180" height="8" as="geometry" />
        </mxCell>
        <mxCell id="UIrcGJfIoAwwAVPRjf31-11" value="+ выбратьКомплектующие()&lt;br&gt;+ добавитьВ_Заказ()&lt;br&gt;+ удалитьЗаказ()" style="text;strokeColor=none;fillColor=none;align=left;verticalAlign=top;spacingLeft=4;spacingRight=4;overflow=hidden;rotatable=0;points=[[0,0.5],[1,0.5]];portConstraint=eastwest;whiteSpace=wrap;html=1;" vertex="1" parent="UIrcGJfIoAwwAVPRjf31-8">
          <mxGeometry y="78" width="180" height="72" as="geometry" />
        </mxCell>
        <mxCell id="UIrcGJfIoAwwAVPRjf31-12" value="Компания сборки: entity" style="swimlane;fontStyle=1;align=center;verticalAlign=top;childLayout=stackLayout;horizontal=1;startSize=26;horizontalStack=0;resizeParent=1;resizeParentMax=0;resizeLast=0;collapsible=1;marginBottom=0;whiteSpace=wrap;html=1;" vertex="1" parent="1">
          <mxGeometry x="1130" y="460" width="180" height="150" as="geometry" />
        </mxCell>
        <mxCell id="UIrcGJfIoAwwAVPRjf31-13" value="- модель компьютера: String&lt;br&gt;- комплектующте: String" style="text;strokeColor=none;fillColor=none;align=left;verticalAlign=top;spacingLeft=4;spacingRight=4;overflow=hidden;rotatable=0;points=[[0,0.5],[1,0.5]];portConstraint=eastwest;whiteSpace=wrap;html=1;" vertex="1" parent="UIrcGJfIoAwwAVPRjf31-12">
          <mxGeometry y="26" width="180" height="44" as="geometry" />
        </mxCell>
        <mxCell id="UIrcGJfIoAwwAVPRjf31-15" value="+ добавитьМодель()&lt;br&gt;+ удалитьМодель()&lt;br&gt;+ добавитьКомплект()&lt;br&gt;+ удалитьКомплект()" style="text;strokeColor=none;fillColor=none;align=left;verticalAlign=top;spacingLeft=4;spacingRight=4;overflow=hidden;rotatable=0;points=[[0,0.5],[1,0.5]];portConstraint=eastwest;whiteSpace=wrap;html=1;" vertex="1" parent="UIrcGJfIoAwwAVPRjf31-12">
          <mxGeometry y="70" width="180" height="72" as="geometry" />
        </mxCell>
        <mxCell id="UIrcGJfIoAwwAVPRjf31-14" value="" style="line;strokeWidth=1;fillColor=none;align=left;verticalAlign=middle;spacingTop=-1;spacingLeft=3;spacingRight=3;rotatable=0;labelPosition=right;points=[];portConstraint=eastwest;strokeColor=inherit;" vertex="1" parent="UIrcGJfIoAwwAVPRjf31-12">
          <mxGeometry y="142" width="180" height="8" as="geometry" />
        </mxCell>
        <mxCell id="UIrcGJfIoAwwAVPRjf31-17" value="состоит из" style="text;html=1;align=center;verticalAlign=middle;resizable=0;points=[];autosize=1;strokeColor=none;fillColor=none;" vertex="1" parent="1">
          <mxGeometry x="1020" y="480" width="80" height="30" as="geometry" />
        </mxCell>
        <mxCell id="UIrcGJfIoAwwAVPRjf31-22" value="Продавец: entity" style="swimlane;fontStyle=1;align=center;verticalAlign=top;childLayout=stackLayout;horizontal=1;startSize=26;horizontalStack=0;resizeParent=1;resizeParentMax=0;resizeLast=0;collapsible=1;marginBottom=0;whiteSpace=wrap;html=1;" vertex="1" parent="1">
          <mxGeometry x="1000" y="757" width="160" height="96" as="geometry" />
        </mxCell>
        <mxCell id="UIrcGJfIoAwwAVPRjf31-46" value="" style="line;strokeWidth=1;rotatable=0;dashed=0;labelPosition=right;align=left;verticalAlign=middle;spacingTop=0;spacingLeft=6;points=[];portConstraint=eastwest;" vertex="1" parent="UIrcGJfIoAwwAVPRjf31-22">
          <mxGeometry y="26" width="160" height="10" as="geometry" />
        </mxCell>
        <mxCell id="UIrcGJfIoAwwAVPRjf31-23" value="- имя: String" style="text;strokeColor=none;fillColor=none;align=left;verticalAlign=top;spacingLeft=4;spacingRight=4;overflow=hidden;rotatable=0;points=[[0,0.5],[1,0.5]];portConstraint=eastwest;whiteSpace=wrap;html=1;" vertex="1" parent="UIrcGJfIoAwwAVPRjf31-22">
          <mxGeometry y="36" width="160" height="26" as="geometry" />
        </mxCell>
        <mxCell id="UIrcGJfIoAwwAVPRjf31-24" value="" style="line;strokeWidth=1;fillColor=none;align=left;verticalAlign=middle;spacingTop=-1;spacingLeft=3;spacingRight=3;rotatable=0;labelPosition=right;points=[];portConstraint=eastwest;strokeColor=inherit;" vertex="1" parent="UIrcGJfIoAwwAVPRjf31-22">
          <mxGeometry y="62" width="160" height="8" as="geometry" />
        </mxCell>
        <mxCell id="UIrcGJfIoAwwAVPRjf31-25" value="+ помочь()" style="text;strokeColor=none;fillColor=none;align=left;verticalAlign=top;spacingLeft=4;spacingRight=4;overflow=hidden;rotatable=0;points=[[0,0.5],[1,0.5]];portConstraint=eastwest;whiteSpace=wrap;html=1;" vertex="1" parent="UIrcGJfIoAwwAVPRjf31-22">
          <mxGeometry y="70" width="160" height="26" as="geometry" />
        </mxCell>
        <mxCell id="UIrcGJfIoAwwAVPRjf31-28" value="Работает" style="text;html=1;strokeColor=none;fillColor=none;align=center;verticalAlign=middle;whiteSpace=wrap;rounded=0;" vertex="1" parent="1">
          <mxGeometry x="1080" y="727" width="60" height="30" as="geometry" />
        </mxCell>
        <mxCell id="UIrcGJfIoAwwAVPRjf31-29" value="&lt;b&gt;Компьютер: entity&lt;/b&gt;" style="swimlane;fontStyle=0;childLayout=stackLayout;horizontal=1;startSize=26;fillColor=none;horizontalStack=0;resizeParent=1;resizeParentMax=0;resizeLast=0;collapsible=1;marginBottom=0;whiteSpace=wrap;html=1;" vertex="1" parent="1">
          <mxGeometry x="1270" y="756" width="160" height="104" as="geometry" />
        </mxCell>
        <mxCell id="UIrcGJfIoAwwAVPRjf31-30" value="- id: int" style="text;strokeColor=none;fillColor=none;align=left;verticalAlign=top;spacingLeft=4;spacingRight=4;overflow=hidden;rotatable=0;points=[[0,0.5],[1,0.5]];portConstraint=eastwest;whiteSpace=wrap;html=1;" vertex="1" parent="UIrcGJfIoAwwAVPRjf31-29">
          <mxGeometry y="26" width="160" height="26" as="geometry" />
        </mxCell>
        <mxCell id="UIrcGJfIoAwwAVPRjf31-31" value="- бренд: String" style="text;strokeColor=none;fillColor=none;align=left;verticalAlign=top;spacingLeft=4;spacingRight=4;overflow=hidden;rotatable=0;points=[[0,0.5],[1,0.5]];portConstraint=eastwest;whiteSpace=wrap;html=1;" vertex="1" parent="UIrcGJfIoAwwAVPRjf31-29">
          <mxGeometry y="52" width="160" height="26" as="geometry" />
        </mxCell>
        <mxCell id="UIrcGJfIoAwwAVPRjf31-32" value="- характеристика: String" style="text;strokeColor=none;fillColor=none;align=left;verticalAlign=top;spacingLeft=4;spacingRight=4;overflow=hidden;rotatable=0;points=[[0,0.5],[1,0.5]];portConstraint=eastwest;whiteSpace=wrap;html=1;" vertex="1" parent="UIrcGJfIoAwwAVPRjf31-29">
          <mxGeometry y="78" width="160" height="26" as="geometry" />
        </mxCell>
        <mxCell id="UIrcGJfIoAwwAVPRjf31-33" value="" style="endArrow=none;html=1;rounded=0;exitX=1;exitY=0.5;exitDx=0;exitDy=0;entryX=0;entryY=0.5;entryDx=0;entryDy=0;" edge="1" parent="1" source="UIrcGJfIoAwwAVPRjf31-23" target="UIrcGJfIoAwwAVPRjf31-30">
          <mxGeometry width="50" height="50" relative="1" as="geometry">
            <mxPoint x="1280" y="770" as="sourcePoint" />
            <mxPoint x="1330" y="720" as="targetPoint" />
          </mxGeometry>
        </mxCell>
        <mxCell id="UIrcGJfIoAwwAVPRjf31-34" value="Продаёт" style="text;html=1;strokeColor=none;fillColor=none;align=center;verticalAlign=middle;whiteSpace=wrap;rounded=0;" vertex="1" parent="1">
          <mxGeometry x="1160" y="770" width="60" height="30" as="geometry" />
        </mxCell>
        <mxCell id="UIrcGJfIoAwwAVPRjf31-37" value="Покупатель: entity" style="swimlane;fontStyle=1;align=center;verticalAlign=top;childLayout=stackLayout;horizontal=1;startSize=26;horizontalStack=0;resizeParent=1;resizeParentMax=0;resizeLast=0;collapsible=1;marginBottom=0;whiteSpace=wrap;html=1;" vertex="1" parent="1">
          <mxGeometry x="1500" y="660" width="160" height="100" as="geometry" />
        </mxCell>
        <mxCell id="UIrcGJfIoAwwAVPRjf31-38" value="- имя: String" style="text;strokeColor=none;fillColor=none;align=left;verticalAlign=top;spacingLeft=4;spacingRight=4;overflow=hidden;rotatable=0;points=[[0,0.5],[1,0.5]];portConstraint=eastwest;whiteSpace=wrap;html=1;" vertex="1" parent="UIrcGJfIoAwwAVPRjf31-37">
          <mxGeometry y="26" width="160" height="26" as="geometry" />
        </mxCell>
        <mxCell id="UIrcGJfIoAwwAVPRjf31-39" value="" style="line;strokeWidth=1;fillColor=none;align=left;verticalAlign=middle;spacingTop=-1;spacingLeft=3;spacingRight=3;rotatable=0;labelPosition=right;points=[];portConstraint=eastwest;strokeColor=inherit;" vertex="1" parent="UIrcGJfIoAwwAVPRjf31-37">
          <mxGeometry y="52" width="160" height="8" as="geometry" />
        </mxCell>
        <mxCell id="UIrcGJfIoAwwAVPRjf31-40" value="+ составитьЗаказ()&lt;br&gt;+ оплатить()" style="text;strokeColor=none;fillColor=none;align=left;verticalAlign=top;spacingLeft=4;spacingRight=4;overflow=hidden;rotatable=0;points=[[0,0.5],[1,0.5]];portConstraint=eastwest;whiteSpace=wrap;html=1;" vertex="1" parent="UIrcGJfIoAwwAVPRjf31-37">
          <mxGeometry y="60" width="160" height="40" as="geometry" />
        </mxCell>
        <mxCell id="UIrcGJfIoAwwAVPRjf31-41" value="" style="endArrow=none;html=1;rounded=0;entryX=0;entryY=0.5;entryDx=0;entryDy=0;exitX=1;exitY=0.5;exitDx=0;exitDy=0;" edge="1" parent="1" source="UIrcGJfIoAwwAVPRjf31-30" target="UIrcGJfIoAwwAVPRjf31-38">
          <mxGeometry width="50" height="50" relative="1" as="geometry">
            <mxPoint x="1430" y="720" as="sourcePoint" />
            <mxPoint x="1480" y="670" as="targetPoint" />
            <Array as="points">
              <mxPoint x="1470" y="795" />
              <mxPoint x="1470" y="699" />
            </Array>
          </mxGeometry>
        </mxCell>
        <mxCell id="UIrcGJfIoAwwAVPRjf31-42" value="Покупает" style="text;html=1;strokeColor=none;fillColor=none;align=center;verticalAlign=middle;whiteSpace=wrap;rounded=0;" vertex="1" parent="1">
          <mxGeometry x="1440" y="670" width="60" height="30" as="geometry" />
        </mxCell>
        <mxCell id="UIrcGJfIoAwwAVPRjf31-44" value="" style="endArrow=diamondThin;endFill=1;endSize=24;html=1;rounded=0;entryX=0.578;entryY=1.097;entryDx=0;entryDy=0;entryPerimeter=0;" edge="1" parent="1" target="UIrcGJfIoAwwAVPRjf31-11">
          <mxGeometry width="160" relative="1" as="geometry">
            <mxPoint x="1050" y="750" as="sourcePoint" />
            <mxPoint x="1160" y="730" as="targetPoint" />
          </mxGeometry>
        </mxCell>
        <mxCell id="UIrcGJfIoAwwAVPRjf31-47" value="" style="endArrow=none;html=1;rounded=0;" edge="1" parent="1">
          <mxGeometry width="50" height="50" relative="1" as="geometry">
            <mxPoint x="1300" y="750" as="sourcePoint" />
            <mxPoint x="1250" y="610" as="targetPoint" />
          </mxGeometry>
        </mxCell>
      </root>
    </mxGraphModel>
  </diagram>
  <diagram id="GZAmaHN2cJmVkWd4W41g" name="Страница 7">
    <mxGraphModel dx="1285" dy="647" grid="1" gridSize="10" guides="1" tooltips="1" connect="1" arrows="1" fold="1" page="1" pageScale="1" pageWidth="3300" pageHeight="4681" math="0" shadow="0">
      <root>
        <mxCell id="0" />
        <mxCell id="1" parent="0" />
        <mxCell id="m7ey02A2FV9EOtOhvZ2l-1" value="Заказчик" style="shape=table;startSize=30;container=1;collapsible=1;childLayout=tableLayout;fixedRows=1;rowLines=0;fontStyle=1;align=center;resizeLast=1;html=1;" vertex="1" parent="1">
          <mxGeometry x="100" y="230" width="180" height="150" as="geometry" />
        </mxCell>
        <mxCell id="m7ey02A2FV9EOtOhvZ2l-2" value="" style="shape=tableRow;horizontal=0;startSize=0;swimlaneHead=0;swimlaneBody=0;fillColor=none;collapsible=0;dropTarget=0;points=[[0,0.5],[1,0.5]];portConstraint=eastwest;top=0;left=0;right=0;bottom=1;" vertex="1" parent="m7ey02A2FV9EOtOhvZ2l-1">
          <mxGeometry y="30" width="180" height="30" as="geometry" />
        </mxCell>
        <mxCell id="m7ey02A2FV9EOtOhvZ2l-3" value="PK" style="shape=partialRectangle;connectable=0;fillColor=none;top=0;left=0;bottom=0;right=0;fontStyle=1;overflow=hidden;whiteSpace=wrap;html=1;" vertex="1" parent="m7ey02A2FV9EOtOhvZ2l-2">
          <mxGeometry width="30" height="30" as="geometry">
            <mxRectangle width="30" height="30" as="alternateBounds" />
          </mxGeometry>
        </mxCell>
        <mxCell id="m7ey02A2FV9EOtOhvZ2l-4" value="UniqueID" style="shape=partialRectangle;connectable=0;fillColor=none;top=0;left=0;bottom=0;right=0;align=left;spacingLeft=6;fontStyle=5;overflow=hidden;whiteSpace=wrap;html=1;" vertex="1" parent="m7ey02A2FV9EOtOhvZ2l-2">
          <mxGeometry x="30" width="150" height="30" as="geometry">
            <mxRectangle width="150" height="30" as="alternateBounds" />
          </mxGeometry>
        </mxCell>
        <mxCell id="m7ey02A2FV9EOtOhvZ2l-5" value="" style="shape=tableRow;horizontal=0;startSize=0;swimlaneHead=0;swimlaneBody=0;fillColor=none;collapsible=0;dropTarget=0;points=[[0,0.5],[1,0.5]];portConstraint=eastwest;top=0;left=0;right=0;bottom=0;" vertex="1" parent="m7ey02A2FV9EOtOhvZ2l-1">
          <mxGeometry y="60" width="180" height="30" as="geometry" />
        </mxCell>
        <mxCell id="m7ey02A2FV9EOtOhvZ2l-6" value="" style="shape=partialRectangle;connectable=0;fillColor=none;top=0;left=0;bottom=0;right=0;editable=1;overflow=hidden;whiteSpace=wrap;html=1;" vertex="1" parent="m7ey02A2FV9EOtOhvZ2l-5">
          <mxGeometry width="30" height="30" as="geometry">
            <mxRectangle width="30" height="30" as="alternateBounds" />
          </mxGeometry>
        </mxCell>
        <mxCell id="m7ey02A2FV9EOtOhvZ2l-7" value="ФИО" style="shape=partialRectangle;connectable=0;fillColor=none;top=0;left=0;bottom=0;right=0;align=left;spacingLeft=6;overflow=hidden;whiteSpace=wrap;html=1;" vertex="1" parent="m7ey02A2FV9EOtOhvZ2l-5">
          <mxGeometry x="30" width="150" height="30" as="geometry">
            <mxRectangle width="150" height="30" as="alternateBounds" />
          </mxGeometry>
        </mxCell>
        <mxCell id="m7ey02A2FV9EOtOhvZ2l-8" value="" style="shape=tableRow;horizontal=0;startSize=0;swimlaneHead=0;swimlaneBody=0;fillColor=none;collapsible=0;dropTarget=0;points=[[0,0.5],[1,0.5]];portConstraint=eastwest;top=0;left=0;right=0;bottom=0;" vertex="1" parent="m7ey02A2FV9EOtOhvZ2l-1">
          <mxGeometry y="90" width="180" height="30" as="geometry" />
        </mxCell>
        <mxCell id="m7ey02A2FV9EOtOhvZ2l-9" value="" style="shape=partialRectangle;connectable=0;fillColor=none;top=0;left=0;bottom=0;right=0;editable=1;overflow=hidden;whiteSpace=wrap;html=1;" vertex="1" parent="m7ey02A2FV9EOtOhvZ2l-8">
          <mxGeometry width="30" height="30" as="geometry">
            <mxRectangle width="30" height="30" as="alternateBounds" />
          </mxGeometry>
        </mxCell>
        <mxCell id="m7ey02A2FV9EOtOhvZ2l-10" value="Бюджет" style="shape=partialRectangle;connectable=0;fillColor=none;top=0;left=0;bottom=0;right=0;align=left;spacingLeft=6;overflow=hidden;whiteSpace=wrap;html=1;" vertex="1" parent="m7ey02A2FV9EOtOhvZ2l-8">
          <mxGeometry x="30" width="150" height="30" as="geometry">
            <mxRectangle width="150" height="30" as="alternateBounds" />
          </mxGeometry>
        </mxCell>
        <mxCell id="m7ey02A2FV9EOtOhvZ2l-11" value="" style="shape=tableRow;horizontal=0;startSize=0;swimlaneHead=0;swimlaneBody=0;fillColor=none;collapsible=0;dropTarget=0;points=[[0,0.5],[1,0.5]];portConstraint=eastwest;top=0;left=0;right=0;bottom=0;" vertex="1" parent="m7ey02A2FV9EOtOhvZ2l-1">
          <mxGeometry y="120" width="180" height="30" as="geometry" />
        </mxCell>
        <mxCell id="m7ey02A2FV9EOtOhvZ2l-12" value="" style="shape=partialRectangle;connectable=0;fillColor=none;top=0;left=0;bottom=0;right=0;editable=1;overflow=hidden;whiteSpace=wrap;html=1;" vertex="1" parent="m7ey02A2FV9EOtOhvZ2l-11">
          <mxGeometry width="30" height="30" as="geometry">
            <mxRectangle width="30" height="30" as="alternateBounds" />
          </mxGeometry>
        </mxCell>
        <mxCell id="m7ey02A2FV9EOtOhvZ2l-13" value="Запрос" style="shape=partialRectangle;connectable=0;fillColor=none;top=0;left=0;bottom=0;right=0;align=left;spacingLeft=6;overflow=hidden;whiteSpace=wrap;html=1;" vertex="1" parent="m7ey02A2FV9EOtOhvZ2l-11">
          <mxGeometry x="30" width="150" height="30" as="geometry">
            <mxRectangle width="150" height="30" as="alternateBounds" />
          </mxGeometry>
        </mxCell>
        <mxCell id="m7ey02A2FV9EOtOhvZ2l-14" value="Заказ" style="shape=table;startSize=30;container=1;collapsible=1;childLayout=tableLayout;fixedRows=1;rowLines=0;fontStyle=1;align=center;resizeLast=1;html=1;" vertex="1" parent="1">
          <mxGeometry x="350" y="230" width="180" height="150" as="geometry" />
        </mxCell>
        <mxCell id="m7ey02A2FV9EOtOhvZ2l-15" value="" style="shape=tableRow;horizontal=0;startSize=0;swimlaneHead=0;swimlaneBody=0;fillColor=none;collapsible=0;dropTarget=0;points=[[0,0.5],[1,0.5]];portConstraint=eastwest;top=0;left=0;right=0;bottom=1;" vertex="1" parent="m7ey02A2FV9EOtOhvZ2l-14">
          <mxGeometry y="30" width="180" height="30" as="geometry" />
        </mxCell>
        <mxCell id="m7ey02A2FV9EOtOhvZ2l-16" value="PK" style="shape=partialRectangle;connectable=0;fillColor=none;top=0;left=0;bottom=0;right=0;fontStyle=1;overflow=hidden;whiteSpace=wrap;html=1;" vertex="1" parent="m7ey02A2FV9EOtOhvZ2l-15">
          <mxGeometry width="30" height="30" as="geometry">
            <mxRectangle width="30" height="30" as="alternateBounds" />
          </mxGeometry>
        </mxCell>
        <mxCell id="m7ey02A2FV9EOtOhvZ2l-17" value="UniqueID" style="shape=partialRectangle;connectable=0;fillColor=none;top=0;left=0;bottom=0;right=0;align=left;spacingLeft=6;fontStyle=5;overflow=hidden;whiteSpace=wrap;html=1;" vertex="1" parent="m7ey02A2FV9EOtOhvZ2l-15">
          <mxGeometry x="30" width="150" height="30" as="geometry">
            <mxRectangle width="150" height="30" as="alternateBounds" />
          </mxGeometry>
        </mxCell>
        <mxCell id="m7ey02A2FV9EOtOhvZ2l-18" value="" style="shape=tableRow;horizontal=0;startSize=0;swimlaneHead=0;swimlaneBody=0;fillColor=none;collapsible=0;dropTarget=0;points=[[0,0.5],[1,0.5]];portConstraint=eastwest;top=0;left=0;right=0;bottom=0;" vertex="1" parent="m7ey02A2FV9EOtOhvZ2l-14">
          <mxGeometry y="60" width="180" height="30" as="geometry" />
        </mxCell>
        <mxCell id="m7ey02A2FV9EOtOhvZ2l-19" value="" style="shape=partialRectangle;connectable=0;fillColor=none;top=0;left=0;bottom=0;right=0;editable=1;overflow=hidden;whiteSpace=wrap;html=1;" vertex="1" parent="m7ey02A2FV9EOtOhvZ2l-18">
          <mxGeometry width="30" height="30" as="geometry">
            <mxRectangle width="30" height="30" as="alternateBounds" />
          </mxGeometry>
        </mxCell>
        <mxCell id="m7ey02A2FV9EOtOhvZ2l-20" value="Комплектующие" style="shape=partialRectangle;connectable=0;fillColor=none;top=0;left=0;bottom=0;right=0;align=left;spacingLeft=6;overflow=hidden;whiteSpace=wrap;html=1;" vertex="1" parent="m7ey02A2FV9EOtOhvZ2l-18">
          <mxGeometry x="30" width="150" height="30" as="geometry">
            <mxRectangle width="150" height="30" as="alternateBounds" />
          </mxGeometry>
        </mxCell>
        <mxCell id="m7ey02A2FV9EOtOhvZ2l-21" value="" style="shape=tableRow;horizontal=0;startSize=0;swimlaneHead=0;swimlaneBody=0;fillColor=none;collapsible=0;dropTarget=0;points=[[0,0.5],[1,0.5]];portConstraint=eastwest;top=0;left=0;right=0;bottom=0;" vertex="1" parent="m7ey02A2FV9EOtOhvZ2l-14">
          <mxGeometry y="90" width="180" height="30" as="geometry" />
        </mxCell>
        <mxCell id="m7ey02A2FV9EOtOhvZ2l-22" value="" style="shape=partialRectangle;connectable=0;fillColor=none;top=0;left=0;bottom=0;right=0;editable=1;overflow=hidden;whiteSpace=wrap;html=1;" vertex="1" parent="m7ey02A2FV9EOtOhvZ2l-21">
          <mxGeometry width="30" height="30" as="geometry">
            <mxRectangle width="30" height="30" as="alternateBounds" />
          </mxGeometry>
        </mxCell>
        <mxCell id="m7ey02A2FV9EOtOhvZ2l-23" value="Цена" style="shape=partialRectangle;connectable=0;fillColor=none;top=0;left=0;bottom=0;right=0;align=left;spacingLeft=6;overflow=hidden;whiteSpace=wrap;html=1;" vertex="1" parent="m7ey02A2FV9EOtOhvZ2l-21">
          <mxGeometry x="30" width="150" height="30" as="geometry">
            <mxRectangle width="150" height="30" as="alternateBounds" />
          </mxGeometry>
        </mxCell>
        <mxCell id="m7ey02A2FV9EOtOhvZ2l-24" value="" style="shape=tableRow;horizontal=0;startSize=0;swimlaneHead=0;swimlaneBody=0;fillColor=none;collapsible=0;dropTarget=0;points=[[0,0.5],[1,0.5]];portConstraint=eastwest;top=0;left=0;right=0;bottom=0;" vertex="1" parent="m7ey02A2FV9EOtOhvZ2l-14">
          <mxGeometry y="120" width="180" height="30" as="geometry" />
        </mxCell>
        <mxCell id="m7ey02A2FV9EOtOhvZ2l-25" value="" style="shape=partialRectangle;connectable=0;fillColor=none;top=0;left=0;bottom=0;right=0;editable=1;overflow=hidden;whiteSpace=wrap;html=1;" vertex="1" parent="m7ey02A2FV9EOtOhvZ2l-24">
          <mxGeometry width="30" height="30" as="geometry">
            <mxRectangle width="30" height="30" as="alternateBounds" />
          </mxGeometry>
        </mxCell>
        <mxCell id="m7ey02A2FV9EOtOhvZ2l-26" value="срок готовности" style="shape=partialRectangle;connectable=0;fillColor=none;top=0;left=0;bottom=0;right=0;align=left;spacingLeft=6;overflow=hidden;whiteSpace=wrap;html=1;" vertex="1" parent="m7ey02A2FV9EOtOhvZ2l-24">
          <mxGeometry x="30" width="150" height="30" as="geometry">
            <mxRectangle width="150" height="30" as="alternateBounds" />
          </mxGeometry>
        </mxCell>
        <mxCell id="m7ey02A2FV9EOtOhvZ2l-27" value="Компания" style="shape=table;startSize=30;container=1;collapsible=1;childLayout=tableLayout;fixedRows=1;rowLines=0;fontStyle=1;align=center;resizeLast=1;html=1;" vertex="1" parent="1">
          <mxGeometry x="880" y="230" width="180" height="150" as="geometry" />
        </mxCell>
        <mxCell id="m7ey02A2FV9EOtOhvZ2l-28" value="" style="shape=tableRow;horizontal=0;startSize=0;swimlaneHead=0;swimlaneBody=0;fillColor=none;collapsible=0;dropTarget=0;points=[[0,0.5],[1,0.5]];portConstraint=eastwest;top=0;left=0;right=0;bottom=1;" vertex="1" parent="m7ey02A2FV9EOtOhvZ2l-27">
          <mxGeometry y="30" width="180" height="30" as="geometry" />
        </mxCell>
        <mxCell id="m7ey02A2FV9EOtOhvZ2l-29" value="PK" style="shape=partialRectangle;connectable=0;fillColor=none;top=0;left=0;bottom=0;right=0;fontStyle=1;overflow=hidden;whiteSpace=wrap;html=1;" vertex="1" parent="m7ey02A2FV9EOtOhvZ2l-28">
          <mxGeometry width="30" height="30" as="geometry">
            <mxRectangle width="30" height="30" as="alternateBounds" />
          </mxGeometry>
        </mxCell>
        <mxCell id="m7ey02A2FV9EOtOhvZ2l-30" value="UniqueID" style="shape=partialRectangle;connectable=0;fillColor=none;top=0;left=0;bottom=0;right=0;align=left;spacingLeft=6;fontStyle=5;overflow=hidden;whiteSpace=wrap;html=1;" vertex="1" parent="m7ey02A2FV9EOtOhvZ2l-28">
          <mxGeometry x="30" width="150" height="30" as="geometry">
            <mxRectangle width="150" height="30" as="alternateBounds" />
          </mxGeometry>
        </mxCell>
        <mxCell id="m7ey02A2FV9EOtOhvZ2l-31" value="" style="shape=tableRow;horizontal=0;startSize=0;swimlaneHead=0;swimlaneBody=0;fillColor=none;collapsible=0;dropTarget=0;points=[[0,0.5],[1,0.5]];portConstraint=eastwest;top=0;left=0;right=0;bottom=0;" vertex="1" parent="m7ey02A2FV9EOtOhvZ2l-27">
          <mxGeometry y="60" width="180" height="30" as="geometry" />
        </mxCell>
        <mxCell id="m7ey02A2FV9EOtOhvZ2l-32" value="" style="shape=partialRectangle;connectable=0;fillColor=none;top=0;left=0;bottom=0;right=0;editable=1;overflow=hidden;whiteSpace=wrap;html=1;" vertex="1" parent="m7ey02A2FV9EOtOhvZ2l-31">
          <mxGeometry width="30" height="30" as="geometry">
            <mxRectangle width="30" height="30" as="alternateBounds" />
          </mxGeometry>
        </mxCell>
        <mxCell id="m7ey02A2FV9EOtOhvZ2l-33" value="Название" style="shape=partialRectangle;connectable=0;fillColor=none;top=0;left=0;bottom=0;right=0;align=left;spacingLeft=6;overflow=hidden;whiteSpace=wrap;html=1;" vertex="1" parent="m7ey02A2FV9EOtOhvZ2l-31">
          <mxGeometry x="30" width="150" height="30" as="geometry">
            <mxRectangle width="150" height="30" as="alternateBounds" />
          </mxGeometry>
        </mxCell>
        <mxCell id="m7ey02A2FV9EOtOhvZ2l-34" value="" style="shape=tableRow;horizontal=0;startSize=0;swimlaneHead=0;swimlaneBody=0;fillColor=none;collapsible=0;dropTarget=0;points=[[0,0.5],[1,0.5]];portConstraint=eastwest;top=0;left=0;right=0;bottom=0;" vertex="1" parent="m7ey02A2FV9EOtOhvZ2l-27">
          <mxGeometry y="90" width="180" height="30" as="geometry" />
        </mxCell>
        <mxCell id="m7ey02A2FV9EOtOhvZ2l-35" value="" style="shape=partialRectangle;connectable=0;fillColor=none;top=0;left=0;bottom=0;right=0;editable=1;overflow=hidden;whiteSpace=wrap;html=1;" vertex="1" parent="m7ey02A2FV9EOtOhvZ2l-34">
          <mxGeometry width="30" height="30" as="geometry">
            <mxRectangle width="30" height="30" as="alternateBounds" />
          </mxGeometry>
        </mxCell>
        <mxCell id="m7ey02A2FV9EOtOhvZ2l-36" value="Готовые модели" style="shape=partialRectangle;connectable=0;fillColor=none;top=0;left=0;bottom=0;right=0;align=left;spacingLeft=6;overflow=hidden;whiteSpace=wrap;html=1;" vertex="1" parent="m7ey02A2FV9EOtOhvZ2l-34">
          <mxGeometry x="30" width="150" height="30" as="geometry">
            <mxRectangle width="150" height="30" as="alternateBounds" />
          </mxGeometry>
        </mxCell>
        <mxCell id="m7ey02A2FV9EOtOhvZ2l-37" value="" style="shape=tableRow;horizontal=0;startSize=0;swimlaneHead=0;swimlaneBody=0;fillColor=none;collapsible=0;dropTarget=0;points=[[0,0.5],[1,0.5]];portConstraint=eastwest;top=0;left=0;right=0;bottom=0;" vertex="1" parent="m7ey02A2FV9EOtOhvZ2l-27">
          <mxGeometry y="120" width="180" height="30" as="geometry" />
        </mxCell>
        <mxCell id="m7ey02A2FV9EOtOhvZ2l-38" value="" style="shape=partialRectangle;connectable=0;fillColor=none;top=0;left=0;bottom=0;right=0;editable=1;overflow=hidden;whiteSpace=wrap;html=1;" vertex="1" parent="m7ey02A2FV9EOtOhvZ2l-37">
          <mxGeometry width="30" height="30" as="geometry">
            <mxRectangle width="30" height="30" as="alternateBounds" />
          </mxGeometry>
        </mxCell>
        <mxCell id="m7ey02A2FV9EOtOhvZ2l-39" value="Комплектующие" style="shape=partialRectangle;connectable=0;fillColor=none;top=0;left=0;bottom=0;right=0;align=left;spacingLeft=6;overflow=hidden;whiteSpace=wrap;html=1;" vertex="1" parent="m7ey02A2FV9EOtOhvZ2l-37">
          <mxGeometry x="30" width="150" height="30" as="geometry">
            <mxRectangle width="150" height="30" as="alternateBounds" />
          </mxGeometry>
        </mxCell>
        <mxCell id="m7ey02A2FV9EOtOhvZ2l-40" value="Команда сборки" style="shape=table;startSize=30;container=1;collapsible=1;childLayout=tableLayout;fixedRows=1;rowLines=0;fontStyle=1;align=center;resizeLast=1;html=1;" vertex="1" parent="1">
          <mxGeometry x="880" y="470" width="180" height="150" as="geometry" />
        </mxCell>
        <mxCell id="m7ey02A2FV9EOtOhvZ2l-41" value="" style="shape=tableRow;horizontal=0;startSize=0;swimlaneHead=0;swimlaneBody=0;fillColor=none;collapsible=0;dropTarget=0;points=[[0,0.5],[1,0.5]];portConstraint=eastwest;top=0;left=0;right=0;bottom=1;" vertex="1" parent="m7ey02A2FV9EOtOhvZ2l-40">
          <mxGeometry y="30" width="180" height="30" as="geometry" />
        </mxCell>
        <mxCell id="m7ey02A2FV9EOtOhvZ2l-42" value="PK" style="shape=partialRectangle;connectable=0;fillColor=none;top=0;left=0;bottom=0;right=0;fontStyle=1;overflow=hidden;whiteSpace=wrap;html=1;" vertex="1" parent="m7ey02A2FV9EOtOhvZ2l-41">
          <mxGeometry width="30" height="30" as="geometry">
            <mxRectangle width="30" height="30" as="alternateBounds" />
          </mxGeometry>
        </mxCell>
        <mxCell id="m7ey02A2FV9EOtOhvZ2l-43" value="UniqueID" style="shape=partialRectangle;connectable=0;fillColor=none;top=0;left=0;bottom=0;right=0;align=left;spacingLeft=6;fontStyle=5;overflow=hidden;whiteSpace=wrap;html=1;" vertex="1" parent="m7ey02A2FV9EOtOhvZ2l-41">
          <mxGeometry x="30" width="150" height="30" as="geometry">
            <mxRectangle width="150" height="30" as="alternateBounds" />
          </mxGeometry>
        </mxCell>
        <mxCell id="m7ey02A2FV9EOtOhvZ2l-44" value="" style="shape=tableRow;horizontal=0;startSize=0;swimlaneHead=0;swimlaneBody=0;fillColor=none;collapsible=0;dropTarget=0;points=[[0,0.5],[1,0.5]];portConstraint=eastwest;top=0;left=0;right=0;bottom=0;" vertex="1" parent="m7ey02A2FV9EOtOhvZ2l-40">
          <mxGeometry y="60" width="180" height="30" as="geometry" />
        </mxCell>
        <mxCell id="m7ey02A2FV9EOtOhvZ2l-45" value="" style="shape=partialRectangle;connectable=0;fillColor=none;top=0;left=0;bottom=0;right=0;editable=1;overflow=hidden;whiteSpace=wrap;html=1;" vertex="1" parent="m7ey02A2FV9EOtOhvZ2l-44">
          <mxGeometry width="30" height="30" as="geometry">
            <mxRectangle width="30" height="30" as="alternateBounds" />
          </mxGeometry>
        </mxCell>
        <mxCell id="m7ey02A2FV9EOtOhvZ2l-46" value="Сроки сборки" style="shape=partialRectangle;connectable=0;fillColor=none;top=0;left=0;bottom=0;right=0;align=left;spacingLeft=6;overflow=hidden;whiteSpace=wrap;html=1;" vertex="1" parent="m7ey02A2FV9EOtOhvZ2l-44">
          <mxGeometry x="30" width="150" height="30" as="geometry">
            <mxRectangle width="150" height="30" as="alternateBounds" />
          </mxGeometry>
        </mxCell>
        <mxCell id="m7ey02A2FV9EOtOhvZ2l-47" value="" style="shape=tableRow;horizontal=0;startSize=0;swimlaneHead=0;swimlaneBody=0;fillColor=none;collapsible=0;dropTarget=0;points=[[0,0.5],[1,0.5]];portConstraint=eastwest;top=0;left=0;right=0;bottom=0;" vertex="1" parent="m7ey02A2FV9EOtOhvZ2l-40">
          <mxGeometry y="90" width="180" height="30" as="geometry" />
        </mxCell>
        <mxCell id="m7ey02A2FV9EOtOhvZ2l-48" value="" style="shape=partialRectangle;connectable=0;fillColor=none;top=0;left=0;bottom=0;right=0;editable=1;overflow=hidden;whiteSpace=wrap;html=1;" vertex="1" parent="m7ey02A2FV9EOtOhvZ2l-47">
          <mxGeometry width="30" height="30" as="geometry">
            <mxRectangle width="30" height="30" as="alternateBounds" />
          </mxGeometry>
        </mxCell>
        <mxCell id="m7ey02A2FV9EOtOhvZ2l-49" value="Необходимое ПО" style="shape=partialRectangle;connectable=0;fillColor=none;top=0;left=0;bottom=0;right=0;align=left;spacingLeft=6;overflow=hidden;whiteSpace=wrap;html=1;" vertex="1" parent="m7ey02A2FV9EOtOhvZ2l-47">
          <mxGeometry x="30" width="150" height="30" as="geometry">
            <mxRectangle width="150" height="30" as="alternateBounds" />
          </mxGeometry>
        </mxCell>
        <mxCell id="m7ey02A2FV9EOtOhvZ2l-50" value="" style="shape=tableRow;horizontal=0;startSize=0;swimlaneHead=0;swimlaneBody=0;fillColor=none;collapsible=0;dropTarget=0;points=[[0,0.5],[1,0.5]];portConstraint=eastwest;top=0;left=0;right=0;bottom=0;" vertex="1" parent="m7ey02A2FV9EOtOhvZ2l-40">
          <mxGeometry y="120" width="180" height="30" as="geometry" />
        </mxCell>
        <mxCell id="m7ey02A2FV9EOtOhvZ2l-51" value="" style="shape=partialRectangle;connectable=0;fillColor=none;top=0;left=0;bottom=0;right=0;editable=1;overflow=hidden;whiteSpace=wrap;html=1;" vertex="1" parent="m7ey02A2FV9EOtOhvZ2l-50">
          <mxGeometry width="30" height="30" as="geometry">
            <mxRectangle width="30" height="30" as="alternateBounds" />
          </mxGeometry>
        </mxCell>
        <mxCell id="m7ey02A2FV9EOtOhvZ2l-52" value="" style="shape=partialRectangle;connectable=0;fillColor=none;top=0;left=0;bottom=0;right=0;align=left;spacingLeft=6;overflow=hidden;whiteSpace=wrap;html=1;" vertex="1" parent="m7ey02A2FV9EOtOhvZ2l-50">
          <mxGeometry x="30" width="150" height="30" as="geometry">
            <mxRectangle width="150" height="30" as="alternateBounds" />
          </mxGeometry>
        </mxCell>
        <mxCell id="m7ey02A2FV9EOtOhvZ2l-53" value="Менеджер" style="shape=table;startSize=30;container=1;collapsible=1;childLayout=tableLayout;fixedRows=1;rowLines=0;fontStyle=1;align=center;resizeLast=1;html=1;" vertex="1" parent="1">
          <mxGeometry x="610" y="230" width="180" height="150" as="geometry" />
        </mxCell>
        <mxCell id="m7ey02A2FV9EOtOhvZ2l-54" value="" style="shape=tableRow;horizontal=0;startSize=0;swimlaneHead=0;swimlaneBody=0;fillColor=none;collapsible=0;dropTarget=0;points=[[0,0.5],[1,0.5]];portConstraint=eastwest;top=0;left=0;right=0;bottom=1;" vertex="1" parent="m7ey02A2FV9EOtOhvZ2l-53">
          <mxGeometry y="30" width="180" height="30" as="geometry" />
        </mxCell>
        <mxCell id="m7ey02A2FV9EOtOhvZ2l-55" value="PK" style="shape=partialRectangle;connectable=0;fillColor=none;top=0;left=0;bottom=0;right=0;fontStyle=1;overflow=hidden;whiteSpace=wrap;html=1;" vertex="1" parent="m7ey02A2FV9EOtOhvZ2l-54">
          <mxGeometry width="30" height="30" as="geometry">
            <mxRectangle width="30" height="30" as="alternateBounds" />
          </mxGeometry>
        </mxCell>
        <mxCell id="m7ey02A2FV9EOtOhvZ2l-56" value="UniqueID" style="shape=partialRectangle;connectable=0;fillColor=none;top=0;left=0;bottom=0;right=0;align=left;spacingLeft=6;fontStyle=5;overflow=hidden;whiteSpace=wrap;html=1;" vertex="1" parent="m7ey02A2FV9EOtOhvZ2l-54">
          <mxGeometry x="30" width="150" height="30" as="geometry">
            <mxRectangle width="150" height="30" as="alternateBounds" />
          </mxGeometry>
        </mxCell>
        <mxCell id="m7ey02A2FV9EOtOhvZ2l-57" value="" style="shape=tableRow;horizontal=0;startSize=0;swimlaneHead=0;swimlaneBody=0;fillColor=none;collapsible=0;dropTarget=0;points=[[0,0.5],[1,0.5]];portConstraint=eastwest;top=0;left=0;right=0;bottom=0;" vertex="1" parent="m7ey02A2FV9EOtOhvZ2l-53">
          <mxGeometry y="60" width="180" height="30" as="geometry" />
        </mxCell>
        <mxCell id="m7ey02A2FV9EOtOhvZ2l-58" value="" style="shape=partialRectangle;connectable=0;fillColor=none;top=0;left=0;bottom=0;right=0;editable=1;overflow=hidden;whiteSpace=wrap;html=1;" vertex="1" parent="m7ey02A2FV9EOtOhvZ2l-57">
          <mxGeometry width="30" height="30" as="geometry">
            <mxRectangle width="30" height="30" as="alternateBounds" />
          </mxGeometry>
        </mxCell>
        <mxCell id="m7ey02A2FV9EOtOhvZ2l-59" value="ФИО" style="shape=partialRectangle;connectable=0;fillColor=none;top=0;left=0;bottom=0;right=0;align=left;spacingLeft=6;overflow=hidden;whiteSpace=wrap;html=1;" vertex="1" parent="m7ey02A2FV9EOtOhvZ2l-57">
          <mxGeometry x="30" width="150" height="30" as="geometry">
            <mxRectangle width="150" height="30" as="alternateBounds" />
          </mxGeometry>
        </mxCell>
        <mxCell id="m7ey02A2FV9EOtOhvZ2l-60" value="" style="shape=tableRow;horizontal=0;startSize=0;swimlaneHead=0;swimlaneBody=0;fillColor=none;collapsible=0;dropTarget=0;points=[[0,0.5],[1,0.5]];portConstraint=eastwest;top=0;left=0;right=0;bottom=0;" vertex="1" parent="m7ey02A2FV9EOtOhvZ2l-53">
          <mxGeometry y="90" width="180" height="30" as="geometry" />
        </mxCell>
        <mxCell id="m7ey02A2FV9EOtOhvZ2l-61" value="" style="shape=partialRectangle;connectable=0;fillColor=none;top=0;left=0;bottom=0;right=0;editable=1;overflow=hidden;whiteSpace=wrap;html=1;" vertex="1" parent="m7ey02A2FV9EOtOhvZ2l-60">
          <mxGeometry width="30" height="30" as="geometry">
            <mxRectangle width="30" height="30" as="alternateBounds" />
          </mxGeometry>
        </mxCell>
        <mxCell id="m7ey02A2FV9EOtOhvZ2l-62" value="заказ" style="shape=partialRectangle;connectable=0;fillColor=none;top=0;left=0;bottom=0;right=0;align=left;spacingLeft=6;overflow=hidden;whiteSpace=wrap;html=1;" vertex="1" parent="m7ey02A2FV9EOtOhvZ2l-60">
          <mxGeometry x="30" width="150" height="30" as="geometry">
            <mxRectangle width="150" height="30" as="alternateBounds" />
          </mxGeometry>
        </mxCell>
        <mxCell id="m7ey02A2FV9EOtOhvZ2l-63" value="" style="shape=tableRow;horizontal=0;startSize=0;swimlaneHead=0;swimlaneBody=0;fillColor=none;collapsible=0;dropTarget=0;points=[[0,0.5],[1,0.5]];portConstraint=eastwest;top=0;left=0;right=0;bottom=0;" vertex="1" parent="m7ey02A2FV9EOtOhvZ2l-53">
          <mxGeometry y="120" width="180" height="30" as="geometry" />
        </mxCell>
        <mxCell id="m7ey02A2FV9EOtOhvZ2l-64" value="" style="shape=partialRectangle;connectable=0;fillColor=none;top=0;left=0;bottom=0;right=0;editable=1;overflow=hidden;whiteSpace=wrap;html=1;" vertex="1" parent="m7ey02A2FV9EOtOhvZ2l-63">
          <mxGeometry width="30" height="30" as="geometry">
            <mxRectangle width="30" height="30" as="alternateBounds" />
          </mxGeometry>
        </mxCell>
        <mxCell id="m7ey02A2FV9EOtOhvZ2l-65" value="Фио клиента" style="shape=partialRectangle;connectable=0;fillColor=none;top=0;left=0;bottom=0;right=0;align=left;spacingLeft=6;overflow=hidden;whiteSpace=wrap;html=1;" vertex="1" parent="m7ey02A2FV9EOtOhvZ2l-63">
          <mxGeometry x="30" width="150" height="30" as="geometry">
            <mxRectangle width="150" height="30" as="alternateBounds" />
          </mxGeometry>
        </mxCell>
        <mxCell id="m7ey02A2FV9EOtOhvZ2l-66" value="Тестировщики" style="shape=table;startSize=30;container=1;collapsible=1;childLayout=tableLayout;fixedRows=1;rowLines=0;fontStyle=1;align=center;resizeLast=1;html=1;" vertex="1" parent="1">
          <mxGeometry x="610" y="470" width="180" height="150" as="geometry" />
        </mxCell>
        <mxCell id="m7ey02A2FV9EOtOhvZ2l-67" value="" style="shape=tableRow;horizontal=0;startSize=0;swimlaneHead=0;swimlaneBody=0;fillColor=none;collapsible=0;dropTarget=0;points=[[0,0.5],[1,0.5]];portConstraint=eastwest;top=0;left=0;right=0;bottom=1;" vertex="1" parent="m7ey02A2FV9EOtOhvZ2l-66">
          <mxGeometry y="30" width="180" height="30" as="geometry" />
        </mxCell>
        <mxCell id="m7ey02A2FV9EOtOhvZ2l-68" value="PK" style="shape=partialRectangle;connectable=0;fillColor=none;top=0;left=0;bottom=0;right=0;fontStyle=1;overflow=hidden;whiteSpace=wrap;html=1;" vertex="1" parent="m7ey02A2FV9EOtOhvZ2l-67">
          <mxGeometry width="30" height="30" as="geometry">
            <mxRectangle width="30" height="30" as="alternateBounds" />
          </mxGeometry>
        </mxCell>
        <mxCell id="m7ey02A2FV9EOtOhvZ2l-69" value="UniqueID" style="shape=partialRectangle;connectable=0;fillColor=none;top=0;left=0;bottom=0;right=0;align=left;spacingLeft=6;fontStyle=5;overflow=hidden;whiteSpace=wrap;html=1;" vertex="1" parent="m7ey02A2FV9EOtOhvZ2l-67">
          <mxGeometry x="30" width="150" height="30" as="geometry">
            <mxRectangle width="150" height="30" as="alternateBounds" />
          </mxGeometry>
        </mxCell>
        <mxCell id="m7ey02A2FV9EOtOhvZ2l-70" value="" style="shape=tableRow;horizontal=0;startSize=0;swimlaneHead=0;swimlaneBody=0;fillColor=none;collapsible=0;dropTarget=0;points=[[0,0.5],[1,0.5]];portConstraint=eastwest;top=0;left=0;right=0;bottom=0;" vertex="1" parent="m7ey02A2FV9EOtOhvZ2l-66">
          <mxGeometry y="60" width="180" height="30" as="geometry" />
        </mxCell>
        <mxCell id="m7ey02A2FV9EOtOhvZ2l-71" value="" style="shape=partialRectangle;connectable=0;fillColor=none;top=0;left=0;bottom=0;right=0;editable=1;overflow=hidden;whiteSpace=wrap;html=1;" vertex="1" parent="m7ey02A2FV9EOtOhvZ2l-70">
          <mxGeometry width="30" height="30" as="geometry">
            <mxRectangle width="30" height="30" as="alternateBounds" />
          </mxGeometry>
        </mxCell>
        <mxCell id="m7ey02A2FV9EOtOhvZ2l-72" value="Софт для тестирования" style="shape=partialRectangle;connectable=0;fillColor=none;top=0;left=0;bottom=0;right=0;align=left;spacingLeft=6;overflow=hidden;whiteSpace=wrap;html=1;" vertex="1" parent="m7ey02A2FV9EOtOhvZ2l-70">
          <mxGeometry x="30" width="150" height="30" as="geometry">
            <mxRectangle width="150" height="30" as="alternateBounds" />
          </mxGeometry>
        </mxCell>
        <mxCell id="m7ey02A2FV9EOtOhvZ2l-73" value="" style="shape=tableRow;horizontal=0;startSize=0;swimlaneHead=0;swimlaneBody=0;fillColor=none;collapsible=0;dropTarget=0;points=[[0,0.5],[1,0.5]];portConstraint=eastwest;top=0;left=0;right=0;bottom=0;" vertex="1" parent="m7ey02A2FV9EOtOhvZ2l-66">
          <mxGeometry y="90" width="180" height="30" as="geometry" />
        </mxCell>
        <mxCell id="m7ey02A2FV9EOtOhvZ2l-74" value="" style="shape=partialRectangle;connectable=0;fillColor=none;top=0;left=0;bottom=0;right=0;editable=1;overflow=hidden;whiteSpace=wrap;html=1;" vertex="1" parent="m7ey02A2FV9EOtOhvZ2l-73">
          <mxGeometry width="30" height="30" as="geometry">
            <mxRectangle width="30" height="30" as="alternateBounds" />
          </mxGeometry>
        </mxCell>
        <mxCell id="m7ey02A2FV9EOtOhvZ2l-75" value="Расценки" style="shape=partialRectangle;connectable=0;fillColor=none;top=0;left=0;bottom=0;right=0;align=left;spacingLeft=6;overflow=hidden;whiteSpace=wrap;html=1;" vertex="1" parent="m7ey02A2FV9EOtOhvZ2l-73">
          <mxGeometry x="30" width="150" height="30" as="geometry">
            <mxRectangle width="150" height="30" as="alternateBounds" />
          </mxGeometry>
        </mxCell>
        <mxCell id="m7ey02A2FV9EOtOhvZ2l-76" value="" style="shape=tableRow;horizontal=0;startSize=0;swimlaneHead=0;swimlaneBody=0;fillColor=none;collapsible=0;dropTarget=0;points=[[0,0.5],[1,0.5]];portConstraint=eastwest;top=0;left=0;right=0;bottom=0;" vertex="1" parent="m7ey02A2FV9EOtOhvZ2l-66">
          <mxGeometry y="120" width="180" height="30" as="geometry" />
        </mxCell>
        <mxCell id="m7ey02A2FV9EOtOhvZ2l-77" value="" style="shape=partialRectangle;connectable=0;fillColor=none;top=0;left=0;bottom=0;right=0;editable=1;overflow=hidden;whiteSpace=wrap;html=1;" vertex="1" parent="m7ey02A2FV9EOtOhvZ2l-76">
          <mxGeometry width="30" height="30" as="geometry">
            <mxRectangle width="30" height="30" as="alternateBounds" />
          </mxGeometry>
        </mxCell>
        <mxCell id="m7ey02A2FV9EOtOhvZ2l-78" value="" style="shape=partialRectangle;connectable=0;fillColor=none;top=0;left=0;bottom=0;right=0;align=left;spacingLeft=6;overflow=hidden;whiteSpace=wrap;html=1;" vertex="1" parent="m7ey02A2FV9EOtOhvZ2l-76">
          <mxGeometry x="30" width="150" height="30" as="geometry">
            <mxRectangle width="150" height="30" as="alternateBounds" />
          </mxGeometry>
        </mxCell>
        <mxCell id="m7ey02A2FV9EOtOhvZ2l-79" value="Готовые заказа" style="shape=table;startSize=30;container=1;collapsible=1;childLayout=tableLayout;fixedRows=1;rowLines=0;fontStyle=1;align=center;resizeLast=1;html=1;" vertex="1" parent="1">
          <mxGeometry x="350" y="470" width="180" height="150" as="geometry" />
        </mxCell>
        <mxCell id="m7ey02A2FV9EOtOhvZ2l-80" value="" style="shape=tableRow;horizontal=0;startSize=0;swimlaneHead=0;swimlaneBody=0;fillColor=none;collapsible=0;dropTarget=0;points=[[0,0.5],[1,0.5]];portConstraint=eastwest;top=0;left=0;right=0;bottom=1;" vertex="1" parent="m7ey02A2FV9EOtOhvZ2l-79">
          <mxGeometry y="30" width="180" height="30" as="geometry" />
        </mxCell>
        <mxCell id="m7ey02A2FV9EOtOhvZ2l-81" value="PK" style="shape=partialRectangle;connectable=0;fillColor=none;top=0;left=0;bottom=0;right=0;fontStyle=1;overflow=hidden;whiteSpace=wrap;html=1;" vertex="1" parent="m7ey02A2FV9EOtOhvZ2l-80">
          <mxGeometry width="30" height="30" as="geometry">
            <mxRectangle width="30" height="30" as="alternateBounds" />
          </mxGeometry>
        </mxCell>
        <mxCell id="m7ey02A2FV9EOtOhvZ2l-82" value="UniqueID" style="shape=partialRectangle;connectable=0;fillColor=none;top=0;left=0;bottom=0;right=0;align=left;spacingLeft=6;fontStyle=5;overflow=hidden;whiteSpace=wrap;html=1;" vertex="1" parent="m7ey02A2FV9EOtOhvZ2l-80">
          <mxGeometry x="30" width="150" height="30" as="geometry">
            <mxRectangle width="150" height="30" as="alternateBounds" />
          </mxGeometry>
        </mxCell>
        <mxCell id="m7ey02A2FV9EOtOhvZ2l-83" value="" style="shape=tableRow;horizontal=0;startSize=0;swimlaneHead=0;swimlaneBody=0;fillColor=none;collapsible=0;dropTarget=0;points=[[0,0.5],[1,0.5]];portConstraint=eastwest;top=0;left=0;right=0;bottom=0;" vertex="1" parent="m7ey02A2FV9EOtOhvZ2l-79">
          <mxGeometry y="60" width="180" height="30" as="geometry" />
        </mxCell>
        <mxCell id="m7ey02A2FV9EOtOhvZ2l-84" value="" style="shape=partialRectangle;connectable=0;fillColor=none;top=0;left=0;bottom=0;right=0;editable=1;overflow=hidden;whiteSpace=wrap;html=1;" vertex="1" parent="m7ey02A2FV9EOtOhvZ2l-83">
          <mxGeometry width="30" height="30" as="geometry">
            <mxRectangle width="30" height="30" as="alternateBounds" />
          </mxGeometry>
        </mxCell>
        <mxCell id="m7ey02A2FV9EOtOhvZ2l-85" value="Название сборки" style="shape=partialRectangle;connectable=0;fillColor=none;top=0;left=0;bottom=0;right=0;align=left;spacingLeft=6;overflow=hidden;whiteSpace=wrap;html=1;" vertex="1" parent="m7ey02A2FV9EOtOhvZ2l-83">
          <mxGeometry x="30" width="150" height="30" as="geometry">
            <mxRectangle width="150" height="30" as="alternateBounds" />
          </mxGeometry>
        </mxCell>
        <mxCell id="m7ey02A2FV9EOtOhvZ2l-86" value="" style="shape=tableRow;horizontal=0;startSize=0;swimlaneHead=0;swimlaneBody=0;fillColor=none;collapsible=0;dropTarget=0;points=[[0,0.5],[1,0.5]];portConstraint=eastwest;top=0;left=0;right=0;bottom=0;" vertex="1" parent="m7ey02A2FV9EOtOhvZ2l-79">
          <mxGeometry y="90" width="180" height="30" as="geometry" />
        </mxCell>
        <mxCell id="m7ey02A2FV9EOtOhvZ2l-87" value="" style="shape=partialRectangle;connectable=0;fillColor=none;top=0;left=0;bottom=0;right=0;editable=1;overflow=hidden;whiteSpace=wrap;html=1;" vertex="1" parent="m7ey02A2FV9EOtOhvZ2l-86">
          <mxGeometry width="30" height="30" as="geometry">
            <mxRectangle width="30" height="30" as="alternateBounds" />
          </mxGeometry>
        </mxCell>
        <mxCell id="m7ey02A2FV9EOtOhvZ2l-88" value="Комплектующие&amp;nbsp;" style="shape=partialRectangle;connectable=0;fillColor=none;top=0;left=0;bottom=0;right=0;align=left;spacingLeft=6;overflow=hidden;whiteSpace=wrap;html=1;" vertex="1" parent="m7ey02A2FV9EOtOhvZ2l-86">
          <mxGeometry x="30" width="150" height="30" as="geometry">
            <mxRectangle width="150" height="30" as="alternateBounds" />
          </mxGeometry>
        </mxCell>
        <mxCell id="m7ey02A2FV9EOtOhvZ2l-89" value="" style="shape=tableRow;horizontal=0;startSize=0;swimlaneHead=0;swimlaneBody=0;fillColor=none;collapsible=0;dropTarget=0;points=[[0,0.5],[1,0.5]];portConstraint=eastwest;top=0;left=0;right=0;bottom=0;" vertex="1" parent="m7ey02A2FV9EOtOhvZ2l-79">
          <mxGeometry y="120" width="180" height="30" as="geometry" />
        </mxCell>
        <mxCell id="m7ey02A2FV9EOtOhvZ2l-90" value="" style="shape=partialRectangle;connectable=0;fillColor=none;top=0;left=0;bottom=0;right=0;editable=1;overflow=hidden;whiteSpace=wrap;html=1;" vertex="1" parent="m7ey02A2FV9EOtOhvZ2l-89">
          <mxGeometry width="30" height="30" as="geometry">
            <mxRectangle width="30" height="30" as="alternateBounds" />
          </mxGeometry>
        </mxCell>
        <mxCell id="m7ey02A2FV9EOtOhvZ2l-91" value="Цена" style="shape=partialRectangle;connectable=0;fillColor=none;top=0;left=0;bottom=0;right=0;align=left;spacingLeft=6;overflow=hidden;whiteSpace=wrap;html=1;" vertex="1" parent="m7ey02A2FV9EOtOhvZ2l-89">
          <mxGeometry x="30" width="150" height="30" as="geometry">
            <mxRectangle width="150" height="30" as="alternateBounds" />
          </mxGeometry>
        </mxCell>
        <mxCell id="m7ey02A2FV9EOtOhvZ2l-93" value="" style="endArrow=none;html=1;rounded=0;entryX=-0.022;entryY=0.1;entryDx=0;entryDy=0;entryPerimeter=0;exitX=1.028;exitY=0.067;exitDx=0;exitDy=0;exitPerimeter=0;" edge="1" parent="1" source="m7ey02A2FV9EOtOhvZ2l-8" target="m7ey02A2FV9EOtOhvZ2l-21">
          <mxGeometry width="50" height="50" relative="1" as="geometry">
            <mxPoint x="210" y="490" as="sourcePoint" />
            <mxPoint x="260" y="440" as="targetPoint" />
          </mxGeometry>
        </mxCell>
        <mxCell id="m7ey02A2FV9EOtOhvZ2l-94" value="" style="endArrow=none;html=1;rounded=0;entryX=0.017;entryY=0;entryDx=0;entryDy=0;entryPerimeter=0;exitX=1.011;exitY=0.067;exitDx=0;exitDy=0;exitPerimeter=0;" edge="1" parent="1" source="m7ey02A2FV9EOtOhvZ2l-21" target="m7ey02A2FV9EOtOhvZ2l-60">
          <mxGeometry width="50" height="50" relative="1" as="geometry">
            <mxPoint x="540" y="470" as="sourcePoint" />
            <mxPoint x="590" y="420" as="targetPoint" />
          </mxGeometry>
        </mxCell>
        <mxCell id="m7ey02A2FV9EOtOhvZ2l-108" value="" style="endArrow=none;html=1;rounded=0;entryX=-0.022;entryY=0.733;entryDx=0;entryDy=0;entryPerimeter=0;exitX=1.006;exitY=0.1;exitDx=0;exitDy=0;exitPerimeter=0;" edge="1" parent="1" source="m7ey02A2FV9EOtOhvZ2l-60" target="m7ey02A2FV9EOtOhvZ2l-31">
          <mxGeometry width="50" height="50" relative="1" as="geometry">
            <mxPoint x="770" y="480" as="sourcePoint" />
            <mxPoint x="820" y="430" as="targetPoint" />
          </mxGeometry>
        </mxCell>
        <mxCell id="m7ey02A2FV9EOtOhvZ2l-109" value="" style="endArrow=none;dashed=1;html=1;rounded=0;entryX=0.356;entryY=1.067;entryDx=0;entryDy=0;entryPerimeter=0;exitX=0.25;exitY=0;exitDx=0;exitDy=0;" edge="1" parent="1" source="m7ey02A2FV9EOtOhvZ2l-40" target="m7ey02A2FV9EOtOhvZ2l-37">
          <mxGeometry width="50" height="50" relative="1" as="geometry">
            <mxPoint x="860" y="470" as="sourcePoint" />
            <mxPoint x="910" y="420" as="targetPoint" />
          </mxGeometry>
        </mxCell>
        <mxCell id="m7ey02A2FV9EOtOhvZ2l-110" value="" style="endArrow=none;dashed=1;html=1;dashPattern=1 3;strokeWidth=2;rounded=0;exitX=1;exitY=0.5;exitDx=0;exitDy=0;" edge="1" parent="1" source="m7ey02A2FV9EOtOhvZ2l-70" target="m7ey02A2FV9EOtOhvZ2l-41">
          <mxGeometry width="50" height="50" relative="1" as="geometry">
            <mxPoint x="800" y="560" as="sourcePoint" />
            <mxPoint x="850" y="510" as="targetPoint" />
          </mxGeometry>
        </mxCell>
        <mxCell id="m7ey02A2FV9EOtOhvZ2l-111" value="" style="endArrow=none;dashed=1;html=1;rounded=0;entryX=0;entryY=0.5;entryDx=0;entryDy=0;exitX=1;exitY=0.5;exitDx=0;exitDy=0;" edge="1" parent="1" source="m7ey02A2FV9EOtOhvZ2l-86" target="m7ey02A2FV9EOtOhvZ2l-73">
          <mxGeometry width="50" height="50" relative="1" as="geometry">
            <mxPoint x="500" y="700" as="sourcePoint" />
            <mxPoint x="550" y="650" as="targetPoint" />
          </mxGeometry>
        </mxCell>
      </root>
    </mxGraphModel>
  </diagram>
</mxfile>
